<mxfile host="app.diagrams.net" modified="2023-09-21T20:10:14.080Z" agent="Mozilla/5.0 (Windows NT 10.0; Win64; x64) AppleWebKit/537.36 (KHTML, like Gecko) Chrome/116.0.0.0 Safari/537.36" etag="kd0taOmF_JbpDptnIz7O" version="21.3.7" type="github">
  <diagram name="Page-1" id="JdBnrZLS_sai2Ay9737S">
    <mxGraphModel dx="1245" dy="649" grid="1" gridSize="10" guides="1" tooltips="1" connect="1" arrows="1" fold="1" page="1" pageScale="1" pageWidth="850" pageHeight="1100" math="0" shadow="0">
      <root>
        <mxCell id="0" />
        <mxCell id="1" parent="0" />
        <mxCell id="yZUwgCXandGBFA6V9dU8-20" value="" style="rounded=1;whiteSpace=wrap;html=1;" vertex="1" parent="1">
          <mxGeometry x="587" y="96" width="397.5" height="130" as="geometry" />
        </mxCell>
        <mxCell id="yZUwgCXandGBFA6V9dU8-1" value="Business and Data understanding" style="rounded=1;whiteSpace=wrap;html=1;" vertex="1" parent="1">
          <mxGeometry x="20" y="330" width="120" height="60" as="geometry" />
        </mxCell>
        <mxCell id="yZUwgCXandGBFA6V9dU8-2" value="" style="shape=flexArrow;endArrow=classic;html=1;rounded=0;" edge="1" parent="1">
          <mxGeometry width="50" height="50" relative="1" as="geometry">
            <mxPoint x="338" y="359.5" as="sourcePoint" />
            <mxPoint x="388" y="360" as="targetPoint" />
            <Array as="points">
              <mxPoint x="358" y="359.5" />
            </Array>
          </mxGeometry>
        </mxCell>
        <mxCell id="yZUwgCXandGBFA6V9dU8-3" value="" style="rounded=0;whiteSpace=wrap;html=1;" vertex="1" parent="1">
          <mxGeometry x="210" y="280" width="120" height="140" as="geometry" />
        </mxCell>
        <mxCell id="yZUwgCXandGBFA6V9dU8-4" value="Data Collection" style="text;strokeColor=none;align=center;fillColor=none;html=1;verticalAlign=middle;whiteSpace=wrap;rounded=0;" vertex="1" parent="1">
          <mxGeometry x="225" y="427" width="90" height="30" as="geometry" />
        </mxCell>
        <mxCell id="yZUwgCXandGBFA6V9dU8-5" value="" style="shape=image;verticalLabelPosition=bottom;labelBackgroundColor=default;verticalAlign=top;aspect=fixed;imageAspect=0;image=https://www.freeiconspng.com/thumbs/photography-icon-png/photo-album-icon-png-14.png;" vertex="1" parent="1">
          <mxGeometry x="222.5" y="302" width="95" height="76" as="geometry" />
        </mxCell>
        <mxCell id="yZUwgCXandGBFA6V9dU8-6" value="Industry Data" style="text;strokeColor=none;align=center;fillColor=none;html=1;verticalAlign=middle;whiteSpace=wrap;rounded=0;" vertex="1" parent="1">
          <mxGeometry x="235" y="378" width="70" height="30" as="geometry" />
        </mxCell>
        <mxCell id="yZUwgCXandGBFA6V9dU8-7" value="" style="shape=flexArrow;endArrow=classic;html=1;rounded=0;" edge="1" parent="1">
          <mxGeometry width="50" height="50" relative="1" as="geometry">
            <mxPoint x="150" y="359.5" as="sourcePoint" />
            <mxPoint x="200" y="360" as="targetPoint" />
            <Array as="points">
              <mxPoint x="170" y="359.5" />
            </Array>
          </mxGeometry>
        </mxCell>
        <mxCell id="yZUwgCXandGBFA6V9dU8-9" value="" style="shape=image;verticalLabelPosition=bottom;labelBackgroundColor=default;verticalAlign=top;aspect=fixed;imageAspect=0;image=https://static-00.iconduck.com/assets.00/storage-amazons3-bucket-icon-495x512-rd519ixy.png;" vertex="1" parent="1">
          <mxGeometry x="400" y="299.39" width="105" height="108.61" as="geometry" />
        </mxCell>
        <mxCell id="yZUwgCXandGBFA6V9dU8-10" value="AWS S3 Bucket" style="text;strokeColor=none;align=center;fillColor=none;html=1;verticalAlign=middle;whiteSpace=wrap;rounded=0;" vertex="1" parent="1">
          <mxGeometry x="422.5" y="410" width="60" height="30" as="geometry" />
        </mxCell>
        <mxCell id="yZUwgCXandGBFA6V9dU8-12" value="" style="shape=image;verticalLabelPosition=bottom;labelBackgroundColor=default;verticalAlign=top;aspect=fixed;imageAspect=0;image=data:image/png,iVBORw0KGgoAAAANSUhEUgAAAZAAAAGQCAYAAACAvzbMAAEAAElEQVR4Xux9B4BcVfX+fXV62b6b3kMKvfdeBLFQFOyKoGIviPi3YsPuT1QQFEUURbpSFJAeCC0QUkmv2/v0ee3/nXvfm5lNAkl2N9md3Xk4TnZ35pVbTv3OdyRWOSojMEZGIPe0I5l5phh5JlsZppkGkxNdLJpMMH9vF6vr67UnpPtzDclEZlKyP9WYS9kTUj1shm1IsXw+r+dyOckwDMm2bRoRiV44mIMD744sy7amaY6u67bP5zNl3UqEq9k2X4i1hiLB1kjU3xyM+tticb0lXsNaQlGWjFexhBJgOZ+fGYqPWZLCbO14yRkjQ155jHE+ArRJKkdlBMpiBJw2R8v1MP/mzUZ03RvrfK1bOv3Nb3RMMDNSXSZj1Bl45bJ2rZGzQkbGiZmGFPDJYQnvftuQg46t+lQJ/5NURbIk3bEUn08NK5It+6AjVLwUV3FwzUHKgw78nisRHDZ+V3g5sm3lrX7T0cwsPmo6zLBMJ2tKspGTNSmt6E46l++TNL+U0INKn+bDu0/u0YNqeyDg79SCrGP6wknb6yZVZ2bNmpGdOFXuUaPMkOolqywmpHKT434EKgpk3C+B0TUAzmZH7+9k0bZtLNjdngluXNtW097c17RlQ8eReD8gm3aqJUfXFObzwSnQJTvjY7bpg+QOSo7ql2VFkyUddr4iO7bMdMnPHFthkkW6Ae9Mg3KQGfwJvBi+mmGS7JDC4K/SgxSHd+ygTIRSsSUmqz7GZDq3jf9MBiWCF95li0kq/mVmmaPgZwleDVQZY5bhyGZalqWsI6k5WfGnTSZlLTubd2QjEwwpnU2Ta1bMmNO0pHFyrLVpcjxRVevLNE5myVAtS0mTJJyjclRGYHSMQEWBjI55GJd34Wx1dMhbffvrrPbZp1+qXfLKsoNat3fPM/NarS5FgpocC8tWoN7MavVGVqlmji+gOgEF7xD8Euz9LNMDeWY7OQhzijcpTIaSkCUV4wkFQZEoUh6kOBxa6jIEP0JSEPwUocJPkP0GFAiE/UBvg1EYy1MgnnJBCGuggsG5LVOF4hAKhE5Byoj+TQqDFAnUGbPwH5wXZpPst/Fv+hv3anCvdhj3C6WmOHiOLDOlDDyYfFoPmp2qz+q2lVS7yfp7DCfV5ws52ydPaVhz2OEHbjr62AVt9QtYJ0NoTGqUzHG5gCoPPeIjUFEgIz4F4+MGEH5S+razqo1vsOjaVb2TNq9rndLbkjykZfX2A6W8XAOBHYECqFWYFkWQSDUMiN+cyWRZZ7KjMhVKQZbxggdByoKUgQ3BTLqC3j2BT54FHUJAQ0lAnsMrwQsKhSsJ8XdPKZjmQNm7oyeyo2Lxzi0uAnWl4H5wDVIQ3uE44n5sB76FAn1HH+AeCFSZjHvAi//OhgJDsKpwTbhENjSqbZvMcPLMwkvB80kKVJQqQQFZOXhdSejJdk1X2phPam2cM+nVaENo9fQ5TVvnHRhqmz6X9fnmSanxsaoqTznSI1BRICM9A2P0+maz47ezLLB1nVX91CMvNzzx0Esntm/PHR7WGuJ+tabayeuNTk6pjiqRAPIRRQUAoUoCVXbzzCTgyYeg3/Hktvt3VYUyURWWycOq558n858ENBSE9zOFlURCvESpkGIhj0AsfUkmBeAKdPdznkAvDWm5eZDCuQqKxeJujqsEhKIqPehn8kVIsdlQGnRVene4h2NBneFeLIS48Dv6LD2Tdw6TFJD73HQO+gw5T/R3BYoJA5PvziVS/qjep/jzHYl0e2/abmuZOCO++Iy3HfnCMacu7Jgym/VISOJLdZXQ1xjdaiP6WBUFMqLDP3Yu7nQ5ahIexsolXXVLX9lUt2Fl2yH9ncaBXS3Z2VZGavAxf30kEItAkKqZVIrnH4K+MEv0ZyEMfUyHqb2j8PWENHwHPlDcqndfQsiTatHxFwheeAAQxTD0LWSzbe55kD3vyXMbHgBXTOSJ8D+SoCdlAxMfHg4Xzq6yKc19lM5QqWLh90ZeBa5HDyNyIoWEO64vFIlJCgbXhA8Fgc8DbLi08IzoI0i48/skZcIVmnsu/pw89OVwZaEiFCaUicWAFGM5pFMsy2CBgA+hPITxKBynkVKVDUs2k5JqtVp6riVcLa2vaQoum3vwpBcPOXpm2/yDfZ1yPctK0UrYa+zsvpF7kooCGbmxL/srO9sdf89GVvvKc2tqn3h08dy1q5qPl3LxmUGtoYHlQpONpFqtKxFVoTwEhZLIoka+QobsEnkHBVmCAHICyAHAs+BhKFdokqAHdhbWOUI6WKUqEt8kgOmdpzAgmCk5zmwITTq/u5K973OFAwHvg0VPCoULaVIZdE5SJq5H4JAUp4T6LpLodI7SPEjpz1xh4F6FwwNlRhEpUnR4DqEIhCdh5z3FRXkS/FySW6H7Q+IcL4SoePiKdBHOSp4KhcG85+b3UQzT0XlVn878wAqYmSQUCZQPlCAS8rgnneUwNhblXBD6kjXDlPzZXlPp25YxW5uVUHrlgoOnPH3WeSduPvKEiVvlKiiTiVKm7Bdj5QFGZAQqCmREhr18L5pf5oSXvJCcsOjJ5VPWLm8+vn97+mjV8tXJtq9JsrUaJLj9suWDUKeXygU1HRTIAdIVLwrb5CEpIRAdDUnjEH6jkbgXg8JDV+LfXNDzhDQJVPdn/k4pcDL3VabgWoA57XJASTCL74k/01npbmz8Uua/LF5r8DMiFBp5FHS3hQCW+9wDKz4GhreAymIWVyBQpt5zFd6h6Gg4vBtzz1d6n0jhMxWJd5mjxQA8g5fjYEwdUrLunfD8EK5hSTkolBwUdzaNDFMXvthuadlNkabAKwcdO/vJ085cuGXWQaxDmi5hcipHZQT2bAQqCmTPxmncfsrpcJTEZlaz/OUtdYufWdX0+ovbT2zbmjtJV2sbagITm5y0FFctKAA3JOSFbgTqSQhWLqi51S8UAikPjlSCwLMAIyKruaBAXOVB1rlQJp7oL30vTgcl2EnM7iiA+Sdcocs9ll0eJGaHpkQEAmvXxw7qgn9I3KenEEmZ7eq5dv6mGMeBB42l4gBFxpUpfYeUDnlu5FWJ+6Lzc2+Jh8YQEiPIMl6AETNLNUwn5PR0pbc3G3bH5onTgo8edcLsl44+eX7rrPnx7sBBUuJNH67yh8oI8BVXOSojsIsRyK1yok8+tHXKA3ctOjTVpR2T7VEPZkZoakCN1MmOz4cKOpbPmMyPMmuFlAUP6JONv6PQp1XmCbjihWwIORKKpGiEcNyVuCW1Uvr7HT+D5DOsaqCTuEchPAGyvr3DRWRxZ8P7bnHJc3Fbgp4azELgAnrALipenes/PiZ0iHHhngp+x+8GQl6yQngv8cDo9yWKUzxN6bgWz8mv7fp2QhHSUbx+6fOIUJyHQHPzKfgx56SY4kduRkVw0cr256z+bWrIfKO6UX0+1iAtOf89x60/6qxYc6X+ZDCrY+x/p6JAxv4c7/ETtr3kVK1dvrXm5UVvTHzusRWnBaTGuXY6eoiVDkywMlqEwlI68hUaEFCU7KXkto1ivYGCkWL3QuiJEFRBdIrQEwQ5fdPzGlTkDFACUTwK0tgV/vyzpYrDS3ZAtFL4R8lwBVI8in/nMpqscf4PV3gS4orfhxDUQnntWujuycB5CqToAdFzF88p7mYH4e4qFRCjcAVC74VjgMJxPTbutZV6SuJ+LeRCTORa+Hi6ypt7I4WXm/NxXTABa8bnKT9DihbfUTTU05g5loNBQIeEEk3Zh2JHNd1FeRM1nHpRCvS9cOTJc5efeu7RndNmB7pCFZjwniyNcfGZigIZF9P85g+JRLiCRHjdLTc+ecDip1edaaXiR6l2fEY80NSU6csHJBB0+ClhS3UISNZmM3nm4HeKojMVSVsTwslVJa7CoHAJCTGqvhaw1YL45B4CiTghzElxqFBAA8Izu4j1D3SUi8qEJ6Epl7LLVewpjoF/FILTC62RxBwqa4gQ2Ty3wt8F1FYcnmLaQUF5CoSS9wQCGOjClEyWCP0Vj4HnoeuYUCJAQReuJzyWokbm8GYOU6YP0fVIgYgqfLq/fD7BfLrKfH4N9436EyC8TCC9bBgKiqazvGWakmb0amF7S092+xrJ17PkvAuPf/SSDx60KTCV9YN2ZfDad5zvvbHw+BUFMhZmcS+fwel05M4VrOa5J1c3vPzM8gOWvrLxPNWuWRBQG6doVn2DJkVZujfPEU9+nZBQqJC2EepAUlrX/Bx2a6LQL5uzmKIjaUtyeAeBKZSIe7jmuWf5e56Ip0TovWjB7yqU5YnogQ9aqphKRXjpp3YUzoXrQHFRkr1U2O7lMHoPx9+L908KVPypkFzfZZ7DVWI8N7RnVx44fqQ8hfIoKnC6j13Lc34Lbp6q4IHhV0G/jrnMQnHAk+N1J5QjQfEmikcI5JDNOay6tob1JDtZMteei9Q6LYnc1m1qIPnywcfM+u8RJx244eiTJ7fFjpD69uwpKp8aSyNQUSBjaTZ38yzgmQq8sYg13nnbM4cue2XT6UGlaoGdsafpSqCOWUpQAbNIOpkH9DXIqmM1rKujl1HBng6BQlBVWKMIWbm8UagKJxgrI3RPIRTERSlexbBRYYFR6MoNHRXfgRGifK8rREsF28BH2bUC8QSvyCe4YZwdPBjhHxQPkYNwcyWu8B3KEvBCRqWejeeBeIr1zfSDAAoIlNkOiZRd3NLO40cfUuDBCAXmheZKrsbpVOiPA/MoxRyMzAwoCBXepB9eCIdOu3BhggZT3iQLLi9AFJgviHAbuL0Idgz6L6pG6e9Nd7YZqrGJ+TMvn3TWoQ+898OHrq9byHrhlVT4uoayqMrouxUFUkaTNdhb7X/RqX3q4a0Tn3r4tSO7tlrHy0bkUDurT7XyUhycGSwC3nETPOjZdJL5/X6mgvojm82zcCCMkJUBzwOQXPzOsEQilhf8EYrHJliogOTygxMUegpkYO5BJLkFfNZ7tyDNLXgBA7wV9yEHWuUDg0RFQK6w/N8M7VQcr+L3vdi/J/BFPmbXCfzdj7eXo/CS48X3EpUlhmYXJxMhODe/8aZhrBIgwA7noHySAk/KAyKUejxCUYpaFVEpzxELeFHIUfyO144QAo7yIpRkR/0I1alQ1EtTKbHusFAoyHp6uphhwyPV4a1AdVhYBxIoXIjni/lYPm32dqn+3EYpnHyucarvqXMuPH71SWc3bJXnwLqoHGN6BCoKZIxOr7PJUbs3s7r7b1uxcPHjb5zT2+ycEfM3NVkZp0ZBZ4sA8hrpdBpCIlAiQEutdS9OXlQEu5Rxuypo3kUegyfP3QK+0vc3h9iWTsybK5BdwVt3mlIPBbbj9Ydx7r1cT2nOZ09OLwAHb3W8tXLzEGw715EIz65w7HQdd0y9inx8sKC0C58dmH8pzr93T8T3BTZMeC+ZfIbJOni6/EZLb7pl86Q50XvPvei4p486vW5r7NhKeGtP1kI5fqaiQMpx1t7inp12R3/18f6pj9y1+MClz28+u0aftqB7e36eX4pXRwPVLJNCSAJWJCVOszl4ECrlMAZrgY+xwas8zl6NAA/f2QaI9TWWTuUAm7BZOBJmKaM3l7J6OkJ1zitqNLVo7uFNiy694vR1TfNRqFi3pxmfvbqVyodHaAQqCmSEBn64L2tvcgLPPJKd+p+7XzntjVdb36Fk/fOi/nh9urffryPcFPCjYhv7HTsbpW8B5tPiPJ9BjEtDgbEO93NUzldGI0CV9Oin4g+gIBT5MQpv6QE/KFVUlszmWBpdvWRd6Te19GbL3//sYSfMvO+CDx21Yt5hrA30KUOFv5XRQI3dW60okDKfW4Sqgg/+Y8us+//xzBntm823BeQpczUrPoHlQMGHuLaugihEw0a3UgwtWxHX0JmmhJEWDYoeGhy1s7swSpkPUuX2980IUEiQ6PRBOy/JRItPsGDQ0CMuqWtRIPRCLG/gM+DsyoI2E63CNnSl31g2Y37VvZ/98vtenH8qFEl9hdRx30zO/jlrRYHsn3Ee9qvkXnMiD9/dMuulRzee17Y59ba+nvTMgB6r0aSgmk9CIaADXzgEninQnVPOOw/GVqKw8MMTIWxODklyOhTqs7HL2othv+XKCcfYCBCbgIpakUQqCaCFxQJBeCJAbREFP5FJUpKeNAyFSDXUmaSMFAtGlH5ZM5tTue7XZyyse+Ds9x7yzHHn6dulKRXkVjkuj4oCKbNZc7Y4gafu6p97/Y//cnFcn35wpiV0QkCuislgXkXBBjwONG3VNDROtXlcmujOFfS84DXhYLOVqc2qlQFbK5Kf+JyDzn4VBVJmi2CU3C4pECokJbZjnVBb0BlEDUPNr4jgMY/6kqA/wHp6+1kwGOLIrd5EgisUn+7PWnq6OR9sXSRX9f/vq9/58P8OPpu1StUVj2SUTO8e3UZFgezRMI38h6yNju+Bv2+dc+9fnnpnvs9/qmaE58q56ISo0iRlEzmEDdKoGKe2qGmEqtBvA3UaoSDguXnQZACGS4SFBmCahoUwFvYoUVjQRncA490jJNPID0HlDkbZCBCCzEJOnOC9MooOc1lAfGG4EMWNBpoBCShew+xn1VURDgWORqqY5sO/u7JYm9XgZLZZivXm7EBiG5Ltz1dNtu695LJTlxz1rvBW9Cup5EhG2Xzv6nYqCmSUT1J+veNf9kJ+wo0/ueMs1HCcXxedvqC/zZiiySFJMcBblFNZhKw7xKDT6W7eHzwYRCITCiSTRS8Nk/ptg/AQcF3ql2QANUP4faIAyWZSKCBDjcceVkKP8qGq3N5+HgGhQNyuiRY8XTArazL6u5jU2ovgveT3ZoD264XCQMEImmCZBpSLGoKygUOsY02iUDUNJZNj3f3xCfL6jsSq16fMC93xxW997NVphyJHUkFt7edZ3bvLVRTI3o3Xfvs0OKqkFU85k/5ywwNn9Wy3z011yUeoLDpJYwHZhJVHjYsAr4JGyAgaEeQxiCiPF8VR7Bn/phADP9wqcO/mS2svhspGu98GpHKhUTcCoiGWV0RKTcFo/RVzahygQREppDeoda9NRaecGLJI50+UKXlwq9GyVTQk4cGFYMi966P1zhPVU+SHv/ztd79UfZLUM+oevnJDfAQqCmSULQRnnSNtep01/vuOlw9//tEVHwgqDYcZSW26Y6iqD5YbtTcluKSDzaliwzl2kj+BbFNFMfXloBfRW4gugK4GcSueXbRVJWk+yma9fG9nx0LQIjU/8cS4BozLFMyoVxWUCbEo07/pswQpt0xqTYzmYMSxhgR83kwzOZDt8sWNNzpzG5+49PJzbj/t3dO3xI6WxGKvHKNmBCoKZNRMBWyzFU74hh8vP3HVi+0XdG/MnxWQohOBkFSIURWYXK48qBqYKEXIu+CtVF0IrkTeB9+wghuJPlgsDyzSiZdOeCVyNYomvyxvhVoKo76IWzCUWyPFQDRYqC7iJfnCE+ZrktPI0wc9D0R0p6SmxjJR5OCzKsAe5EXT+rZA7Gir8F4CZldW7X5dq80+8M4Pnfzv8z/WuFGaUEm0j5blUlEgo2AmEkudyAtPbpty/98Wv7NtrfPugNU0W81GYlFfDERDYMFVEUtGjsNEfsOg/tfgpbIJHkkNiXhHvBICQ/d5PFbWAR33XCoPoWA8jqVKDcgoWAJlegtYf+T58uUkvIuBCoRWn+sR86ZZxTVHho9QIDnweQkEIfFxqVjXCsg7qV7JwM8522S+uOb0Oa3bes2ty2YeHvvDJZefveTos4NbpNpKVftIL5yKAhnBGXBaHHnry2za//3onnduXd91LssFZ8cDkyfkeiWQpkeYlcX2I6uM0hoIWRF5IVl2lAQn78OkZk6O1xO8lI6EWHIp9lzsP+4pDYmHuMhbEW1kiV21Ukg4goug3C+9A8dWsYPkjv1YiqSVnKXYZU9W4ZYoWKuOhPoRK411CZcbcF/J8WO9KwjTxlA/gqp2FMIGqqy8E+he3558Y8UxJ8/53dXfPX+J/7AKz9ZILqGKAhmh0U8tdar+dP0LRy1+cMOn5FzkcDQWajRAeBpQw2i0BOsrZ0N5QDmA75yUBSXNeaQA3gfvZw1PxAIsl5hyReJcTCV/87rXcU/fVSbec/L8iNdYiD7rMrOO0DhULlvGI8CZhF0DxPUwkJlzF6GnMISHW9po2DNm6J2YfRUF4VYVuRF42PA5+Hp30KXRAVW9qoWAJoQXgkJEU06zbL4TVMGJbl8gvzZQZ//36PMX3HHxZYdsCsyVoH0qx/4egYoC2c8jjmZO2oO3bJ5z6033f1BOVZ1WY804ONPNAHh0WKwqDrx8D8jpfBxb34sCrGgoLHpwcOpthSkWigI5uIWoulHPgfAWdf8Th2gXa/MudAhxEQrLo1AlReEqFBvhMELFiI1MHkmFTHE/L4OxcTmsJ54Q59Tw5NGKdSfyHkKBcJQfD50SlTzWndsJkUjlqV8lfdvE56lFgAxIr0PKA58lljZa16l0H9oNBGFMARAM2Hk8jB7yMJx6Et0sEFf7tilrljQeELn945+5+L/HXBrcOjYGtnyeoqJA9uNcvfGg03jbDf8+cd2rrZcEpJpD7X7/dD1fA6VAUMYcmvb4kOPIsxxc9ng8zimyyUJDRpF3QVIkFGxRS1J4JRrqPHSEsqhQq9iWVbSX5fBd3mebaCRoM9Mhkpd2IdkpqEyoz7lAbVWOygjs5QhAMdg87yF6ixQUSMEjhlJwW+zyRsYe7xp1PcS/eQMxzccygKWjdER401jXlEBHhStSfdROGQl10KOQaZRP59BaOcgCWhC9a0ymRiTW72/N5kP9q5gv/eSxp8z/6/uuOHpdzeESNkXl2B8jUFEg+2GUnW2O+vDtXQfe+6enPpraLp0bYrEZLGshXUgV4iA19JBTJObftD+E1zucLDugr7glR1bdjmSIIm0uLMAdp5f+IizCYt6DvJSKB7IflsHYvERhLRVrjsSDlq4pEcYSq3EgaIOUiMibFHMm1KGx+FmxXr1iV547oU/zHAoKE5ECkXwI52py39buDa3zj5ny28u+9LZ7Fl4sbR+bAz66nqqiQPbxfGx51qn9wy8ePPn1p9qvjNgTD5GSerXfCbI4qsfTafSh5n2tKwJ8H09D5fRjcAQAI2FBUPJ0pTpZdXUjM3XDak5s2mhHep887tzZN1/+lZNXxudXakf25dRXFMg+Gl00dpLv+0PLAXf++YmPmj3+c3Q7NMNvB4L5FPIWCBsFUBRogciQGHIr9Rj7aBIqpx3bIwDPJIT+I129HUwPIbSrWahkN5ihZNoMLb+mYXrwrg984uy7j/2IUvFG9tFKqCiQfTCwueVO9NovP/z2Tctz7812B46rDjbUJno6EXay2OSJk8AD5LD2zgQLaRHkNSr9OPbBFFROOQ5GgCDtlPNzAAoJhGzkDNOcMFRCQ6tMHuaZz9jAgj2PHnn61D98+dqjlkszKgWIw70sKgpkGEfUaXaUp+7pnPO33/3vw4mtwXfL6ao58WAdM9GdTUKhlQx3O5sHph1Nd3Q1xqpj1WD+6XOTi8N4I5VTVUZgHIwAhX8dVWcZsE8ztKyS4X/oqg/dNoPw7gEgAXIrJ6e6EtbW5XOOit14yRUnPn7I+/zt42Bo9tsjVhTIMA21s9Xxf/eLD5y46tm+T/qyE44LmHWNYSXOK8kNA1Tr1PZTtllfKg20FTitfOiT0NPLooDsVggNh2kSKqcZVyNAucM+0PoGg2EW9AHvBdQi4Iy8mp1ZKgptAQZG3ZShZTNaVWZFStv873d87Mi/XfKduevH1UDtw4etKJBhGNwV/0pO+t2PH7y4d3PwEqOj+ojpNQfIm5rXsInBWoBoAcUFRJdca4e4rGQ/KmvR9hO5j0gwwAx4JxU69WGYhMopxt0IUAjLH4mx/mQCrA0mCwMGryNMnMugQyJ1wPEHUV8SYh3pBBQJlEok097P1i4+4bwZP/nwZ45f1nhcBe471EVTUSBDGEFKlD91Z+uc31x395V6ftoZPqPpACUbk5ysxKJ+oKuMJLOtBDoEYjmjWIq6t8noy4EyDpYDth3kJG5L2SHcROWrlREYpyNACiRvoAun389raSUT+Q/Q/chIdVCrAwOs1bbpg5KpYX1ptHSmjwW6Ex3pVaurJ2Vv/eoPL7vnwAv1lnE6fMPy2BUFMshhtFY4wV/94OkTX/lv5+fVfN0xoFOvIkZcBfQLVKOBGigemvLYcou1FtTMiS6KKl5KAvJq8QqMd5DTUPlaZQQwAqDmIfZptzaK7zni13LHhgw2qjWxEUK20L8EfUnyjpzbkvd1Pf72jx7y8/dePnetPqtCzDiYpVQpQR7EqG150Jn4+Q/e9r7ujfpFgezsQ2UzCvY3xF+pyhtcPijv5jw+FtGtc2oHFAG6BYJUgUtLlcjW6d0ChUMFxjuISah8ZdyPAOegBqEovZeC4UVdle72wPHoVoi+h2oSQblihXRm185SzEjtA396uXrzmk3Xtz/tLK0/qULMuLeLquKB7MWIOR2O9Nifmhf+67ZnPtK9mZ2vZupmB+xJsHywKOV+5O2gRNAHmvwOkDC4PFPELCrI5Ii+mrwSWvRUSUucVSbVgbxp9fle3Fzlo5URGGcjQFXpqiV4txzO6Et9crDLuFQjXi3yRKhPCRE0knFHFe3Yj1YIPUjCMN4MlpA2JYL12dcDdek7PvON9/1z7oVq2zgbxiE9bkWB7OHw9S93wv+8+ZUFT9+/7DO5dt9pVdrkCboVZ1aaFAScZjXNeaZoIfPQFGjWkcbjxHKCIJecaOQ8yPvAwhftPxHIUtAHoaJA9nAWKh+rjEBxBIQCEX1GaN8RylFQo5BH4ikQA8oDLw7zJQ4uEDdaQD5CidC+M7UkyyvdeUPrfkOrzfz70k+d/edTL5i8TpteCWntyVqrKJA9GKXMMif+9c/e9b6tK9LvkxKRg2r8TRGVYIIZeBSSR1ZIHoUobBK5DVrFxdyGIJOji5XGa4n7quKB7MEUVD5SGYGdRoAUCHUwpH0m9hyRO5LXURLQKgkd8xAWN+SKHToNICQdMFrLATADq8nmbmvzS8efO+9HV/301JelibzXQeV4ixGoKJDdLI+1/3Iab/r5fZdsXZG/TMlVz5Wyfq02WsN6utpYXU0dSyaTXGlQd2ePkZTTxXk9OQrn3zFRLirQOSlc5aiMQGUEBjUCnHmaDq9twZvsvSJU3qWX50Ty6KeD//yA+3b29TLZL7EU6+nVa9KLpx4cvOGL3377U7VHV/IibzUxFQXyFqPzxl3O5O996Zar893RtzVG585IdoEyAZDBRF8nC4c0ls1SdXnU7X9AiXGokkL/A3ddc6Zd7n+4MVkKWYnEHi1qGbTrMhLulaMyApUR2LsRIG/DVtCICl+j3AYZcNTugA6FU8eLHiTeUWh1wP8CgAuFlK0cM03Kn+go7vUzX8THNnWsNhpn+l8y/M13ffdXH/nL1DOlrr27s/Hz6YoCeZO5/ve1aw/4+w2PfTlgTjvTTkSm2jkfiwSiLAvaBMvOsFg8yFIZuL9OgPfcED2eaYnSgiWklWcZiSY5ws2mFrKkQLDoqalTRYEMIJwvotH2xCvzaMHf6rPiMxTeoLEuvhcbr+52q7utV3k4kve9KHnnpsGbH7x1qxBjb/rO4RUD7o/CMAJ0wQUjX007HsVnHs9FqLSHyBDj4wVDjBCPlFskr17A58V+FC0SBHyeOiYKsngxsmaun9XU1LBUMoc+JAiJoeDQBJIyYXXkfFXp1Xp19+0f+9J5fz3+iobm3a6VcfiBigLZYdIzKx3tb9cvPeTxu1+9xm/UHafkIg3U8ElYNq4S4LFWVyy4LWLpNAVKEk/QFM5d3PBiMXs9Ody+BuM0jMW3sQtrpnoYL4fkeWwDe0pwVSDySG6HOxG1KFTa7Lx93TwoxcbpnwPe3U/L1ClvwLHjlhCCRhgEpSLd60vhfXkHRebG5QcqLlcxeAqDYBXIoZGYo6fg90eAVFjN/Gf+dPRzyQ3yH4rXEqCMwUsuEX4t08PLedDt8/kR6MbiQeMp5r00H+mFvej3FpQQVzQYV5pjBQhJWl/C2Evbciizod/Z+tjlX73oZ6d/tapCgbKb3VKmK2l4bhuV5cq3L3v4zJXPt345ZDYdafapsZgaL3oTtOB4so42Pl1T1HKMZytwKCNPQlIhmUyblStnUVRJHpvXZMiTjUKG8nIwvuGLBZoQwG9qBolvkzDwLHrRTMs7SHDs+ATeyQYK1rcW0jsL4TcXzKXXp+dFi2LeNdILt5Bx4fapL7nXgd6ZuJ639t5Che52espagez26d76A4TaEsgtxBAw7KREuPfCk/Ni3WTtJNOrjNYuY+OiCz520jff/4u5q4Z42TH19YoH4k5n54tO1TWf+8078+3RD+S7AkcGrZqoZkYB9xMLioQXCSpR1SqUSOkmHlOrYj89jIdME9a2q0C4KBXeSPEo9TxcReJKVF6ouZuDt051W6gOOKuLlhsYItrRs3jzk9M9iteeWPHiKkVlR8pTZZqJHBjvIU4PVPRMPTBqcRzEgOwo8CmOP1Ap7ni/OwfASj8xnhUInzsoEOFhCvYIoTzEnueeiwYPMJhjXdlNHUagfdFJ75j3g89cc+YybRYvLBn3x+533zgYorb/OXXf+szvL+3aYF4qZ6QDGyMTQ9lebFbublDMFAcXFJ4QEJayON56g46D4RvCI7qKuRBGcceSewzuyBascE9jFC8noogiScpDVDwU5OYcCvMjvETPWyz1VriVCQGyK/HPjYYdcx47/ExejShWE/kskcsQPpK4f8+SLeZgip6M670i4k5hvEItUIlHRJ5YqYdE5xugVwd4U0OYhnH8VSrqFavD8+jcvc0XisI0VUPvni4WiNfWRQL+Ex695+Ufbd20/dfOducRwHzHvRIZ9x7Iij/np9xw3R2fTPey8xQrdoCR1HU7G2AhPYZIgidayDQRyU3a3/zX3GosQV6N40042EcXOZCiEi4qaE9ZFJWzJ3iLvbG9q4rkqFAghKxxFYkbExcmvzePpYqfviQADaVIneKz7CrnsWMOBMoLxaM2zkPhj6IC8ZgG8I5fit+rwqvi9yW2HeVfJClPK6pwj1438NI8h+eFDPAWCnH9N/N+djBs3kzZjNP828B5drNuBa+W1gmyT/As0yA9DYR8LGv1MSeQRUirPeGLGktrJwX+9JXvXnx301njG+Y7rhXIopvap974jXu+Vu+bdU5Ha2KajGR5ONjAqK2A34dKVctilkUoD6FAPOOQN7JxhUABujtYKTrOv1dcgB64QIyysMhLFUhpaElY7zwTssvwkStU3Vi2GOJd5zZI+L91COitJgjeA9FkcAXgXqOguOgePOEuPFn+c8EFIg8HCkwm+hvyoshzcb9TovS8jxdGYgdFABJP99l2TOZUFMjut5Yo6vWU+YB1wA1EVLrraFiFTofxmhjb3r6JRapVKJXujM3Sa2tnqjd9+bqLbp9yltSz+2uNzU+MWwXy9E390//66wc/kdsceF9Mapxs5R20mrXRzSzCfIEwa+9vZzF/BAoEGHGO1HAPV0CIxCctMTfhOTbXxz5/qlIF4qGQxEV3yEzQuLtIGSGYhRI3ALsUlrmXPyhNsnu/2zG/4M0lvgvKGV4E6v1qx5DZW4wAh27zyuZdhTFLPAMOK8VR4n0IODApkDz3YNwgigsi8Dwlb3Q8JFbpM4p4PeWAyPspWaA73PFuFMm49kAEpRBfPQVDwhsvMQcKOhxaMCRT+RSriscB4+9jkgposJOzsmrnav+UzJ+u/tEH/jzrvPFZKzIuFci/frh21u1/eOYLrLf6/Gi+foqVlJkPfTo0TWc59BegBROKBlkmk3atw4HIGYkK/9wQFtV1VPIgg9czBRHpCm4SyDvhUl10jLDghWVIwpNYVwUqzlU4BYi0h2Ly3kVtzk5ClorP7BBHQhWtT4HK2ZUSG/iUQkEQt5L4uJe/Kf1u8Zo7BZrcHAuHiwqMsatESDF6lrH3Le+edlQgdH3dDQN62Z8d56KiQN58dRY56XiEoUSJeJkx1BiyWBSdRTN59B7JMl3XWBoNq1SIACVksUyw6418sOWOb//4st/Ou0gdd+1yx50CeeC69XNvv/nxL2U64udHpYlNGgoEiZCtECpwKUgKIRT8LKxMYUFyMjZeOS6GrsJlNXjlsdM3S8Izngx3SHmA8p4UB/oD8cZcxD9G/3HhqyCPCUJKiVhYbQPtg/P4DGCZigTrET6CjbnD1/k5yFfAz/Siz9A8aszHrVCKhNE5BNqOPkNWJnIb/HsiQU7f8Q6i4yfCPsv247tAUvEbJg4meBWOgXfUcsC4kHAtCYkbifiZ6Ps4p3dwRaH4cC38DReg60vErUYvyH26T/odOGbda9PPOBdPBNE5JdyBD89MtBwyb1ymoOslGUBUXU3fp58rx5uNAK0rImOk7UwFh4IlYoAB4yp2D53FP+ouA0vJs4yWYjm9bV3NFOvWL37zkt/PvUDuGE/jPa4UyD3XvnHAnX945qs+a8I5cr6qKd1ls7AW5nFQbgUWUFaiuEgUrAkLTuEhFCo0ci1gvPPK1goZ4j7ZL97ChBqA8KTpEIT4JGC58KY5g5A2zSSEPHIREPQylAYJWDqEvsBn8GUTc2iZEMNkwENT0GdJsPLe2TlRtMcFtUtDUzQeSPlQkt4V/nRiuq6rSGywLZuOHz8LD0Z4T8LrkQgeShTjJrHB4r64EuFdYFxF5Sb7oQCIgpzOSUqE7rFAukkKDcqF7sE7B384hFVJSdB/lOgtVWy89ww+r2karGXE7zPIsVSONxkB1zDheTQKVbsKxN37wqsU+55kRCnElwxIak6VtlLMX4OKdrX7jZzSfN83fnr5Lxe+Vxs3lPDjRoH881ubFv799098O2BOOE23otWZ/iyriVazHARIgZ6iEObwlInAh+9SgfAkruhytmP6srJf93wEPOTVwApiD3orNAEXrvSC8vCEKVrMQ+CaLEgWtoPNj7+T10DCn38WcwlxIBQAyX2aUnyfQ2Gp+ps8EAh8204zlaC8XONQoSgUCiZdVhwDHzOz2SwJbyBqJegsXrrHY0X8wOoIBCIO7kWCQOflj/gcTsTvQYEHoOqqTyWlAJ4MriCoTwV5UqQAyPOgkIjwPEiJiN9zQYXcjiYrTAeMlL5vmxRaFd4T97/ouVG4YCp4ZuhB+j55HaQo+Z255yzOhBcOGxhMK7An7PmUjaFPklHiFaKWhrAwNxye7TFoe/kmGjtRbOhRE+XMFMtLWCM6SBmrnI05vfWu7/3f+3868x3SuPBExoUCue/7a+fdfuML31LTjWfF1EnV6d4sCwfQMxlwKwQpClxE3Ougg1uTxX0iLA8xVF6VqvdXgciqHIMdgZ0ViJdbIGMflh36XPNKcgpDqaRA6Peul4G5y6eor7ywujmayQ1D2KQI8CvLAeElvqeqmCc0y4ZwtSzHtiCI8QEjbTj9fbJmpxDyAozCtkw7B/FrwSmwTUd2jHA43As5npdkFc0jZROCGX9DmAjqhG4ln08rtmUpEPwaKQ1cRIeqkU3D9pum40O+TLctyYdchU+RdUVVAhqUQ9SxlZBjOhruQlccPIEbKqPFyJUdqSqsOwMGjib7UI/gh6Ijvidcgj5jQmEAgmxIKRAKCktZhO5IuSC0BkWUx3fJCxFHRYHsuEYF8wFFH8RfaF0JSpmdIxDeGIqiYopn0nqjECE3F6DMgyyZ72dyJLPNDrf84//9+JKfLXjP2G9ONeYVyEM/2Tj/1uv/+3UpOfXcKm16VXd7ksUA0Q35Ldaf6GGy7ucKRBSllcS4+T/FQhlgHReUiwhtVXqaD1Z1iO8VLT1XwJWigjDWJPgR0ed5DkpyGk6O5YHNJ2WhSEHoiyhTsXkVWOMWy0EBpLKWlE0rutGr6XYKOZJk3krnskaSZYwkZtU2ghFfW21tbVuwyrd2/tEzXwvG9b7q2qpcXX21VV0TNGLVzIzGWIYFcUpcisOsBFOmAHx5y4TeKaIJp8H9nciE08853HGeae3NLNTf5yhtzV3B7ds6Q9u2ttdv29oys72lc2aiy5jpN6uqFcsf4GEnVbU1CUgO9GMFejxq5k1f2BcLwM3wW3lJtQ0iCiTWWSgS5G8IHajp1ONb5Dt4zoR7JyKuz1MuhVL2HRSIWzwznj0QMTSeAegaiHwiXQg5D2l7P3tKRigdDuTA58J+nXX19iLRPpElAbrJqynGwj1b8vr6u6+74TM/hCfSObQdMrq/PaYVyN3fXTnvntue+6qenXiu1R+tN/o1FlACTCWrw06xUMjPMibBKIuTVCxUE0nXAtqKf0YsJiH0RDLUa2gzuqd5lN4dL84UinjXfVGEcLSgNBhou2UIS0c2kAHI5WTFTKu+YL6nN5uFd5CRNKdfVqy0P8TaahuirROm1rxc2xDeXj+hqjNeE0zXN0Uz1fXMjERZRvZDI+mIVjWNXMMgqxXwqTxT+5tZJJtgek8PU7s785HO9q5we0t7TVtz59y+7v76bRvbZjmGCm9Fi6lOKOyTo7XwYoJooxxwLEfNp3LwTCTkPNBlD0qIPDZ4P3xMVRWtvxEm84gGxSrwFLVY9EJ87gqGPErXzDDfVnHvu1EG14Dx2Hx5HstVJOKznq0gwqxSPs+h1CZCk9HqKtgNWdae2AT+rMSa2CTztiu+dP4fD/1AuGWYb3vUnG7MKpBHft0+95ZfPfCNXGfknNrg1NpER5pF9DDzIfyQTedYPFSNfh5ZCCgR7xxY4ewpDs/kLGHhdRNtZA3T4Hn00aNmRsvpRgoKRLChDjxod2JboslPJt9HoZpu1Wd3y/AsLCkD19HosX3G5snz6xZPnd248aBDD+yaN786EW1iSbSjt6WakVMOwzEFTickGTwYyCN963on/upLq+PLX9swYfvGrvl9Pdkp+bQzgWX9TXE2qc5MSo1wvUIIV2nkfZASIaXxpgqkABn2uvONXwVSoKshj8IFyJBaLTAkuOEsnuuk9YrJLfLgwWs0ZBaDVdLT38EyTpr5wwGWwHr1x3wsYTevDdSn/37trz7yf9POlrqHY12MtnOMSQXy8q19s67//r1XOYn6d/qs+oZeKI9oAJ4HJRZhv/oUP8MG5PYXAXFKqSxEjLPopnr0EYWWmWNGgXghDa9+YGCNgYc+KRS40TDx4Lzr3rsrmcuikrDTQGbYomAq6oeBZXeCS8q1grm1R15H3nbkXBI95ntQqd3j6LnOqobw6rnzpz43/8BZa6bNqmlrgPgMVrN+aR7nAhk3h9PsyMkuFm7ZzoL9bWZ01XPNczevbD1lw4ZNs7IZo16TAwHHVBuYpUQVGa32AFGnVgScdJLXrIiKeKGwxbiLORuYXBesyMVhHUhuKb7pzfWeslEXTleyXgocYCM1g7T+OMrKy21QYSbdjABVeOu9FG3ptR0gZJaOPiQE5kCpIdMCqFI3MpwdQUahSF5OMSWSWK1W9/7lB7/50I2Np4y9ivUxp0CW3ZKf89Nr/vQDOdN4opKvbZAQyKaN4xUJUcyXwiUKeprTIdg4d3HsUKFb3EyCE8tz+0e8Je0O1Balwlw81Q6CofCoIr8jBArVUxClBtG2CFoNjo+nIjVsEK5oKalLtQ2c/RVuO95pHPIYvmA4yky48vlsjgV9OkdA5bMZBgARrGAkdIGSMgA9smkQZR1lDkAiUWQFComs5EwebYGRq1ACRqejp7ukYHp7dZNvY+3k4AvHnnLQstkHTuyYOJv1SHXjS1nsqUx1uhw528nir73SXbfk+dWNm9e0Ht7bml+Y6ZUm2Bmt0cmojaodrPZJIY2oT2yD8GPwUDAdVC9D6C1ef0LJHkJ5IVlPiXhvzmQN84VZzWGObcylAoiwpOCzMMYoHLwrIeLlVooGhWvVe4LaFdCjCwZfBHDw/GcJPGZHReflT4rbiewYoVb5rkOOippdOWqW5bWO1fFp1h+//cuLb645ZWxxZ40pBdL+uNP0o8/985tGe/Td+d5Qo+bEeZcxTsHOQ1VY/C7Cheo6PAbVskZR7bUCKZnyguVFxQdY7C6Kie8AqvjmykW8e5T2vOMiFA0pEA6ZRSFcNk8JbYKkUktRWGMo6PNgtXQqBVBVklY0BxYpKWZChuUSpp3vx3f6mWImY3WBTfMOmfrYESfOXzzvMNYZmsj6ofuzUtWOD7inYnX8fs7Y6viTrSzW08qizz72xswli1ae27a17wC/E4taGbnOycvVfi0cUyRdMg3MC2SfrvsAGfaxPObSyAPZxtFcgJ+Z6LqJHAvBghUoEgUKH4hkRpkoM2+AwYHqI7yxLhorXmtn+ouopRKevWC/JeOFsMdkjIl1VI6HiErQnQuvnKfWXe+Fs1XQNgJVjeTPsqS0fWX9XOXXP7/voluQe6PKzzFxjBkF0v2SU3v1Fb/7Qm5L+D1yonp2SKpH0W9A0F3w+KVIyBLikR5a45S6Xhe8Mp7LISgQCklxr4Lj2uGKu94KjRMpCe610dbgLXkBDuKenLthSIkQehEZ6XQmAQ4xuPM+haVSfVzwhCJVBIaFxaqwRDqFHAY8kmAuaSnd2yytu6Vugr5k8vTq1+bMnbJ+4SFzO+YcFm5m1SyD3EVZ6/PRuJKcbU6w/Q3WsOT5zbVvvL5txqZ1bce3N/fNs3KBCSGlaZKT80UdE3sBND5UoBlAb3Bdw8oAiSB5kTa8R2EQAOlmAsJMFfxqkPl8UDi5BBeeBSLIgsfrIZmIqdgbFVI2Lg2Q28cFoAhXAI/Gkdv9PXkgEBHq8hqUIVToKhDyvk0lyUx/f1aKdL0y+ZDg977xs4sfDxwwNpTImFAgiAv7PnnRjV9oW53+QMSYfEDAqFeDSg3LpDGpqAGgilFBiOgmvrFJKgqEFClVwZAioNoDkAoW2vNCIBSUiBuy431RSrsFCpGho+DNApWGjMY7pJ2zWYSjyLhEiCOFRJMe9Kd8EaUtb3c3G0p364FHTn7gnRefsGjhoajWBfWYNH1sbKTdi5rR8QlrrSPDoQitXMoa7779seNffWbde51csDGgRQN+Nd7k5JSokcNMk5uB4kUZglHHXKoIdaF2BVuICh+IusXPqWIMJ+sml0s8C/6obg7BQ3i5uQbPE/ESLGWPAisBgniV6zy/5O4lv9/PuhJtLFDFWJq1JhLylsUnnrfwmqtuPeeV0bEihnYXZa9ArDVO8OpP3f2Jbau7PySlIgdGnAZFt6qYk6O4LeB1ZEmXUBTQAyuwjFWeA3G9k6GN4ch+2/NAdsjZ7HxTu8qFkDsmiqb4QuDuBcaFBAT1r6DfcqoW1Bmg7wUPWVHvcnyG6Dvo01YOVioEjEV8ThTOgKOStRI5U0u3R2vZJtvXvWrBEZMfOunMA1cvPDzeHqplfVJDmcYsRnamh/3qaOEsG32sesmi9ilP/OeVOSte3X5Ool07OCQ3TAgoVfV2TmE+rAPq2u6gMMUx4MFj7jUFYSxUxWdRiAsH1M0UlMDe+doRubOdmJJ5/xURthLsQbTW3ixPN+yPPPwndEElBTbfAgiHckrIIyEkGKuKsbbuzSxYA4WrdnVlpc5F73rfGV9//y9mrxj+G9q/ZyxrBeJsdJQbv/fS2U89tPoHVkJdUBeajJpiYDiziMVLlAhEDBf/cWvabf1JMViq3RAKhJpDlTkVyRAUiNcgi7wz8kY4aSTPixBhpOeRUAiLeIKQu8DnKBpBYUEe8uIcUSmGWkwEwlDCrRqdhpppzQMndMDBE/93xjuOeuCkd6obkMvISfFKaGr/bu29u5rTi4nvZfEH/t6y8G9/+PfHupvNQ2c0LdQ6tyWm+aVAwAePg5pjAX4C1YA9RPUQkB4GcUgV7AFaF6QMKG8GChYKe3L14yGayJhDTQ814cKL9yBHmFmQk5bnIQRoMUQuonWiDIDCdTY8NmIFiFWHWH+qnRlaEvHzVEfS6Hrxc9+65HOnXRXdUJ5PLu66bBWIucqRHr9ny+G//8nD19cFDzhMymp6qi/Pwno14vFhOIutrD5ax3n8S5PDBGmkXtQKueJcgZCFXZ5JvKEuPIvInuAy8I55KIGi7niggMLLSwjSRijGrL2koeWGtywl52gRu6Otd0OC+RObDztm1p2nvv2wRfOOaGqrnci6pEnlXYsx1PEt1+8D1RVcv8ia/t97Xzxg2eLm89Pd2kIrGZjll6MxDaFOE0l2kHNxT4SHtbgkQSbeJZL0UHwiLAqySPJqcdA+FGg/lPejkZbwQEiBuIy4ZTZgPGlOoADID9oTHBDAjSyxb8gQC/pQuZrMsDxoCULhIPKBHSxcjUpWJ9mR9jff+7Fvnv7d0z85obnMHr1wu2WrQJbfas39wVV/+GmNMuf49pZUdU2gEYojwNL9sGwQl9cDOktn0c9DI3dZ1C/wN0yqYukuqy4pkPJFgQx10QkFgoY5BOcEzbiE7noKKRJ4bQpPsNOuJ2sSSoaTzmGjQAA4SjZvK4lmU022ynFj2TGnLrzr3e89elXDQaxVqq/kNIY6L6Pl+04rXIROVvPgXc0L/3PP4g90bssd4mPVTY7pm4DqeHB0BUAQAM+Eo1cpNEXoPAJgUG0FGR6UgfdBoIpwluh9AuVDXghvJ057kupUytMDKXLkAWBAjAmEZHS9dApfUWGihUJDMlrj0SrW19fHIvEA6+1rB5od+6s6vdFu6vrjVdddcsMBZ5VnoWFZKpC19xvTvn75Lf8XNqcdp2YCtQp6MtAkicSV61RSeIVPqtfwSUAJKeaqUNzVXbQcqz0ePJBdPCNZhhkQ7lEtBkFwKVFKzLY2cU2RF4IxpAAfCGXxOSTH9XSfghqN/uzmvpnz6x658INn3n/4mY1rWYClpImVENVoEfz74j7M1U714ie3zXz0X8vetvzljrPMbNWU6sCUyXIKxhoURCbdxwJBePZQELlcBi2hAe9GEya/PwykFiXjqf5HQU5A0OsTxxnvbcIhvuUZARAKRHhgJEdIgXBeMs5sIWqsSIlwecORjsJboXA6fS6np1gq1L0qODnzh+tvvuTGyKESLN7yOspO9fe87NR988rbP2n3x48OBhtqLYDYRTjKI0WD0CM5yPMeokeDaJVK1nQpMaKHEimvCRvOuyWsfkM8xkn3qPtiKp3mse1gMAi1YbEESJpUH2ps7XS/Fs9tVsOptdMXRh9/96WXP3nAyZENUiOwuZVjXIyAegC3kLutDc4bryyy7n34/lcufPmZZWdWBydMB5K3SQLlTB5FombG4BT0Kri5jGSS2ZleKA8qHIVnC6MNPF68+yfIIcFDl2Y+vSxt2OKcewCAAQWSOy4Jr+KfZBDJI+R+KIxuBpiTjM/t22x88JfXPrraWec8LM0qL0OsrGav93Wn+rufvfdz21eYH6hXZ83sbQVFCRaqpxw8jhrhKgtcNi9W4uqFfiwWxxULfcobh/6m0mu3XhWCUojfOsD+a9jgKjYyOXEGoJsZeCEo8GAsYAK83t3Kwr3r3nbx4b+78EMHvIpIYSdQVOOKPmRcaIi9fMjEBqca4fyGn159+0cSzdLByV5pjpHSpipWXPbLYQ739VPhIfGZoXqXOkWaOQpxQWjCG1FsMCijwDSPhkwc4FKGB/dA4F14BqtNRbIU8XD3Hv2dGtCJz5Fp5iLW3L8jugX69wBr7l2fr59m/u/QE+u+9Zk/HfdyOQ1F2SgQWD7ar7799NtfeLj1ByF70jw7rbIAYrCyQTF7XsJTYNUtVocWa9LEZ4r4bI9lt5j4K6dp24N73SMFwljEF2C5LNpy2ghboZYjj02QlzOdakRu8dU4a86+8PjbDj+xasnkQ1kzqETKc6fvwXBVPjK4EXA2O7En7t8y96lHXr9g/Yruo51M9ULdrKpNdOdZBOErB33EkWnjKD8/mOqpADGTQi4NKEh/IAyDRdSRlOdR7KnuAM3phcu95+GFti7bQylfmDBwKT6CWimEkGsb42xr1/J+Odb6yCe+evY1Z311xrpyGY+yUSCPXrf9uDtuWnRtuj1+spKPqEF4HiasGo23o/QqGVw8eSHWyMsYcAi2XYEiErFIjxxuT4ngymVCC/e506bceZNyYmoojrwFSvAALCVfvr07tw0kMPYLF3zolJvO/+TspRi69EjSnpfduI/TGwZyK/b0Xb0H/eH/7v98fws7KKpNmGKnFV8EvXesLCxz8GipBG6h/jtggbByVKAqOi+WM/UAgXK4/IGgITAKeR+ixsXlj+PAHZcHjEAopDhcBULfk6FIsyBg1CKMJawtLf6mrr/99OZPXtdwmtRVDkupLBTIhrvtub/45j++2bVZPy/oTIhrcoilU6BKCqIfNVp4UuK8yJDpcu7QxLmKo5ikE1XVxGLiLVqvz3E5TNZe3eMeKBCOxQ9l7azd22bJ2daG6fFXT37bQX877R2TV4dmsHapmlcZVo7KCOzRCKAwUU22sEkP/GP9Cf+587n361b1vHSXPVV3QmijEKBKIc615dcD3BvJ5BAJRbvHnQlA9+hyo+JDXlhqx86kHOLL+6iL2xQGLJSMSwtP7xRC9iPRTv1cUsgHOaEsS6hbVkyY57v5K99/z58mniz1j4qHfIubGPVJdPM1p+bTl/zhc4mtgVOr9Lo4uBNYItnBorG46C1NaCsxRW7BkqBUIHsbrUJFGsQtZOKhLRer7uW+JM6JNR4PoGHUTLIzt2ZL9XT1f+edf/w/3v2+BWt8k1G/ES2vRN54nL3R+MyAcJPBscnpc1pPO2vm0t//7F+XbXi996hEW2qhrTZGIoFaVLRT90REAAANt1DdTu2Iy/kYGH7znoWjeISVipcH1xFMDuStuH/Czwaof4ixWgaM3kZSRLLic7at7bn0jzc8uhrf/u9oH5tR7YEQx9XPPvvM+1c81X6VkoqATTQMrqU0q6mpYd191KUOYRcgGkTFQkn4CipDxB89dkyRTPe6CRaLB0UMcySpFAoT4Go00R+jFNroVfcKxVg8StIRHHfvQQS9UFXBx3K9M6E8iR0UnkcKfTZacv6uTRd/+rTvHXr6lDemLYTHEasojtG+Ycvp/pxNTs2r/8svvOe2p65Y92rn8SG5caqdAqTV9IOwMYTEOgAs1E6hsN5FAR7VHBX2M/InpXxZLkif72U6ADIf2SFxPX3emgs3J4hJYbK6+7mwo7y8B0HjCdiDFxXsBoiHDqF4G8LKxFjYgMzn9HS6y1z/6vs/c8oV7//+nJUj+4BvffVRrUAe/vHWo/72k8W/9qcnHq2baNlJMhFNWngYyomJhVaofi19UK+jmJsDKQnneBaDJ2ZHWnnQM9Gic9moBIqD6CFcllJexct7cwTEOz8IV0/FWDD4qI0pqlwJKqlwRQKrTsXZMEY5yhH5wiwFaCU5Wr6IZHdnN22P1lsvHXnS9H+894rjFtfOZ9sqNCOjeYuW9705/Y6a2cYm/eHnT1746lMb3pbarh/aGJxdnemSWTAQY+l8D9P8MOLA/pvoR4dQVKaHAnXwVKivDKxyloDZhFArJ0IVuUweX3DrVS1GhYqjw4vhjA7cbnur+/H6CYl55fKH2kwwQsRTPxbkjLB5c3oykw1tevQ7v7v40/Mv1LaN1lUwahXIc7d2z/nV1+/8kT8x58xAtiaiQq6iDAkCFh2/IDQteCMkXIlNtmwLkfgCEkqulEpdNL+igiQysUQ1L1FCeD0UaPPIvATDYmlAI3XEk/2ovJcAv82COp36cShwi6mPQ840mD+Oplr+XEtz7+quhUc33fmJL77j9qnz2XZ1ZqWOY7RuzLF2X06LE9/4Ipv1w6/c/O3ujfaxk6sPqunvzCOPGWY9yR4WRVMyXQuiHQDtBz9VI/F9jawJjCGQNtI+x7qnqAIdor6LiD09rq3yGzGRNyG3xYIkS3FlIpsk13SWV1Fo6G9pDUzffuPPb/3w/0UOlnpH4xOOSgWSWOHUf+tTD36tZZVzsT9TM0kzfECYEoZchGocLBqLaF8LyOpyhQF62Rp6lCKlingaQSEi+nQILDlXlOR5UPIbVhlZLIoU5eNgox8zdYvjngg2IvEQETRXCRv57tzazfUz8v+55IrTbjnxwqbViFUDs1s5KiOwf0cAfd595iY24U+/fek9j/7r+UuDbMLEkDOxNpMEOzZ1rgTpoAOWXx/6kdhAJ9mALKHLDPc+iDtLeB2UZiHGaOo0Sn0DyteALAB/eJgOTbzcxltU9mzCSM5rKdavbFlx1NkTf/DVn55ylzpl9NEEjXAAcecFTIvsmg/dc3Hzau2dcWX6pDzVJ1AzKFjkHMnAeXVEG9axcHjQP0Gr7j4TVxx4FXiE6EnJAiPUCo0H1fFhU2E8NLQeTSTTWIIgawvAcoM30pPsQztSoF3irC2R3dL6jvcffe1HvzjrcUQH+qE8xsbAjYXJH2fPINVyAqyNyI3cdMwZCxf9/No/fyPRJR3iKLEGCcWHpC4o/Oqgc4aFNrs+GEK2ScuVA84F/B6CVfSlAU0IGVZc+JbnIZBZHtBRIEmJaFLUsVFiXWVxbeacVx7f+Ln/3du+HL9cNtqedNR5IPdcu+q4u29+9cfprY0nVAcmIb+W4QR/QmhiqUAK8vdCMbSXZB5tQ7v7+/HYbYmllIgMvYY0pDgkxEJF7kPESGWXwbTw3DxZh4pekCFS/46cAUQHPBAJ1COOP9Xrr0msrp5sPX3ZF8//w6wj2SZwVY2ZNpq7H9nKJ0b7CMBQ9L/+dN/8v/7if19PNAeOSHVpU6kNAxUfapCs6UQ33pEbAfyX9gOFdUiwEvyV2gkIrxxiFuglr//6aH/mne6vFCzjeVOU4yUaJv7MftSIAHQQyef8jc13fuKaM//fER8KbxlNzzmqlHfmNafxgdue/5QvXX/gtLpZDM3O4NZxtcwXEEg3sHgUYrgic8RNoI+m4dz7e+EV9BxnQgVVlDD3+o9TfoT+QsqDwlbkwpMSpYQJKQ+RVKee1XlYbLIPrn/cMa1A1yYWb1t8ygXTvvGj286/dva7pLUV5bH381L5xr4dAXgj2YNOjS390c0XfKVmlvlkv7RlQ7BONhK5PtbV08t88KapZS7vU0M5Pw6J9fKBkAEcUVj+RKjkW7n+FW8dTXkRYTRSe1yJhXmFoc/XtV46+54/v/BRZwuKakbRMWo8EHONE/n+5x64cs2i9JW+bNMUxQBVNDF4kkwlywOKw6v3ILdVYVmuVjhVtFfUMYoGdk9uhRaLWDS0WEgtigpWolkRbJ7kbFHoyqW/5igrlyLbifCAV87pRX8BlXUlm9szrK3zlPMW/PbCjx778JTD2eZK5789mYXKZ0ZyBJwUdnc3q7vj9+vOuu13/7k65syc1RiZ5u9p7mZ+tKOWkfsko8qBRw4TSRiQxHyrINuOdxXoTCrIK8uDk7wKOD4yIILSxQXQ0N6XbVC/IMdJnzK0LEvr21Yed8GU/3fljxfejyJfD6c/oo8+KnIgKDxSHvxdy+GvP99+aS2bNTmGvqc9vR0spOtojyoGlzemwTrhCbWyJj8YON98oVD3Mtcl96hVOGSRQ5S9xCG8WpcMkjwVXimiIJkezOY6jG0bqqcrL77votNvOP/905fJc8qPFnpEd0Hl4iM2AlKIC8J2UKHc3zDxAy23/fLRr2/auvrwmtCkWC6NIA4ZkV6NE4FE+O4Xgle2hdH11rDZEXu0PbowdXnkuQ+qh3GLoUVtmgD2S+AKs8G2IVtQnrnIrOf+s/5TC46aTbmQ9Xt0gX38oVGhuje/xKb/5YaHr4rr02ZIhiZlE2hwR7wxFmHAaWDJDQEaAxrZO8hypzhoOR9eDQh5G7xLIn/h3/BGqDMg7A54YVCgpoRkeRSUBxHAdvE3PxArSj8zfR1daf+G5+eeGP7VZ79/3rXv+OL0FyvKo5xXxPi9d6lGSpzyofiiz3z3HV+LTEkv7jc7kAQBnJXnAWSmaUAj2kiuW30sTGlQUKLoaMg+knVcQ54tHjkhG74kj8vznshrQraRfHDsJAuFZDwr8RhHdLM/dPC9f3n68vQap2rI1x+GE4y4AkFML/K7n9z9YZYILVTtIOIysC1AcRAJBZlpAgPu1kl4mZAiUmmHgR+GwRiJU9Ai8WpBvCIpERcVhVMOVapCsdjoSZ2FIonVRFlPdrutxsEBHdr84knvnPXtr/74nXcsfHd0Q6UgcCRmsHLN4RoBeCPZQ8/xLf3p79//1cYD1MV5vasThNsAhmisP9PHglEIVoRz82huhurZQlfR4br+SJzHy3+Ka1PY2n1hz0vY+yoKLPtT3ZwCJgh4s0+KNGx9o/e83/9s0YmI3Ix4L+ARVSBOr6P960/Np618rvOSqF4zMdnTwxFHDiRpFn2XNVXki3gimec8iLpdwPooT+D1Wh6JiR+2a3LmTqqw5ehvjmunlrKc1RMXoRxPIFwDaG6Opaws6zXbUizWvdSIrH/sp7d87DOf/s6Jz0TnSX3Ddj+VE1VGYARHQKqS8nUHsRU/veWsz4andC7uzG/oysj9zBclA8oAPD3LMmh0NrF+AopmIRPKNP/pKQxqLiVAQSLnKXIiHpyfwDVg4OAAohx0ZgrksTmmGfqUZ/69+rNL/s2mjuBUubJ5BO9g1dPGzDv/+PinJ0TmTtFsv8KZccFvBTA4S+YxiKqf3x0NKkF5ZaCQSNgW0kccoTWiOnDIo8efhSfPSHmICnSqRPeI10z8uy/byzTUC8rRbI8R7Fhy2GmTf/ar2z753UnnSBuQKB8VybQhD0TlBJURcEcACWJLm8o2X/XjS742+5jI4yzW35Kwu1lXqp1V11WxQCDAOjo6YJGPKkDSIOaPaE1Q9yLQMkIgU0SCKl0ofAWQTR4pUD8CMxanLbKYkcuyiFYVDRqNB//9xke+0LfUaRjEhYftKyMmfZ0OJ/L3m//7PqNbPUjO+PRUT5bFwLCLbvNIliPfoUbghdDgkn4mOoMczwsoSC7xRBpntRTEZOV70L0LP0NUopPyoGcm1JnAvJtKhlmBhGWHWtdlAxsXv+dTJ3zpK7844c7YMVJL+T535c4rI/DWI4BwrDXjZLbyu78742orvvVVKZbYIods0J5nUCwLwkEk1E1Q9pTzIerAaM8LGcaRl0TOQhXpLkEqxV5SKKakJ1V1Be2CFZbuTaFZaKxu+6q+s2674cVTEcqipMmIHCOiQJweR7vvpnVHr3ut+cy4VtNgJdGtTA+jMx7SxkRhgMCnrSBhrhFZooC2KW7BEFVNFGpAylp5iPkWZS6CYI2/aAlRoRT+bSoGS9pd6bzWsio8MfHg1de9/9PnXDpxSaWuY0T2SuWi+3kEpKDk+Cayzbfc+4lPK1Xdy6xgX3N/rgcCNYfGVJCZaLtc3u438XlR1EEoQsp5EIjGiylwcka0/TVhNCMZwvoSOQAIIry3ipWwWViqmvrMY6+/f+njzuT9PDWFy42IAulewybeetP9X/TZVbOsTI5FQQQYQIwmlwVdooXkORBXOXDiSCoJUlFpKuCuvL7GzYOQ5i6h/xipERzydb1cB6lFUVBIATuqtrWUXJ+/Ov/azINDf/7OLy/60VEf0jcGZ48BrTnkMaucYLyMAHrT2IEmtuX6Wy/7AtgVXpODRrsBY1L1+0EaOiLia/iGngxH3l6BCoRdpmHeQ11U2XPPBI+o+lGFr4DbzgCgBvIxAo4iPyhdVAhKJxuY94ff3PkxY70TH74b2/Mz7fcZQNey0K2/feYCPVM/z0z4a30SCoTANd7X189qquqIHhDoK5OjD9Lo1U0j6LWi9drQeo838tF/Gj6CEnueEuUx6OVh00uGt9DnQ7S05KE3HtekIkFhgRCzqAn6BgPUwzm9vznnb3/lpHfM/ebXf/KOm+tOlNr2fForn6yMwNgZAYSz7MhUtukbP/3ENWaga1Ve6enry/WK/hneXuKPS3BYgsFqbnKd9p94iaJd7DGiCaH9NkrsMIHCpHssCcUTYawbmcjlwUSMRLuEm6+K1LBc2mTJvjQL+kH7ngG8PxmZsWFJxzseumPTkaCH2e91fftVgSDvoW1/iR2w9PHW9/gSDdNjbAqsiDDLYE596JWcTvfC/s4wn5KHK5dHvE8TQlWCG4cKVGKo9NrRenC3kcWBEwsuwm08BCmYcql2g0NwqZ0lrAkTaDIdoTgNL4e6jnGrgjodAFUBCud8to3FIsjloCjKwCIxoTjNkNls13Y/fe7HD/vsZTce9Hj4iNHf2nLsiKvKk4zGEUCdiDnnWLbqmh995Cp/Y+plJ5zNGmoGXTVznNKkP9/PIuE4+LMiQCqhOh1RDE7EyNGaqCEhVmvKOVA7COQVC7xzI/iwnL4dnFcyuOzo35RQNxWLv0QrB9S/AFDk5JD/BYzXyYNdGxJbA5w3mUNkhsVYPD9JajJnzH3iny9flljPJuzvx9mvCgS58PB3rrrtq9ludX5taDKzEbIi2nGvq5jgfqJEuQhbcSSCF9bhBGrFmCcf/FEB4XPpB3aYOc+yCAWjDOhDlkGojuiqyfKRUR2oIrapAHEWj8dZf6IXEMUE08J5MDts25b3bXv+8q+c//8++MP5o7ob2f5erJXrje8RgBIxDjlJX3nBB0/+v978pm1SMOMQDxwll+uqalhXdwfL5TKchJEMMio+FIdISntUSC7d7UCrfySGlisQsO7iRYdAXrov9368OjFKrHsyUbS0wPdQnc7SUDLZsJrpUI/5/S8fvxQRnvD+fJT9pkDQmcx3980rT+tsSR7k10ORRCqJmJ7HQLs/H3kYr0WusIISDBmFTXwFuF0DiXLEPSR0VjPzVBTk5w1zZKwIG96VBXqCXB4Ii7zOumBhhOpZyg5uW1Y7o/vuH/3m4s+f8qnQhmG808qpKiMwJkZAmiyl3nHxlBfPfPdhf0uz5k2+gMKSmTQK07NMI+JeePUWmKt10CCJlrkeESkiA4RyMoGHt0FQSOqEh4/LF8VpI4QnqVCUfh/r7zInv/DUmne99L/snP050fstZoZGMnV3/+XZj4XUukYDqY2qSIT10z/K+iDLhnozUeyVOgZ6MVfvoYDjRj2LhGIgn46hRmguj+p6cq1kgirDE0mj7Wzj5MZMc9/rm6om5/99/V8+9XPtEAkVlZWjMgKVEdjVCCjzpLb0a86fO1rbpm58uSus6rV1fQh/18bqWB7GGac8kdBwyq2ronMI/m5qfYDaEZ57pNpbAuGU9l8vt/GG8ggg6A/lCaUoh9Tg7Ptue+ojzjZngzRp/3Qw3C8eCHIf0Rt+vOwKJdVwkJUKxlXEJxNoeqTqLpFYuc3bgPsVCa8dE/ylH1FUPCcaPGVBwUA0LRS6UhU/UxDLxDrPbepeteWIM6Zd9+tbP/XLivIo68VQufn9NAKBmWzbpZef8ptwvb1U9udMPQxG6v5O0Q8HnkUGxbd+cMZxJcHRmqAH4iEj5BvAqcdzlPvpXvfVZSjclUV1OnlgYV8Tk1JVNetf6TvrgVvbTgY55X6hOdnnCsRpc9TWl9js5x9Z/S41WzspqtdyNEFfug/uJueU3Vfju8/PW+CxIfADT4K5l/RyMxyRhQp61HOYKILE0ma6L8BjsYlMN0vkW9MJefvqw8+Y+b2v/ej0e4JHSF37/KYrF6iMwBgYASkimQtPCq2+9LKzbujJbdnGVOwxl8UB9dpM0ZGQtkTbZ5EvpYemiEFJ5cioyKEOfjJI3qRRmR6KxpidV1i+T2Nqtmr6g7c/+/HeNWzS4M+859/c9yEsm0V/+9OHPhU06mcZ/T5GaS816rAJDZMAR0sS5+Se3+2o+yTunXdIdBcnvfH8h6gsJyp2AwrED0oWC2gsRdWB6faxRLqL5aTe/qoJ8kuHn73wpx/78rynpVkSQUMqx16OQOoFR+nrYv6OVqa2tHT5urp6pP7ehJZOZdV83lDzmbyGhKpsm5YCeDjeHQXeINiyqXWqT5KlKgTG/TZg44bPL+d9AdXwBxRD9Tt5Vbesxqa4Ea8NWE0TqoyGCXK26lg+sZVjFIwAaHxSIGNd9PyzMx9+/bmud/nDtU286A7MteT15wFc0eDpC2J0KBH6F99mlJCmkmQY6dTAqYwPCUhVBckfIw0kKzFPGo6ebO4/+JE7V58O4/2vGCOKse+zY596cU7C0Z//W9/Jv/vmv3+l90+fH9UmgNslzXJoU2sh+UMTqcGdHB1oqr0fY14xzvuJeRaOS0dAVATUQRCutAXyNz0YYukUwL34vBbS4H1s64s3pJ877LQpv/zEd495QppSaIy89zcxDr6BHtpSJsGCHS1mYMPabb6VK9b616xeH+3cnppg9USnSkYI2E1Zl2VZU2Q9Cty8D7VFEceyNVUF74XF6Yx9UCTk1hMSUsJh2Y4OhH08YIG9E9AGuIvAy6EBg6RaaUnOw7rJJxwp2y9p+W54ksmcmTBkxUo1TKzpXLDwgM6pcyf0HXDk5CTqugyw8GT0GYU+y+NgVkbHIzrNAOZuZzOu/ODtv022BY8POdUhHyjgjVSGBXRA7A3B2u35HZ7AE/3IxTOUazU7lQTIABF09/awxvgUlk/lUFKQg4GOUHnV5sd/dtv7PxU9TlqzL2dqnyqQ7Fqn6cvv/cdvjOaaM+3OSESzQtCWqHOAvMyBXdeBpaARjK1MXUlagATHzcG7gL0KwwceBlooQujg1cckJQ2HBPhtqmVxoujjoYOGobNHj3W/eOY7p/zgA186arGEDij7coLL8dzp153Q6y91V618fVN47cptDal+e3p/V25GJmk1OaZagwxSWHLUWvgCQc0GDscBbtOh3pXU1o0ya6TVFZBzwr50UDxECoM+I3Kpns1JIsSk7gF45xTPxJxP4wU8Pn9HjBm/tx1HBgiff5bIl2wU+9hAfzhpMCEk4c/0AlzXHKnSNzVMDK2YNreuee4hkzvnHlTVEzyMN7qvHPt4BECNFPjPza1n3/zTh78fk+csyHUzFvUHWQZKxK8ime5FOSB3iNGbDhmRAwpBu/O8j+9w35yeauJs1ImYFmrmbAdsHsjtGApLmCCanJBuqz/I/Me3/nz+N6R6yYWJDv997LMQFsF2/3db21GZLm0eS+kR3mELVaAO8gU2UZPADlRpT5dvCoTPBuHOqeUmJcYVGe8ko/BO8sxW0LMcskcLoJc7SOCS+Y5uX1X65RPPm/WjD3z9kOelCRXPw17tqKkeFlu/ri3yyksro68vWT/po+f/cqGV8c1RnWhTAFxpdk6rMXPxsGYDcyLpPngZtIgg8SH7ERIt7UrHjRFukCBJWlIrVAx9i6pf/A0fyKNPDxWi0blIYfBKM86CWsxpuULG3XulYAkEQWA5GIaTzOf7OrKZng3dPW+82Nr2+P2vrPRV2cu+ePKNG854xwkbDjh0Zt/0ef5uuaky38MvwjDTVVLGXO8sfvrxhqdXPN3SUBWYXpvKWCwaijMzJ2hCxEE5ELLXyI6g37nh5n1xU/vjnFireQqNQ/ZIMnUupC6NPqYDEZrvNRvaNqSPXPdyfgZu5fV9dTv7zANJrHCmXP2Rf/yib23wPC1T7dex83zoIGZD2JJQtRR0ukChD2/XWKY+JLmQFlhBFSgKGXUevPkTN17J68AzwkTO4VnD1Trrzm9r81X3Lzr9XQdc99EvHvEK8OxlrjoHvySdFkdb+wpruPuvT0zevrrzYCMlzU/156eitrhBdQJxnxqpUuVABDU0gWwGUSWEOeF1oDujeCH8hN9RPQ3GmTy8AnWMcCM8OLVYV0VyOv4T54igP5CfQoWdohaAKxDXIqXQZLHYzKWVKCiQ4rRR0WtAA5cRwgbEy2Rg7g0YR7AMDUt2UqaSRWNvc7vtS23UI8bSeYdNXXzuu0/ceujx/mbEpiu5lMEvoZ2+CdSR/MYituBHX7r/N5mW+ElxtYHlkygq1Kgo2Z1vngMRKQHZIg8EhK2FAsNhvJn9dCrqD58D24Xfh8Jkuxf5D5BMOqhxgVeSklIs429uP/Bt4d9c/dtz/g8U+f374rb2iQJxup3g/TdsedctP3nkhzE2Y6qeCzMdxheFd2wTXE9QJjSlMsLT2Hn74rn2zzlp8fGaDrJFEZoDhxcpEFWFBwKRx3FXGpJ5ame/E93+zJkXzvvux3951Ev75+ZG11XannWq3ljeVf3qixvqly/dcmR3R/YQvx2bZfXoM1TLF8UYBqCIkcumtsWgrEHLUqKB8YM0jxeA0ZqhRQPFQWNMnh5RP1ioreH9FLhiEAqDDtFoqJgg3bWRAsXBLVJvDXqxcpF05YeLriuNmXsjSwrEQdtl+r5DxH4wkBwZ1BRIbDpEQYH1kcz3Ml/EyThKsqc/19JmsM5NdROCj59wyhEvH3/aIa3TDvK3BWZXABTDsVrRoC78my+u+OwTd6+9Uk5VT4r5q6EosrSahFHhtobgCXVUcdsUbh6OC4/QOQTNk47OvxKTzU4EV5H3USJIE/gBVjJZWu1kmdiG57/96yuunHOs/LrWNPxG675RIJucpsvf/o8/2L21p0qJcEBGIktG6JhIwai3ObVo5WglRBEcSjiXcxyLzwm1niWqBCxUKBMuQOBG5ghW6EsnstrWV489t/abX/jJac9ItSNPAbm/1ruz1VHXPsea/nLTgweuer31HWF/09R0QplmW3pdMBCN5JOA77MosDBYH1gOVCOTNwCwwDvaHog+2NT/hfQDVx60Xgi/D+weviChENNwMoISuyDwS4R/iQLZedQFvQWuWqxGLigdz4sRCok8E89vGTh2sPyArHNwX0SdQfNPfGe8pwu9Q8EA2YUYdRYvWMPQjWAhT+XyyT5ATBNyKI8eLx3PvPP9Z/77wksO3qwdCLOxcgxpBNb9y5l/1cdvvFFPTT2kJjAVayztwlxK5QwZJES6KJR8uR6cIBK7Bwk+LONeyFisN7D20no1sE+soMGy/o7uqYeF7/z+LadfIzUNf4HysCsQMEKG7/7Fhkv/efOL3whaTVNkA0ksg/KVIEjEVFKiWZF8iB7AG+EsmaUxyjKcSvJCKBZP08ZTOhAYCI3zIJaayjjh3qUnnDv9u1d+87DHkDCniqYxfaRXOL7m9anaxf9bUf/kQ0tOSnfrp/jkxhl2PjTZzPuqdDQKI+FPNBPkVUh5Er6ijacOj5RIJ3lzLSgRClGRYKaQFXl5Elx2HiIsAV1wdlUvJOV6DGKAdwXP3EFYcOEhGniJEJZbXFZQJJ4XssM2cbUR9zJBsU33JVL1dAbyQsnipRUADwVeaTCATY37NsFCgA4F/HksAx6Wmsln1N4OK5DaEI7Li+ccPOmR095+9BtHfiy2dUwvkn34cICu+m+45vl3v/xI59ey7cGDAkqV8GCpoymvPKfwJMKgyBVwrAWfy/JUIqRAgCAkpAgnn+VGF9Z0Pg/GC+wtNaizrAqal1DHqqt/fOHlB5/PFkux4Q2dDqsCsdsduX89m/PJi39/c9iadUxfh6OG9QgmUGx6upiK3Uo9fhWTYpCIY4MLX1iQZXgQjA7rkUJXJEQUhC8MPArgnqgwz2R91b2vzTkq8Iuv/OJt90tTxzbEM7PaCT/6r80T/3XHk0d0bkqdG1Oapsm50EzJ8NWaGUnx+YI8tJfNoqMc9y4QvwUHWBjtOiWEf8heJz2ClDReyCvJGucz8hQIT3zT3ifLHi/KPZFbopPwdnMdAxSHq2QGMAQUrE0irHPXG4E6yLBxxUhB7ZQiA0usVL6WS362aT2T18lBXrglhGRJWfA8Da5BayPgE54UKRBaL/Q3G89AV7XxnIh8EUtsJmG1bTZ9/cunH1RzxzkXHfXSCW+r3gKIdzlHWUZkUzsrncZPX/C3/+vcGDw7Is2MkbchEV8dtqAAWeBnUiDkgYDJt3wVCI998L1CPUSIhFYFQ7EBL95AS1MFe64fIAK91kg3zMvc/uM/nf1VafrweiHDisKS/Cz46L0bT/fbjVNQK6fWhRtA35EQKAGqmYCgcPBgNna1iEvS3hjZ/VGQI4UEKq35gWE1LlQGxNS98AeJHnoOEmrUSRHPhr7FzG84wYbcippp9h1f+O7b/jNWlQeYP9XXnjQa/3vvokmXnX/TsU7WfzjLRA4P5BsmquAbkAwoAXibsh95IFhFBl5BFFKaCGeauRT4wUB4h3cDWteCINaB29dB668hLGRZlCQnYYvmWvQPqtQAIEEmK59HP4VBggF3hVQxZ1EqtShpTrkSnsPgxWTUQ4IS6zTHoo7Hg5GX+iwFsU3KorBEi8qDmFFJOfFsHl0DTMuk7EgJkoLw4RlkKEy6fjINfD6sX10FQgbhzUweyC9QjQf8YWZlNZbKkPUYCoSCUw5Ipzonr17UfPD2DQ8ueui+0P3P39a19MiTqjerU8s41rK/1Ugt65l/7KQHX+ztPMDqNw9SbWhomu2CoSHCkuXOZcLXNDGXo3urDcMrCzivRoYJFVLSPkG+MKTVsERPd3Dtq9tOfe6/2YUYhmeGczqGVYGwdhZ/7r+rzpcSoSmaAdKyHArnsPEtCAxe9ckbvSB8RRuXkpdgkxzJSeTRchIk3AqFoIJ5CDHlNnMRTWdIkNjQ7jKnKwFNNK8koBd1K0aYBXQJASStkllMJASlo+XMtNSxdsIs5fbv33TRTdI0CTWiY+twEKZasZhN+Oa7Hztt8+qu8yQrOF23p06EFVQFniGYdcQ3BClPoVnEZcm/JKGPjs7IBZDgRtYDVhOPKNBPGFp8g3/ehvchqobpIOXM00pCAVAoi4S1K9DpMyQIdu1luGPOYblC2HvBCvF1T12QUtjZAy54KAOmrhjqEEWkYi14+kXCjVKVIh0mGRVQjLR+VAwJ6lb4fWRBnkmuiYyECG14IEsIXyYUW85Bp7lwSJcnz3baMhNaulNH//KFe9YddOz0P295yHl2yrlS+9haSfvmaVD3kNv0tPPsY4/95r2qXXtAQ7hGp/qIVCLDosEGNKrDvMADJhp4K1e+ZVgkhmCeAZiEcDA8YAXADZsjC7ErKP9K4hX1aX6nigUC0yc+ed/rHwZabRlo8XuHa+SHTYEAARG667oNb+trteYpyHvIELYAIPHN7iUgyQJU3KZZNncdCYJJgmNX8erhesS3Po9A63iH4OIX3QJ5hqZE0AhfZUc0DoVlkukEi9VOYr3Ur9lp3xif4jzy+W+96/axpjysNU7gvlvXzvrcJf84I9OlngBqmoP91oRJsg23YidLwB1Xz3D2xnknxuJdzc/AmLSHoBr4Xpy3t/Rh3et7n9n5s4OLf+/Ob/aSs54iKrx7eg3votOm0KIA//K1pVhQrkD0OVIopJjReZHwxKmrnmme+dUlf3z+lx9++uZPfO3EZcF5Y88oGe7dXj2ZtR918oI7Xn/YWJjK9ExRwYARi1Qh94SxxpT7oDwohApjvWzLCLj9QmsGmsIkMcpFFIVSiWWQZC1AG1AsAV+Idff3+5e9uOH4zS8cNR2YwNekwPCERodNgYBOoPb+u5+80E7WTYwgF6DoZNkT5pre6aGEB+IdtAGHNQEzmBVI1ql7FxQLdXi7SxGmEGErSrYJ70MMt0i6euELG7ZjFq5jvL6ObWlfDQoBY33dNO3Rb/3iop80nCC1DuaWRuN3ul9zYosebp/8uUvvP2/7ur53RtTYBNTcx/2aP0bw5VEwk6Nx2PbgnrxQKC0r998UEeNujVh7+bQTZGZ8vqYGahc9tHHO0tfW/POx37Y+cManGzftwQXG7Uei06XkS3/Lv7L88QdbHMM/xUGIUUIonboUUjiR1xAR2IESVWV87OwpkyZx+xFxWYaujaB7J3BHQIvW/OYX/7j0p4deshaPPCzV6cNi+oPUwf/Yg9uOTncrs3Q5BrYSFRpeZlm0mRQHPRRxXnn6qoi7H0nvg9OweyEQzpxLYSsk2tzYCiWmhPKg0AkFS6iNJNEh4FuAIhMKJ485SpgpFp+orWThzlc++/V3X9dwmtRcxmuyqOQ3OP5/fnPJgs9c8Osrb/7+fTflmsOfrtVmHK2ZNVMz/Wos2UuJ7GGzQcbCkA3iGcjrhTBD7oxyNSIc53rlMLgyaYdVBSZDDlTVB42JRxstVVfeeO39373m9AfP6lu0f7vPDeLhRvQr8w7SumK11mbZl+gOhH2sL5HkkFeQ3MD7QAMqip2W/UEiXIhxbuRyD59yb0KJJMx2FoqA9YPgf6a/bs3rnacuf9GePFyPPSwKhPWw6CP3vfiesDoRyVMkBiGHiTTRQQ9bnq6CsCVhLB60NOk5PJcf0mAQDBdxQxE7JCUilBtZfxS39pQHKRZRteyhNgAphVelRUOsPd3akZK3Lf/Sdy79xgHvkcoegumscbRnftE675sf/NdHHrxh1a/D/bM/PUGbfVSmLT9ZyShySIogzBJh1dHJhYVanNvSOR7SzIyDL3tgDS8gRmtRKBHRExuGGAuxXAIZumyU6bl6nfXUzIvlZ5/bvMT+7rVX/veDz1+faRwHAzWoRwxVs+6jT5l9X8LYDjwo4K2EkIOiVlQU+8IbcRDLKlcWjNIBGdiLiLxXyj9SzlZCnxCN9fe1ALDhY9mUzcLKtCn/vfuV94Jqalha3w5Zgjt9jm/Rgy1Htq5PLHRyPj8hb6hdK6FuAgFq8VriIu46MzmoxTE8XxLKo1RxcLgxvCV6USKYFhh5HIS2IjdQfJZS7fBH8J5ivV2mv3ftORcf+6Ojrqgm17Csj1V3GZO+/KG/X3rTDx/98eaXnW+Gc9NPtTpDE/VcSKnWqznjZzaBHgR6lKUTot9C5RjsCAhly+lX+CEAAV5fbPKPfSDg1ICy0VE/5WRlFrBjLGBU1+qpqsPT29RP3Pzjf37isR+0Tx/sHYzl70kTpfzZ7zzoZVvr6ejP9OcDQUQDOW8mwAoY13wZJ9Bp3gQoZMccsuB18zothlALkjL7OW9cdaSWIUpU//LT689MrGVNwzH3Q9/97SzynzufvyjgxCd5KQ/ClCBmC4FLOQ/PvSIh7OFg6NYFDfqIHjxZjngoFa7xGYHiIHw4XtS5jBcgcQVCYStSHOSpFBvfW2rGTLLtm89937Hf+NAXDl46os8yxIu3PONUX3/ZC8f9/JqHvrn1teD34uzAc4L2lAn5hCJVBao5QohCxtQ21AcoqoW4aiBAtCNC8O10eKSGBXLDId7gGPw6N064l0vrziMLJhAH1hnl5JQc0H3dEHoJpnJOpxwLEsgNgs/JW5qSB4ghX/ehm3921/d/98HFh6H+YYQ31OibpMYFrGXBYZOfyNvpXom492AI0n8OjFyVV3+W98Gp37jHWgJaIaOY7zuV9fb0s6aaJpbJoFc8UQMxNJ9KBGbe8uvHziAW46E+/ZBGEN6H2rqBTV/+wvYTA0osRIR3oogKBF96jKWSJTFyLom9QmzCN3nJ1yHdwlCfn8edhQAkl48S/eR9UPiK24NuYFEwtPLeH5gsC8WPlppkpta9acFRdX+99Ir5r5RrwZfT6mj/+9Xm+VdddsPlzz+06dr+bf73xLXpU5LdMmr9wkyjKjfktIj3nOp40ukM9y51CLIsFmXlGMoIACljwdxygRqFWqOCYWOg2xwsSItaAyAcrFEtDCDxKDYJorOlnbNZrleaEZGmnPHiIxu+d9XH73hbZunQhcJQnmi0fVdqlJJHn7TwESzj7rRBbRYobw5IbyrFedbK+/BkqKtFuBzzWvjSk6G2Cgis/r4UQnaIo4Ct168EWUCO1736zIZz+1azuqE+/9CySCkWueMPS66YEJ9f19eRRtGKnyebLZMKx7AxECsnxIPwNcBaSkK6xCspBckO9UEG9X3XYOMRBOLnwp0W0FZci1MNApEk0nsQJJBZsLKkmRYBB5PVvTHSlHviGz97z22RhfuG6XJQz7QXX9r0lNP4tffee17/VvldrLvxQM2JTgroEcXMIt9DPFM0GJrJklSbgaI/zjhFY0I9XTAolJgTntvIGgF78cij6qMivyZi1RS6IoOYQ8gJHUitD6huBD6uP4ieMw6UNYpMYDhzWwdEKFiupHz8zOf46rO5wIlbV2yLfesLf5fstc5/5NljnzZnTydz4WFz2vzRdV1p9AeJ+KvQbAoGEAo9zRxx1+3pWUbn50TG1ss7oh6E71ISZSS/IM+gMNIgWYwjV0s1SFTUjb46sk+NT3vl6c4DQf2yfSjM0IMePrvVkba+zmatern1iP42O4rGilAYNjNMVNmSF4JWkrKCYkKuNLiUcdFNg8Pd74vpE7Td5HUQL46b5KciHE6wR0lzeBoE/8MzGABa+8NROCjY1FLXFhbtWPqFb7/nB1Aenfvi3vblOZ1tjvr3H66a9/VP3PTJ7jf8X8g1x85TUrGpuglCXHgZEgkxQgWh0JO6KJqQbPQuXmImC4u2ojyGPFXc2+XhUlEVL2qjRCc9Tpjnhii498s9YfwO65boyEO+GOtGmEK1qiK60XRo53rt8x9+1y/fDU6ycjevhzyu3gmqmvS0pWXRGtREh2PU9dIYEw0OariGpxpi2G518CfiISu3Vq2ESYPYzwNanK+lLIYA7WvQZEuH56pMfvqhVy+AqIsN/qJF6b7X5wB8Ovj0fzae1NNszfSbSOyBhp54gohGkEi9UOqJqmPD5QgS+QOaOG6zchoINzzEKSVG6OABROLEweDzZLpQGgWkFaHHUNOCVCa0dw5JN/A4Re3uvNq98pKPn/id+e+RNo/QnQ/6stZKJ/qVD9//7k1rkxdqiUlHm4lovc+CstfpuQVrAEEEQLTBlSbNIzdoEJOn+heyioXA253zupt53bHAcNBPVM5fpKDoDmwM3CMhBe0htMTz2bR3eN2SCKUSm4OMpBRVvFcFa/BvH5RILJjrUI6303bg6sv/knPWO/+WZo4ZETnoiY5OYH01E4LbW7qzCSOl16DXDGCiWMe8rXY5H7R2SHEUyyI4LQ/pEcrVYo0YQJ4R64EBRmhOSgo5RzQ7Vi4aW/Na8/GLH+ic63Q4i6W6wa2TQXsg6Egbff5/K8+O6LWRkBbj9MjU+JPzXoGegRJVJie886xVb6LooameojShPpKT6N2fuC9B7025GlHYRY3rCKcPh4ql7R7Wk9+2/aS3H/jrd33qgJUjedd7e21ni6M+8vMtCy4+8/rvda6RPxvJzThLy9XVB+Uw8lU+nutwoDAoXMeTusQ9Uurfu2GWwixWqJn2dgp2+XlRiT4wbs0T6lyREBLQffEiXOwtTkMORBZCwUQPlMkioY65SaN5UgBzGbRrA1F76iHblllX/eTrjx49LDdZ7icJsuwRx8x7yJT626mltrCIIJ+QTyolxizPx3SLn+nm+Zqh9eFWo2OPcjmMnBmlFQJ+EJdCieTAvUYy2ydV1d3/98fOx7IaNKR3UAoEGsv/2iPskPbN2Xka8vpETY2KWdykIE20uGWUpsZY4iD3nKOayHISyCfBJTUaLIDi/XhKw0MwUM7GIL4iWOcZp51VT5FXBesziz551THPQmOXDYmOtcIJf+sT97zrlp8//N2oMf0Cpzd+eLZN9oUhcGyWQFOaHjwnNXAC7Ti8SQVerQ5mTCJko7ZY9KKFonDB5iLrCL0GMIG7G2lHui9vG+5oOHgfLam+Ls8dO2x3zWlz4NlZCjjVEDLkNSBueFDijLElL76HKOQiQl1e0ZhDXeny6J8CwUjV1mhCA6imHZpVd8S8x+9ecd3Nn100d9huuExPJIUl87hTZ79mSD0JGV4HkV7KCM9yZOWokEGDHFiXcokMEA5L4hEVKp2gZlm0HbF3dUE+Sp1gKZpiGqiHQY6T0H+qHaxq22IcmlnPqgd5B4NMIVks/LdbHv2IZsXrDUAKifURuCvk+IK4SeCrkQcxTCgQ5At4qIryCzzkQS+XwZYne0ZYmHBkGFWfkyVCuQ5RYU4WHk2Cg02soF1kT7qVqaG+DTlp82s/+NWV1ykzJWpDVxbH0n8ak7/+uX9dtnGZ8ZVsW/TcuuDMSVo2wKo0xBzR9Y/mBy0t+BKUiEKdaGgQtpLBhish6aai5zi9ZEck6AQUu2gYlMUgjNabJAsRioO/XMJHcasiXKXwF3EdkfIWnEcKtVCGgUYvYkXQgcZyUCcSDPphAGSJEpRNrGpibRv7aqbXHDzrkX+++qmHf7ppWDD/o3UY9+S+ps1nneG41AZSfZA7izC7TANb9gdFTLxwJ6EwRBkCHeTdQl3wnCZAy1AcpFUUIPhC4PBEeCsNwHjCP/3ev685FlyG4kt7eey1B4ILKRtfyc9Ys3z7kToLg5IMQB38v4IQiATaHhJCpC9s9B62WEbczgDXin7hWf0j3QeEPCEoDzSkB+aIblRY2DaaYNkAAODfJhZbVZ3WY2mtmz/4iTN/PP1otmUvx3hEPt672vG/8k979nev/sO3t6+RrjR7ao6eEF8YaNnUDcbbHIv6MQcWurUpMSiQOG/FSqFHWYGSgGsvIX9FTMoq3F8VygPBEiiWFKY2I8AQXMmSN1LeXEIjMjnuRb2aImqKRRXSXt5D1IfQixSGUBo0ByrqQOBviHnAS8LaJY8/BXr4LF4aKqwDugH67hYW0QLMTOgTg9b00+/5y4sXtT/nxEfyWUf82ijonzaraaPp5HMUZqdmX4IOejREQQY7Op4B7ikREmGU03XxE1yBpPGUyGsSGAN7lqD5Pj3IvTANsjqbUCY89uALF+S2MViUe3/stQKBQgssevy1Y6pCdWHIVrdTHDXLwW2C3ZIWfsCHhB651LzTnKtDdpIzlPzZ+8vv/SO++Tf41cnzIL3B74/glCX3RH/TUlbS3r75pPMX/urUSyeukqoGl2wazvve3bkSK5yqe29ZdvS3P/Obn/tSE96mpmvm+K0aBkQoCwIZF/EDkgz+LglCywSsyoQLwkNYmFCKC9OLupz5MI8eWzH3zkraD3N3ueDAepbcWLDodje6w/j3wvr3EDQUwPJyg16IV1ROF7x1nqejn6mwEB4MwsdVAeQg8SvdD4MH3qIvCI421OrIps581sQD+rb6Pvj9r951/DDeefmdCuJp6uz65xXZ7Cfvw0TUhBLMZX8U1lBx3QgCWxFC5soS9R+0roDM50cOUaMUarh0LQRDsj7S32HPf3lR26DYDPZegqOGCaXwp2u2XkcBKeoJZWAyJNXCDVFDHRMZftwwaKkJqcM3BA8TIdmHVS4K8jxmXgpt7f0tDNukE6rFAD2EP4qNCBAA9zhgafsNLK5eZit9zPR1b66dqT730atPWoSewl7Qf9huYbhP1PKkM+lnX3788vt/s+SmSezQs0OJhgm+JDp9IT+lkusOazcPIZOGVWthRVEc2Id4sEZd9TA/RDYnwxOhGGoWMXUTdNAW5stCbNXGi88dVxwu3Lkg8LwF7LnTA1FEheesVKgXhoJDd5HnoL1Cilo0thJgDkGu6BIsEpy6AKXGfFCTLY6OQwtgCEGF6nTwnsV7DonHJFEG+Kn/COYtEVQjxoyDO5Y5n77z6rWzhnu9lcv5KGc5bd6kdfl8b1YhEA8MKTBD8dBO+R60ZkjO0log6D2iKQqsRDklYOEIZUkmGrSBBkemMDRFWghJif2r6yHIOJJ/PhaU4vWPP/jimagJ2evK9L2S3k7C0ZY/aS3YuqF/np0nSK6wQoXdSQJDWEW82Kx0QxQgia5mLBUiIzx7tHENIFm8vtsapzsAVhoRLDmQTpt659aPfPaC3/rqQBk5yo81DzmTf/L/7vn0yudbr5hRc8icdLuj+4wAagFpkbkeBFfiop6AXnR4fysllqM5FS+aX2IeFi8RjiyFmXpW3Biw5kZgfr194nVFFLcglK/HiTVwLjwor6gPIYEguivSXJHiB2U5zRW3NkEphFoROa/rQadh4RP/evmdfS8OD4neCAzVkC8ZCGtphPkyZCjRWhZKeK9E4JDvYVhPsJMcpVCWR/iKJ0M+l794+QR5IV6YVOxrXlaBl5mTqzet6T4y3cxq9vb+9m70kix89x3/ea+V1Rs0BZl+TkxW3gdHKMAyV4CEsZD4J0ikhWK6jJOEJdfZfMp5h//14HP8m6T46MWtAhWnPnnj5vnf+8qvvrRxWctFISU6s6u1i4VJC/I4r4iRctQPhwrAreWx0jLfQOW99Ibv7t2lSQEwCbDfUiinjB7ZWaMX61urT/VJb7v+53cuGL4Ll9eZYrEYamJlk4oIi4q6vJ5huO/WAPBCU/xKXyeb+9hD2w+iHPfeXGOvFEj7Vtbw6gvrj4iHm6IEodaVYoOovbnoaPoseR4EKVYJCQP0GPXipmRyn9nZWzsj9OrFHz/8MbSAHLVtaZ3Njv/Ga54+6Zaf/fv/WV3hdwSdulmaCb4blUANXi2LoMXgliwvPPKETEWBjKa1OKh78ZQH9zgoHEM8bhQSo/CxzVLZDjahMcZy6azPzvnnvPLM9vesf8wZUvXxoO5zFHwpFgvlEKLlKCwK1fK9P54PrB2iI6IusX6pduLD9z3/3mwXi+/NkOyxAkEvXf21xVsOZLlInWrFUbgEZI7mVnHvzRVH2WcpWWwArurYQAf4RAGOBeI6vcbe8PYPnHxjZDYbtc2hul526v783dXveeH+bdcZ22Jvj5pTZoTtOoRCwfOTIfZcEVakl+h5QhqEQlCUe6K5I0UyzjfRKFuPe3c7xTAXD8XwOgAvzMgJ3oC4sVgWrZZtkGhZmcCEgDPj2If/uWz23l1nbHw6Amo+yzZkHjkhRoXRj4fZpwNPIWs/+oWYGVSnO/XR7etTh25em90rgsU9zyA5LPTUf187O6DUNVHiJYwGJfksxdv2yuPZpwMymJNTT/McqMqplsUX0tF0JcNydm/z3CObnjzjoqqXgLoalYlzZ5MTvuqy+z+8/fnkJ+PyxJm14RhYN9Msh0RqLBBlREOWSiWh5BGuQhJW4HsIbkajVIKAq+iPwSybUfQdmlBSHBTnVgugVOr1TTU7uiaBK6sN9SK1TA/WKn3Z/jnPPrLqEmOls1ybD6z9ODpCIWBISa1CjaCQUOYpwLGAxBrCHOYIjYVohSrFiAqn9oUnXp/tJJ21KL7coxqLPfZAWlayieuXty1Qragm5VG45AMUFMRc5X6Qja6DykMC3xV/Hi1t+OPZLWdecMTfpMmjs2Bw0yPOxGuueOjzG19OXl6tzZqp5qtZbyfQVPA+68ITmQGa70zWZKFwRPQK4JNUzFeJJlkctFzOKcRyX3rDcv/c6aAzFTp+0sQW5zqdToOJtRpzDUbfNP7fqq7J9fhP/9P1i8adF6KHQboAwj5EHSwKX42FHO5QF5EJFgNqWCaB6sTHYtUvPrPmVNbHUAi3Z8ceKRCEr3zPPLrqINmIoKdmmGXTJkv0JaFEEGffs+uM2k+J3hbggQLULZVNMzWc2do4U1ty/NvDo7K7YNczztTrvvrnL2xflnl/2GqcY6QIYQUyRJAfyqAfoboOJHGYimfqSSYEe6v7EpMgiji9amZX/Iza+anc2JuPgGgkRC+PwVfk86jQk4hNyXqormpgvf0p3j8EtYioPmZoa1o76YUnV56ZW7p3CdOynwvgfoBK50qE1n0xmV72TzaoB6AIXgyRi2wqzdL9CcD5A76e7ebCtjV73q1wjxQIUK2hJx5+8XzNjjVYGTQpAfyN2tWOBQ+ERj5vUoIZ8F0JAdJw/4YvfPNdvwEzy6hLnC/9e+KAb3z6tqu718kXa6n4PDkbRNACfF2QDDKqo3LI42TQKRDOOf5tMg1eok2WVknISnRXJEhfDi+iJyl/JN2gds8Y+RJvcsb9SBeSzRF3VHdF8yqzZD/i23KcGXmscCRM/TrWec4JS5nYQW2bB8+BVJbDB1YPXddzoscPFO2eSb+yfNQ9vWkZhrNKFEZUmoeCQzsTm/vH3z5+zp5Sm+xRDmTbcnsi8cc7OT0kweShikYKg1CVY7mLH1KCMjruSYRG0KXWI06afX/DHLZFCu1ZDHBPJ2oon3OaHWnJY6n5113952/J/XVH1/knTc334oxgz7XBN0YUfKJ3BIUyRNdEfri1AMXwlQdfJBSK53sUhc9Q7rHy3REeAd5qzyvm9MLXmFtw0xEBLdncFuhpJJBqoS+V3+jXDli6uHkC7rpjhO98v18e4asKZQIfdZn1wfOgfJnfL9i3E31q/eY1vcebbexv+AWS3G997FYHO92O78VnV8/L9ikTHeQ+iJtHVsCxgkrmsQCDI7oO4sqnuo+s3Nt/9OkLFiGVMGq8D7SclZ+6t/XQ31x7/7X+zIxT9WzTVCcZ5My4MXQZc2BtEpsrtdl1kO93qJc2VTJzBeEpB9GciGsUTrLk0dbvUZ5sd2uo8vcRHAERwqKpFcqDPErhVXpFuygkVAKAqFPIBp4n1ogO68HJ+SYsfnLF6SN46yNyae6Qu8d4D2GRTNDVAG/dkM/1c+opn1ztT3TKs9atTDfuyQTtVoGg70dw2UubTrVywUkK2meS96EQ9JU45gdys+7J9UbdZ6gvsulk0WWws6N2im/l3MOi26Tg6LBQ4Hmo/7lt7ZE3/eS+7zp9Nadq+SYQMgDCj8pyqqBPp5OcTZfXeBAZ3w5CxKP85nxWLjeOZ3pxZFa5J7BG3WrazzdUmFe6bil1DOabGwqYY7xR4Si1wpXgehBZJnUOBQymeuv6tqM7Xx5fNSHwxGQyfMeC8Tscqy0IxKaGBlNpoLEohBXQoqDWiTQufnbVdKeTVxq/5bFbBdK9gdVtXds7D+grVaHmNvB0JGIPhfShV1lTAWAj5fIZQOezDgt3bz/7oqP+7J/I+nc3aPvj7+gmp//31jXH/f13T35bTzcdb/aGqowUYg8auuOYeRYMIwdFHbyo+pj3iKCXgG5yK5QoLrg1KsKNReguMZESl5JLiVFRIvtjOvf9NXiPHfI63DoffkXBq2VivRDcXiGmbKLvNzNA3qg+M2dPXLG0eVAsrPv+gfbBFbAdgLxS4HlUVj0NL2RGJpPlIXwdNX0aCsNtdGq0smrt4qfXnIF06W65sd5SgSB8pb70fMuc3k5rogIKHaSYeedw7iqTFi9rIjKxQHO5NNMDdm+4Jrv+1PMaX5NiRCYzsgdqPPx33/TaaXfe9Mz/s7urTpBT8aogaNf9FIpAHLtpQiNrTrSzSFU1h28SIR+FtIghV6EcFeSGoAEXr6I/xdvOCB4srkQq+2hkZ3poV/c8SPJARcEogYvcpl88FyY8U2JZlkGySIYDQVeJwRd1TyhC1gIrXn9j/CgQDJFlWYXCtfEewiI1mifyWwJ5ox2HgoQ6SQTQVOktmzOHtazdPTfWW3sgWRZ4YdGyU20zWKtJUCAQUtT1nKCCEhLo3B0payAvhCvMc0fJ9kydG3sxNAkI6BE+SHn8+88rT77zlqcRtqo7Wc/VRaRcAJ4H3ExUFDM1x1q7trHGuomsubsTZGloAAU2V/4CcZoCHq9CEyKXQJHUBikR8kc8ckQLUF8ilKtUgozwhA/X5b02zB7hJc95EdKFmoblQFkBdgKgDXnBIeBHNthZiThr27bmvSbQG65b3t/nQdSdqtAVvCqWkzv4uuZHeT4NB8glUQtCyDQddSGyVTX5sYc2zdjdHO1Ogfi3rmmbE5SicSo2ERYO3Bzqy0w/EW20y8W7uwuNxr978Na8lTVmLmh8jndLGsHD2eCEbv/ti2f9/fePfytgTDtUylT7InoTJhgeQy7LqqIIX+Wojwdj3b19rDYm8lwFJtfdUeNzV0TsHfGd0hcZA8WX6AMi+JZ3OngrTdGW2EvailbFbgLXa7VZ+k4ncX/mXSoL5/DOVfru/V28e4lir+aB6h7Ei87p9hPn1xZPV3yJtqW8dSmHtoowT+l5+LO590KNnQrncx+6GB4UYcLi571umyO3YLzQ5MCM3Q64SNqj8DqovTSsbxGuQI0QZ9G2lUAmYY8bBULWEgrPZXjgcNQpD1LeLBpDX3nCgEZlPsKbOlckNhqTZRIZFmKxmpefXnYeiFrfsl/6W8J429exxlyHNclv+jhTrQ9xMhMJXIqrKtTiFBtSIH3K9cC9g1UY3a+yhxx9YBtoS0YMlexsdML/uGHZeff8acnXwvbsQzSjljl5dCMHzDgA6xGwGVDH2MDxw2uAHlCh0LNZtDAlFA7vZucKwp3mQ8wP77ZNXggEr0f/TUJE9FGm31Hs3FUX1BMEQpcToOBvBXvNTdgLdl8qVsOJ4fGoiJ1SSNN08y4O/i27m9Oi33nQF7oUfrapJwH9nm6I5/4JCIB74CeEYEOmkxvLeFdI8uFcHGpNLMKEIMINUSiGUCMK2Dhk6u9APdyJupz3KxHGDT1zDo2zgkG0WUboz4AA1X1RfA+uO3rWEI2NUELieThbsZsvAtMF70EuU4jQpa/nf+foNnoXtPhEqzSQin3/7oWCIeDlQKgnhJtQp97pdMN+QNSNLArFqNkmpc0QqgDiH88VDOcSqampVY4Umjc6gCP7cvQ6W1DdpfktR/XLTg45ocJeGbFtvy8fd/fnxnq2bPQIwT7Mo6kcrW0fFIlO0SVbjiS2tM1PbuKdCtFkZNfHmyoQB70kbvvO0werpq9aRujKi7GCMQoLz20F63XzK2MlIquqrWhyvmFiPLX7Ed83n0Clf/iP31r0rn/9/cWvVuvzD2RJcFmh4l8sa2Hli4QobXpC2MB64kKNJp2E/Y4b4M2Vuugq6B30b0JFUC0JXUcc3vm8/iBc8QC1VTwozi66o+toXETV/AYoEUhpkFCm2yGUHh2kBKjIkX5JQp+UCbnIdDHK5xCij37wUDE8pEgxWfqGi5axIPXos6SMSNmRUlHRRlkGgF1GYtiCh2aiUM4iowa7gM4FsY/TyiwaqWaJdB/+ievCXSeli/A//h3Ed5ETgFIphmFJkZFCozsXz+sh2ApjA8VEHv/oScPSnVFkgNYF3TPtTfpZAFw8r4l37SHlzfcq9QuhOVdkO69EsZ3pl2Me0w1CSQVhPI1WOjGHcaNlwH4oWeLj5J8S9jXVCElkMHGmbiwGMJLLeciWnFq3/vUuJFpZy5sNx5t7IBnmf+aJl09hzhScgNaXG1YotDUdA1qb53LsRLwq0FMzkSVGYs2Ajj1y67UvvOv+u575vF+ZMNcxUFGeIXoVUMyDCJEEHBfohViSaAJjuwJCNIkZ/EFd70TYBgqA9w6BfU2JWORWOD14ISzmzjeHjiKMSc3L8L2clUAlPHVCI6EegHJATBVmvGmIvAvVpCA7w2/Q5F4DhLulu31X0DoXMXqG2hVau0SzbVGnRKqQh0MjqXbGQP92FHlmFUXKaSoHONimZal509QtR0aztbiOH31QEBqMAVXlQgEWNyJWlgHlloUXoVTzuD95PUEUXlLqjsI5Gd7WE+Ec8r5ws9hDA4+CxyUUiuin4ob2eGe3UXoMaDdMUyqMjiJikuaSP4eM8VUwFOMiJ5BN5bFWLLidwiCr1BPS2iCDC+/cWKMNK4w+amuBVtfx555dOhNhrFXo6LhLgf+mCqQd8N10nzLDb/tKYmAkaMj6HLVbZy93NAnLTGbm7Amvw7nd78yQ8DyC91y/8lx4Hl/y2U3zg2qNbmZkFo/Dau5KcMJK9L/hIR+xxUl4C0HAZV0xpbGXzy0+zmtIePiLikINN2QlLiGRYuHnL10idFVRsSoOEsqA/0HRUTyZlEMKsEASznSoENoKag8M3k4T/1aF4HLgNqtwkzXdQdOubkjxfC/+3I8lm8yBh952jJwjmVkol5TjGNlA2NcRjYVao7FIpx5QUeSJuwMKwDCVqs1b2g82clI1PIsoHkjXoUt8ahB+ULBOd/zVyd7+cCQAKg+QSxq5PKfzcNCBEpqZxWMxlkl7ChicYqKUvxCyEyEr0YxrwOEqVT4Tu8s7DWpm9uZLb7UXab0IT/VNDgkoHIVa4OzNFcv1s4m+DCq8iokPEpTj4sHfbMKwNjiLBd/n7hqnCACX74gwmFp82asbjje7T3scv9hlGOtNFciS57dM05wa6B0Q9fE4OFlglJAr2VCjx48f3Jomy1vO5OYuOGwpCibJ/N5vR3KTE7/75ldP+OfNr1wVkWYfQggII4M4P2ptMuksmHQDCMsAKYP9L5oGk2XthiXoLrl1P0QvkCePszgPxahEj23h2eBqXHDCNHVJ+UAMjgu6SUc+bnAG8LODnsuqGsf3soijoqaGeqyDFoFSF4iwYjGaLJlK4PcGC0d8hs8v9+WM/u5ULgUNkWhXJ1kvBBt8SyZObNoyecqU9klTJmQmTq7J1TewfDjKcoE50Gxdbz0tzlZHtZCi6+5m4eat6fDaVVuia5Zvm9W2peO43k39BybtaI2uRCYp4DSXDJ0FgiAbNRzW29eP/BLZR0IxC1JC8jHI0xCbihS4V4Qp7sJV4G5eZL8tmEFfSOS4xK27nkfx3pFSckAuOOiTl9UXO5t7opqskS/Kx4KSx15D7rJ6kGG8WS+sLFJ/wgOhELDDc3+BSE+LeciWDSyGv+65AkHvc9+PPvjkCWY6WK9RKIO7wDxjKsIdrtEjkrLD+DT7+VRcACtmvrom0gf5NkRpvOc3n1nj1N7959Wn3fmH57/sT0w5XGFVUB55FiaJmQUhYibNwlWi5oPkN+UCOPySx+c9qxLW03AoEa6YSCERm5rbYIr/wm2FK9SJKzg9IUTKhXrBYPsh98AXoYrsGHpPSCoS6iqCUDYYPvMJRw/J/YGI3aVo+eas2dzVZ/X2NU6Pv/j2M0947tgzZ22qPUPqYSv3fOx29UnQ7tPN0ovyWG3uZ151Wpx/ZZtZ9e9+/vQxry1a+86IUj8p1enMy6a1CfFQHZAmAaBOaBxFEp+vZxfqzNc5rXhOC0PhOJcOBp8pYtPc0O7Qbn8Yvr2rHJi7Tt7SQwKe0qekkUbab2t/GB52UKdw2hz9L997fibqHSLU+4eagVg8+D+o042ZL4k1T+NQ6slSOIvKAfwaM2KNy17e2oQH3r6rh961B5Jige0b+ubLZrRKhmUqxliEUShly38eI1EswzaUnr5e0NbG98tSctY4dX//Q8t77v/rG5/TkvPnaNkwC4dqmM+XY309PSwWi7BYKMy6YU4TTxfVatBBaT8+5lyAefvdaxQ1uPUsA2Vkk9LwDljhIjRGSXrySDwmA1pgUBrwOihp7yWYZfTn0QNISlNuA6EuGWisHHCSmXwyIelWj1pltWSklo1T5lb977DjZr9w6NFndU2f5+/S50i5Xy3BaX48uPve029JTTxnQgnAe52Vzv+efqht9r/+/syFLet7z8lK0jTGglUqUHhUS8ONJA/a7CoPGmyebKaVQQkSQqu58yAQ0ULxeOOxp/e1bz+3YyKHrub+jt+zh9jjVrih++T+2ILRQxy6z8bGYPqWje0HAzMYJGSzRMVSLupvn12zDE5M6Eaq7bPImOYyXYhBDl/HvvArtQ2vPr/mBITbl6K1905h/l0qkEQzi6a7nKaQVqPZoD0uyheB8uDQXeHzFBdnGQzWrm4xnzPDzds7JjEnTtJyaBnp3YxBeqkz4fc/WfaRJ/695sNKasIcv4MucfhOsgd9SGDBR4MI42O8M6CeIKw+4bIJKeRwmC2NuUj+iWmmefCOXQmNPZkQWN0wEMiL9BLo4lte2EMIR8GzRQVpInzpkTTyO9HTSFj35xFaTik+pc1y8r2BEFs3c+HER+cfPu3lsy+YsClwOHrKP7kn97PvPiPNl/px9ldAEbPynhs2PXzXbY99OajVzYeXPVsxwyK6w8N4tHGIM4rjxqAgBF3MgHCha9UL600QV47ssaMS203uoxD6dAh+0Dey976frg4F0t2SmihbMZ3g3ABk8OQxD+qNEWN4MCNJ4SryxihFQWsZwBSesqCCZAltO3RQtm5eu/4o8PLegvPvmQJ5/aX2JjOlNZhAsFDjIYGT96zewQqrwTzePv4OwhI+Pep/5D/PnPOR/zebBmiftfh0Vjv1N/70hY8+ff+aj0TY1Fk56quCUI8MdxpIWC6oSXkQXJYbivA8UO8EpeH1MKfP0NhTV06aC5oT73eDHyfqi4AeCUBcYFPp1Cchz0EqoWAEZI1ILAT8HKZrIpfBhSXuQUfzAAmWezZHHRyllqSTapV9mVWzFtQ9cMo5h716zCkzW4LHQDD9B/f1g8Hf2774pjRTomLRZ9bc7Wz98/X/+ujW19su8MnOPDOdU2LBRtYDeuswWtcRvX8azy0USfGgjcVBDBzYMMoiP7sIV3HvEKEaf5DmKy2KxqioEIg3KMcckG6kWMf8YXWxUNvWvklhu1ZT4C3TuqfqfOoVP54PzmnotigV9FRkrAqGERmyJ9OfBQ2Gr6mvhdeD7LRWdvJAwH+lf/9jDx1n5+Q6jUIYBNEU4oofZK0Sv1IRiVPOww9yQjUSzeb0hqf+23cgnuTpffE0zlqn4QdfeuCbLz2+8V2TYgdOTHegwTx2scLHlsdHXAuXCvcIBSRMWuF5kBLxlLaYBbIWiFFVfGgoc2EjfCZaE5NACaoRWGY+tMNNAXILKC1QU1kzCfcWRXdATMkQqlkQ8aWlVBJWS28+0NccaHQePvXYwx4+9eyDNsy5SOq49sl9MYLDf845F0qbuhY5N17/7YfyW5b3XhQKNi1sb92m1kUmM4cgjBC8nOrfXf9cqZfCY0eb8thpiMQaop49JCxpjgkRR6AGgksr8HhlxUnV1ce9nNHwD/IoOuPq5WwSM4MRVUIRIbETY35FS9sRdx9HbJR2+eReGJfWDqWICV1p6nUvLdpSj1/tlAfZOYTVy/xLX1x/aoQdGCNFQdZL0X33kqnlH7qiWSOBYOaoksJX9+xjS88AmufV4eyD7vQ4WvdSNudjb7/x+7nO4BGNoXkTO5r7WJ2/Dp4HWfqCJZUfNJueR1GItbsJbqE2Biw07ycu0wZrRCE8k8l1sXCA4MKgSclYqNimogAoNx/GBXHiLBgIAmGNpYwEUzSnXYkYW5vb1/XNmlt/34c/ffEDR52tb5anQZrePGL7YNAXrjleakGL4D995wt/q2pbuyFc0zBrVrYffWEyJquKBJHLQQu7At3bjp43zQDPIwz6+vvjiwSfppdh5tA0CEWXJDh5XxCCsOd7Z82duRuM2/64y317DdQxqLd87fWjZCMQk+B1UIKYbG0B4x2/CkTIndL168l1yoGKv4H7Hl6aUv2/h146Hl0KX5fiA/NlOymQzWvAwJgP1wZ8IdnsB24eIRWiPeChlELOY4yEsSCoieE2mfXXvfrs6nOffODgZyH0nwalyZBDWfA64k/+qf3Ye//6zJWJbaFjInJjrSyHWX0oxlR4FclsDwgSqRc7hRK88RRQXUJb8cB6wbvw/D9R6OfNg1AeQ5sLFOixvmQf5zeLRGpY2BdhiVQ/S+QAvdVzTAdCN2l1dMix/HoWzC6eNLvq4S+9/zMrDn6/3nLDJz6wb3f+fjh7zYlS86q77N/+7P/9rSHZ3hUD6qQuGqwBSzPqWXjbU6q5ocJNuhlvrD3lIfIjo+PYdTKf08Eg3k/ULRISphSfpBofNITL5o1UZuFBs0eU/22/jF2eBVa8uvZY1Q6GrBwh6lDzg3XP2Q8Ga3ztlxvfvxcRVTEi4kFtr8loJfvJNJ3gmhUtxzs9PA8yoNneTgpk3Yp0U1ABAyx4lySbKozJShYPIk4nNgwPm4lgfdke9CTpvgSbM2Ou8uqW7nm/+eEd3wqFPno1Gjm9Kk1A4ncQB7S0wtpZzS+/8eQXly1uPad3uzRvYs0CX7qbepUDWw2BlMxkWDTUyJJptJPUvQGkxCf920uYe2gnynl4h+cN0p1TeBFvQ1EgMApkWGS+EKooEZrqA+ZVMcHKidPbPuRGonJH1und1p5es+aU0xZe/8kvXryy/nip5wcPDWJgRvFX5l0kb/zH19b98YFbX5rps+J1FhrrwFRnIX8IveVhS/AxLq3Kp3VPymO05QV3ViIWQpGU46IqYwpdEQsvkNbwNPOpQFDZMGNOaMwn0XO9LNDblanVlZqgBXVJXodCvS94CGu8axBvDQvZU3xRvhyhawCvDEtCeCI0ads6Vr2jAhlgPpHw27y+c56Z0WstUFHoPhpq0kRFq1cUXXkoj1EsFfbg1kgBhsDL1La1lU2Kzwkq6cYDf3j1rb/81y2d77CWOxOA2NltR66CaG+Bvb7CmXD/r1ad95UP3/l/a15IvTfbGj5kQnSOr78N4QMlCCsQygBKIhSJs+ZUFwuAp8mBIrAozkhEgRyyK8bW7dyBd2KRpZoLenm1CWQRE52IQA0N5cjAMs3lCcaHQhgV5IyhNFMivW2Wv+UVFt7+txPOm/G5vz981ZXfuuvcRaQ8hnKt0fzdU98+c60atrcpASnZl+7mngdPKrqeR6GIU2B6xWtU8A8WYp8ldgatCSEYPSHJwQBIoBPJpKDwsBOzZs1cEpo/8v1v9vW62LKxNybbekCTQwioUP8cgs95Fdf7+urlcX6+WrhcL/oUhMxEeTM5C1pQq46vXp6bvOPTDPRATObfurH9UGb6qxVO0gdXlwst72NUt0mNavjVXOE1umPAbzV9hKSRQcAXgCBO9qosXjUz2peNH3nb9c//6PlH469d+aUTr7NWOetk6pEeRtfbyECJgeIkzUkxf3cba3z+X7k5f/zNvZ9MtCgLpFRkWkiJSwEgDtJg6gjrPs6EmgNBWQ7NfLRAmMWCtay7vx+JWireo/Xs1WB4YyugumQFUMJcjLLneZCyEfUbNlBZg1UhVHnt84PVF2XcKu7DkdP9SbtlrawkXjz2tNl/+/CVZ6+sOkHq+fQfy2MTDOUu6+ewtmhtcGU2aR0dDYbDVNhJIUTOoeWaUQPOX6iHGWWU4AM8UuxhxEPJCyGlQZFSkTKzTHST6j32uCOXsGeGMmrl8d2lr75ei2Z4cbC2cFABsT6M92ZSA2fOA+KU5Lg5S4XLkYe1Yxl69Zo3ts5x+pzFaLpXcNsGKpAs01s2dc0I+ut1KWeyNNA4Cix0so6JtoJqbzy2UlE7UL7KQwwgyL+BOgLoBpQWEZbsg3BXY9QvetqG19rrrvnU3bMmzwotn76g7rk5h05atvJhozMUUJ1c2pJbNjbHbv/Zi00b17Uctn1jYkHHNmuOZtZN9du1aLKuMxWUJKCIQvzZ5BQfGYStSBjRLk4mAack7ycS5nQlpVFAUagpxpXPEv+jmGDOzv1mHjevli7OB8+rcAoal6zBTZbRZ/gy4eFHk3XnupkWAXuK07vVZJ0rT3/7Qde/6wNHvT7hLKnzC7eXh4AYjruU6iXzpVuMu35z9YPnSoYyJQolT2gsi/e8KTobnPaFFL43aSMaASmCLARzO216d2VzRSIw/hSSk5HLBOqKp9WAycoqwdyWOYcGmodj7EbzOdDX23fdZ+44LJ/RqmXAzgMaiqsBXiFWccHrt09Lv0bz0HD5ItaxJ3OIh4Hoi2iJk3RHkSHVhEAimslsrGdb7xH48534QiG8P0CBZLezYM/WnmkxFLhlsegUDVQPbpUuKQ+xk6gWAHYx1icNfTkX4ZBwzboWm2WheI+ENor3QOvEdKkqZPeHF7a9ljmg9fXtZz57x8Z+PDslJLjoBcQNPgUy8LavWnLqfBGME1U0c1pk0hOASxLEnAMQqBc1jZWb9OaRaigTK4+QEXcT6ZTkVfAvivHlYp5YYsUE0z+KXojwTnh3QULJISFI5wGvCF8KMoLcFu4D+UIoL4sFomGWyibRS4QWA05o5Hk4zY/aSUvpXG9FUy/OmFt773kXXrj45Murt175l1G97vfZzR1+orotLyUyfr3eSmezSgDGBW0mLzrM55JvOlLC7m+HgoIb4pPQvVEXSr5eVPCQoeCTtyl2i8Go+FSXA/B8QWeP8CQ3Pojh2W/3SbG+1yYsYJ1DvIVR//XsFlazenH72T42v5rDmdHR0xfSABzJs2AgBvnm9U8Z9Y+yT26QOpPy7DYh8wiyzlt1IA/K2zwEeCsGywQ3n6yEtq/eMosZR5CY3LUCWfpCx7SAQpVjwtOwqe0pqhGpsY4G4cQFHQlFtzcE/wwvqtonz7bPT8o3HkdACSnAQ0FkooHxmWsBiyjNg5Q9rcEgoHObZ+GXuHy86GbHIFKJJ8Cfwv17yTh5Y0ahBVHRLDrqiY+UNHHiSsU9nxee4CaC1/2PlAc+AmuKE79T/2u46F4vjSCIA1NJ1HVA92WRNIxX6awr2coaGmM9Lcn127UG418f/vyFt55zZc2an1Dh3zg+pAiWNgxUbBoLOQNFhDkozEn94ymQJWhNipbbyBtQ3Ot0vQ4RXqY6IvwO/yOjLw1etQjWgGGjkyVqeQwYD2mzt/msU+c+qB449ilMXnmmZ2auLzA9IKGrGG9jg5oniqkgiU4tfgcb/h0L20Q0R8P/UTSJ0Hlu7yFa35Sb5bSiyJsRuTYVD5spM2ZvcWPn7gAUPBAUECo/vuzeQ8ENVO3Qybi57B6cJ4WGeqy6e3ugAen5S2NNw7X0IJxEhoPG13uRYCLB4CZrC/T5Alo34LMwK2muiFadKxAJXgjRE+B3KqwKI5NgNSBpzKMHh61kWGv3xkxskrQ6E9749PHnTPnHxz5/+vLIodIumTbHwibZq2eAoyhLQI44CDZiKqgqn/cPF6yVJaeinwXQYUQPopXxGn1xxgLap6I7lEBJUitb+gfWgaWhJhihGzXTbWu9y89559Hr2O9H9O73+cWtzY7/us89eYaZC9YqAewzaieAfKeJTp+8GyVJxgF7ep/f0ii+wED5490oj3Bg7auAgKey+aqlr7VMwt/avb8XQ1hppq95Y+OBsrQgwrvI8WpoYYHtaGHzTqTjZuB5wEmMVyFBOVx2i3eeXXgwnvJwfRKuTArXF3PC+5ETDTmF3XisBQWA1PoVoQxKvNM8hfxULNkL2yLDJC3XYQc6Nvga9L9e9f3L7ppxjtT6+T+P4jW9v28tSUFfEMyg6anGC+0gjLmLXzo/wvMTvxF5ppE7yMgAYzP3ov28vsHLg9FyoOxXwKeCkgb2gYrAAhWuBrKbZs6r/ffUc6Xukbvv/XTlHAtuWtO9QJerw5TPEntY0JeoKJQd7UWg+36Udli73lrmxrL4G3XvIOCBIExVwi++sJSQWEt2UiCZbhZAVXatYlB0nkrYEaP3Br2gRsZR3WapYCgoy11ZnEMTIBygUDhEmIQrLO6BeJ5RifIodZZwj9Qfh1cXkxuKgjHyPLhVRQlgoG+y+QTyLWkzUG2t9tVnH7nifef+4bQLp67zzduZWXPfL9jRfYXtwLnblhaidJIFJUyJLpoNz4ziABK3wIqehHIMe+C77sOHJg/ELWbkHF0wINx+PWLJoid8LoXPIMxJLXz1jJm0O9ee8Y6zl/zsiX14W6Pk1K8+bzRl+rSpKouFqeUxmVwKen5bGCMaH2Ejj7AXORrGisN3xYrh5QRceQjDmfoB+ZALRKM3KF1faPnStYcBffqQ1CDkR8ED6WoD2lSKRPMQPMqADjPe9tn1k5Zr/mOv5q2Qe6ARdi0X732vTrSLDxfOXbqQd1zUxQkuDXPxxDq3Dig7RfNJn4PQsyBUoDxsOcuiTWpbX65nna/Juucr3//oXye9U2pn3xjqTY/N77+yuGWyZPnjvLsiEooq544i5e2l0YVQJng7p7sfrjUwyOEsIK/cNSRqVYRB4u3LLMJwMXS47Ee9T9bJoKQuueTIU6aPffRVr6N+8/3/Pd/K6hMUA4kt9NYJoGgWDaUY0LzCoiZOsEoMq2T1eR51SbieqtKJzgTjpcqar3V7zwKzD+6uy8xbUCAdrckoPJCIgljqjsj2YviXtNJbK5RB7oUR/NqbWSC78Cy4uUmDXPI+RC4kDw7qOoxcQBUEwADB5U1uMXZIAACkuGAtUwkiQTYh2KA8JNS2MN20tVB2Q7u95dWLrjjpe+++bO5yafaoqHwbwbl+80s72xz9mo89crZl+GtJyPCQB9BthPIUyUb3KPRNoJ89xTJyViwvPuWwP0HEKdib6dZEvlJVA9R8EYi8DLAhiU1nvOOoB2oOHfve59ZX2MRVr7ac4TOmVEmYQPBuc3ZZIpXkJNfcMHCncFSuyJG4KW89F2UMzwFiL6hE+W7JfsPSGztbWRR3l3CloLjRRI9Vk05K1YROoEOQKNIAuyGVXSaNR27jjMTwFmPhJbmLIcfAvfEtCVcVHo6UBgkEsna9F/3svvA56jdOVeqyAsVB/dNB42Wp/Ukp0rNEre+563u/v/zzF1x3wLKK8njrFWMlWHzN8uajHVOJEgMpsVyQ1TVAeYidIfYEh8qWRBlHZEHS+qB1QSYfrR+CctOmhTnhLicZ4YeeBBDowWxHtEF64qOfPmndiNzqfr7okw+tOUi3a5o0yR9Q4aXrqP+g+czmCYFKJIHIE46yGtD9PESFyw1MZ3vhK/Fn8sZNKukg6hfDQYY1Ekx0s7j3ZS4JgcCSVi7dOC+gVsXQ8pH/jTDTLuVB8bmGLCxHaoiG47pcm+7wGobz8uQ3vQh/XdqWXSgPFQJAAZbfoe6BFlY8rGNVD1CFIqCZcMuBNPbpJvyQHCrKke8IplvkmsQTx7xjypd+dMslP5j5Lok68lWO3YzAU48kD7QzviZQzqBLhuiDTs28CscAAIPomz7iB1nUefTYA02OaWXBcSWB8YB6u4jeLSZZ2SgEtjUb9Q9dG44+dc4//QcApjfGD7Qy9i9/ef3bVDNQJ5sELEAo0kQ1PsbDB0VCdC7ESEzvlUR6yWLwciF491Y3eWx+P0hfwQ3ngHBVBiFle3OOqN35IUxp9BJCCOsAM6dGqJCuNOIrQipkzriaaeTbr43B5V8ijApRJhpvCb05crwvOvc6qIcIrKkUGALQb5xFoiBBNPpZ1uhGXLcvL8eSq5x494PvuuKEL3/0pkOfiRxVgefuyWIB51n8rr/854O6HWkwMwYUsur2p3fzSjT8bhhrtC1/XUPzK3gcVP+TyfahaDCLxmAa84Mgk0AAfWmwPkelDjnS88Q7Lp07xO7zezKaI/+ZNS/2Te7Y2jMbFT1xquER+SACpRTLEISDNrIQiJEfKUIUvvkY0F9EPxnRO4VCu6oTDrZu6ytwYgkFguZcWzZ1zTbzWoBcd0qacK78Acn0kX/ckb0DLsV3eA3HHXkhLE9Rl54TlcSIYedgBcAN4VZlD2jgfWGFVdWFWEfPVljJeRaNK52mr+NVvbH3lq9df8nXz/tW09rhuLPxcA4iEP3rb5cc37y27/iAFK3SgVgyDVARIO7rFJp57ZwP8xzHkR0j0mq4X2xwSvjrGhX+wtuAZ5pH/48soNv+KimXUdpXX/ihE29pOGFwDNMj+4x7d3UwaSv3/2PRsT1tqTkB1Q/yRArnEUSRSEnJ+RJoNa5Sxk0pwu7GsNSbdh0FTouDdQVWC/JCSB+oMqIhLBBb/8a2QznruDuaqDBkWk97uklhIVSvChevQDbGd4p3AW/ExYaqjL8Y5H1ylIQLqfE9xAKg/GDyDcEDyXWgmnwbC9dItqn1bm5LrV966CmTv3r97R/89ey3Sx375H7G6Em3Psfm3H3b41+rDU5uUkBFo8PiggZh6SSEL6x7Xk1RWOhefHho0O3hHErKnxvUehexago1yPA6THCWZxHSkv0my8odmxpmaHde+OFp4yL3sW05a3rl6U3v8bFYTAbfkkwkpa4HQspVcMNR8W6hU9hwTscYPBcGD8XKKpGKcjc8ENmysXUed3s9BdLezKpsQw2ivSvv1kW9EMRRtI55yTsXamLzjJ4ttK/mrNQzeLN/D8e1S4XSzipZBneRgZ4UJnIcFksBitnLlCDRriczXZkNW8xwz1OXX/OeK79y16lPawvGfnx7OEbcO4e1xqn+zXV3fSYqTZ6a65NDsgEvL59joYDOETuoSt/ZTCqNYQ0wrobzzvb0XLSxiZZDhJizGYQ7wUOkEU8gSDwlX641JW18+Z3vP/Ieafr4QOA9/9jWw+x01YxYoDGWSxLcmgxgztqHVyn1nwdGGfuS7K1Xkyvb3OUhoOFF2c+LyjFE1HjOBq8eWI1ZX1e6mljeC3pg7ZqtMV0JqugXzL8tvuQS9ZXItIrL506F53UMm/dRsoh3CLJbwK/rOhEtgsvK6EVtRwJcRu3gA+5e2zDL94+v/vSKa868pnbNnoqcyufECBgbneCfbnjp5FWvtp+jWrWTZSOIOgGAEyjZikIzH/4tEWiBJxZLucnwZW5I7SPPcy8miIpOLbQc9mN96EiW5/Mg2AS1iS+I3JmZMfsyndtOPHPeb0//dN1Ovaz34jJl81F7nRN++vGl7/SzukYpF2Ea+iDJ2DfU04LPIRENuPAH0X8HnkihG2jZPOa+u9EBbBd0GdGEjPfFwcuidtegxEGEN5JuY8GCAlm1YnUNNkzMQLUmVZ+TMiKuGI9MbrQlDod3BEs9gF1YI24skIeqvBdPyA2TAOFuoefdeU8mcP0kpFJIlodimCt0hpT0PKuuD3TnrI6tdU3+f33zRx/+v4PeJ435orDhnW/GMmud4L/vfuPg++968nO1kZmTE10gmQzXceNJB5LJRDtbAuhwl73E1/aor4v3M0xrYNAPSOEqVJpTTxiisQHUkrivsohJ25LROnFa7UMf+Phpywd9+jL74r/uWT2ndXP3gczwVxkZdNrkERUoDxTUcrgzMYt7B4fCUy+e8R6IfzNZJta2lw+nMJaCNSaDXBfUScGNG5MNBQXSsqVjAT4YykO1EBMCJBVcY15twyFwoneEKCAsujjuTAyXIC2zxSpudxcCxLVY3/pxPEWFxetmY8kS4hYSxWhdN9IGnUZ1NMZaO7Zwq5L5Mr1rty/Zetq7j7jqBzdd+rOm86TWshy2EbxpJFm1R+7Zeuhfrn/kO2F7xkH5Xl1rrJoCqwostakkNgjCV0hG51GJThQggnNMkFvSS3j6oqna/pA9pcBxb9hIkfH6FEpyalg38JoIq+8ApZdHsLMv19kbrHeWnXTewX+fcJrEC77G+mFscML//PND7wmr9ZP8Tpip8B5NIBgJGu9QD3gquqX6Hnfuxvp47MnzidyQ62G7eCybU+OIcgK+9tyaKGoPIXMDhT7vaJ3buqvpMzwo2NecnuM4GUnRoa1tuO7YGXlw6BAfFq9ydV12kJRiEor5kbFBY7IbK3JXtS80spzGguS/933hybik8CUIjx3PT+PpWbZED2CzDBrdqOAqUtFeJAOPQ6EwBPS3AfbUbE5CExwoFjXbkzLbVpz2nkO/9uGvnfCyf8HYb0W6J5tgbz6DanPfQ39uOf6vv37ie3py3nF+uQG4dlB8pNHsC/OpoXNknvoh4FCQe8JfuNKgGRQcWKRIxLx7oY8hA0Hd/VQkFhfhMV6k6L6XKg5iH6DlQ+8KGXdgHtCxbnKwEInC31RsM1CvrambY97w3h9NWL0341POn33hsa55PZvYedP9sSaWA3SXWBmgToUfD2WCPSVIrUX/CwptkTXAWa/H8eEpEbGmaCyoPwqBD1A/AyXM0VcKygUAytBIKDkAl6iy/sbL62fhg8/KzuuwY3JSDAOJanVsFpyJBpxOTDwxpQ5eIZU83r2+HZRKqSYXa3FH89QbuZ1Xah4QTOrZQUWb2VwS+Q4f05AFzVHCipSIBEUeznR1pt9Yde57j/rSV247c1G0ojz2esujuCz81+tfOfmmn935I3++/tAIm8D8ZhQKpFgnIEDaFCcXcFivfQHNr+eB8Au7JIpDVh47PYUgZ/Q4rsQ9uH1fhPoq+QZFA2yE3FBESL3OYTlaehbbv3dLXu955Iovv/PZvR6kMv2Cs9kJ3XHLQ++bWDWnCtxXMKBJuUKKUQdGYi4rePVkDLhjiNCWUCLjW4F49X2iNJZyfeStUdGlWG+CF5FIWlWsM2KoBqTXtHz9XZkJXB2jz4xqGA6yh6UQhWL8ayCRXJmusH11264i2TkRV9KcakB1OY2rl3PBZHD+KnAVIflpo8mXAggmhWypG5iihpjmt1hndk2b7u99+tIrT/jmhT9Y+Ma+epSxfN7UKqfpmsvu+cSrgHdOjC2clu9WAxKofAzAXTHSI/rogtGX1oRrlbmhYoEcovi0gE9KhArDOy05qgdSXDqrHKCq1GlQ0vEsgcR2PdD9wKVXnH3T7LOlnhF9sP148fv+tmz+xtXtp9TI9Y068hroacRyYGXwg3mXES+cF6qhcYbCEG2dyUOBEh4HeNI9m4pdA0MITGViDOk9D0APN25sR+/o6OIKRAZqUbfzTkAkDQWduJd136nx/LjX1ruaCjfEN8Ar8aBx9L5j8aGXtBK2EFV65oHjJ7IyHqoC6oF6qas+m3Xnt7XrdYnHLr7y5K9VlMeebYPSTzn9jvzGA87sj1/422s3Lc2/p95/0LxkixOoCdVDrlA7YREjH9HDzTHuDN8QXUeKyEexlgiWSraiB8ql1tNg62C9+e29WXnrs0efNvWP517duHVEn2k/Xjy/2onfd/tTH4n7J9dZGUWx4H1IyAWRPZxHbmhg3YfXPbWkbcIoQNPtx+Haw0t5q1HIMapC95LpPJEO87avq7+KeyAoWNUtU/FTUyI3SCgUCE+qeNbyHl53HH5M9DEvPnihnwdfmF6QoyRPUoh7kPUDb8NCj2Y/1R0QDbvDIbsZM4HmPz3btPqu/130ieO+885rZm8ah0M7pEdGyCpw18/WHPnQna98xmirP95v1E4IyFUI+aCapjeFHBO1duY1UiNGaCGS8+IxqWWut444w66nJHiPavoQwgr0efo/aBVOcgerMFwVYR2pjY6/Nv/ypAMCt3zyKyct+8wtQxq6svryfX9ddYjREznS7NMn1vrqWT7DOJDA7w+wBKhdZKDqeH8LF9xC3odEzMU8UUwhexROl9UT79+b9ZwI0WSQuPh4TkTO5ayQ8xJgG9kkC1h5yU8LEgEV9+52jAtSj22+3QporEI8dlwTLNKYeNpDoNQKrwF1W+647kDPLoYUCXSgG7JZk/nQPU72Wawjs7a/aZryn0s+e9YPT/tcU0V57OWesd5wqn/9tWfevug/a66QUjUL42pTzMiiNgL9wONBQDuhRLKEuOIVUruAbu/l9Ybj49SPWhykPChO4OM5Du5vENsyakRFB0pKolNohlh4waKN2qCs2r2qboJ9+9ev++Az6vzxUTBII9X6gtN49Qf/cFmETZuZhAGcTdlgDwhiS6GRFuZa9/ugdimRTgrEHVdSwhxVOsDuG44pHAPnKDoMJKp4J2eKSmHAqDe6Qog/l2TUtlQdeXVdTfSyiJlzwjp4TiTUflAVus3hu6LX9lu17Bz5jmwjP2elGCxxN0LJFhBqOyiNAeNJAgKxbhMLXgK+mpAiptbVPHVB4KEz3jfrOiiPjSP/hOVzB07CkZpfZDOu+vjtn9i23Hh7wJw8rzo4iSW6MswHr9rnB6oEHl8WzZUQxmWBQBj03qgRGMEwRsFjpZwHT1hi/aC/PfrAufldQsUg2UtcTlAyDrXYtUmB6Ph3nvXbzZt89ak7L7387Q+Fj5Bgf4+Pw9riqH/65UsHJlqUY2RTrq4ONbDenjQL6ODYgNeRNsizxzgiRySMXaI0oZIE4vhz7eDxDgbio7KrPFDpwIiicgqz+0CVkwNLuwx0luLoerqfheRMgkVNQw6qTAMc0CUZI0w57wdSGt8vsa7pwuPe83A3aoFVz81tlBqAnvIo7enBk7YuDw+NIRQ2od/C1Tp4i9q7sv6ti9/+kaN//K7/d/j68SEKhucpnVZHf+Iv2w+5+orf/rB5mXFhnT57npyJsGQ7lAdDiBDhQY0o8F1iuKq6etaTpN4Qo+nYMeQpAKc8pAXuOuGNUASLKs7z6PuSTITqsw+9/4oz/nDC5fVto+lJ9vW9dGxiU/5715Iv1AWmNqhWgJkZizXE61ki34v0ONocBH0snekXKKsdC3a4IsGLtwGuHDQCBNDwFK03ItwLgbZFp2wYXKIi3QFqlOeZHF0DKXhQ7WhhcwJaTHfQVyCVSLOwLwK4VgkKqyTAz0/ILWy8wHLJj3GfWHd9EJ6MLYmmuhNCfTyout/vQ6ttaG8qTiOyyjxajcZjUZbLoBktar3aU6s6IpPzj51/2QnfPueq8UF8N1xb11jpVN3wrRdP+/ftz369zj9nRpVaH+9rS7OaYA3vkyKjKJDCt7kc3sEuSnxvPYkeoNxQWEax3RENgu8YLqb9RQgs8jwUpuF+M+kkqPurYWuksZYQykJ/D1nJpBy9/YUjT2v4zbuunrJtuMayHM5jg0ngy5c//Bk5M+FAK61GdArnwRBLpvpYkPp9wDPLIzSs+Si/4UUEROKc+yOEZiNPjnueFSVSOuc8ulfiHJDiMIESDSCnZKAwk9jBmQL5lZEiJkpD5GSCTbDySpCKbMhV4Ql0d0eRHhFWj8dISok+UeTkao/KBPCBKBUCpQlzagiFUIk/gmLBPGKI1L+DFraOPtVR1tHXAj2cRzQi2aNX9b58+oXzf3j+1+ZUqNj3UIo5HY6y9j5n9rc+ffdVj96x5Nop0UMXBKymuJ0KstpgIwQvCgRJqXOBTB61AC7wbBXHu7tQ2T283j79GKeOJ8+UBB6UBEWj0F0yl4eZF46zvv48SDV9vElUd7o1k9G2LZ17dORHl3/ppHEH7X7k3q3zmldnjlfSVZMVeB8i4OI2+eKV5yJB7u1LUSxIvyuZbz7WIwvh3qfraS9OXgiaeEYveRzu98ngpVShOLCbiCsRTeXR3M6XQ8RQ7e3MznYMFSyKgLjxAaV4PDixKFboeiKi6npHS2kv7nDcfhQ2D2KwFjVjQXEg9WhQ/CqotmFJggTPB7ZwU+nt67O3brjgfYd/873XHTxueIuGuiSgPPT//KX3qIduferK9g3ZE2PK1ElyJog4eIpFEKoKRCOoME8TzqaEHoaqtUnA4OqFMG8pQ+tQ72rvv8/DxHRQ4yOylzmhMhBXlPPAjWpqjKUySRSb1rLOdCurnxTNykrv0kBN9x+//P0LnvPNG18b01ntVH3m0tuuUNMTZvmcOKxlymEJAIvNc4pkHLjtuGmaubFLskvUfXB8AheFFYTpblcr1czQWEKJFLYLwn4Sim8dR/al+llY7u3JzACiQ3fwSx7jooHGl/i/+bdKXDzufQj3w/NCxg/m462Gu9QNpryRF0+E9wblkUdthwp4LvUvl1SDJbPtzBdF8lzvTfUpm9ec+4Gjv/reLxy2ZLcTWvkAH4H0a07drT9c9/abfnTfda2rrXNr1FmTAk4dM9ISqwpUwWKSWFdPNzw9P4SFLjiQCA/igha4X00e9wjn8YQn5OU5isWEIrFO8F1wXFGxo2qznnQHC0Y1Z3vf2g3+hvxtP775w3f4DoGLMo4OQLO1W3616LSeLcZxLKNWK1R6QOqDk5wKuSTQosX9J36ikl0kf7kHInxQYtsQ+aXxfewox0X4SsizQiwFVO6iRpAcDJJv5C0DgAUFoqb6spMUCT08qdrVo+wtdCN0vzCA0IRPmZgk7pkU20SOz6nwlAe985ifO8ji95KqINOksv50H9qMMt7Pg/lSzB9TE21dm9YffvaM73/4Gwc9LU2sqOI9WT9oPxv61AW3XtWxlZ0VMiccEPE1+PIJoqwAphCtXEnocsg/xh1gK45uI/HhMSlz54PLEJ+rQEbWsxZ1RLSXxNMLpUZekbuvwE6Qy/ex2olV2bbkhvUs3HbfN3/+6b+FDgfHzTg7Xn44Ofd/9y+7UjObpvipjiefZmDYcIsF3QwHhzm7IorPvGf00mKgMSUwgud1eopmZNfAyE6j8MoY+p3vFGVyWRFIL9i8fkasUyr5QL8cBSisqJpIZBpA0at4iROymKFw3MrDkX200X91z9twlcYuYYEURKHFa+D/YQVpOcS07eyKdc9lz730+N9devVJz0B5jHA59OgfaaCslP/csmXhh0//w5eUTNURE4MTZic7bC0PLRHQ0EnTR0SU1B8+z4KA5/r8QbDrwuNz3W+xvkF5zpUH4rocgUP1TSRwRkqAFL0OsXkJeE+/Q6KfiNAoT8NZgVP5rN2/PDohcfcPfvvpGxtPlPpG/4wN7x06a53Ylz583yd1a8IMJ+OLxsI6S5kZjBglyj1vwq31cD1LIsCkgkHeD8S1p934CX6CwCSF7Snq4b3dMj0brb2BDoEoJKQ6EAJu0D+5dUZ7SUomrZia6s8ExC8QFcQnbKCDJGrruUe+3c4XLNORG8Jtex4IbX46TSmyA3UdGE/KgRAde9rqY3owZ6r+7OaZs+sXv//ykx6qO2T8cBYNdpDTy5z4r65+9riXHt34BSXddJiR1GsSNgrF0DHQHwRrLmo7+pO0bjUWj1dzCou+dILpAXgf+Dd307HGFSDiZMQ4RPiK7sYh9toRFSFcdXFLj0Is4j6paQ+xoRKpHUoebS2YXaWGO+/4zi8/8afG06TewY5juX6vb7UT+OPv1p62fYN5vNwXnxZXwizZ1y5g2ZyinZQByTCSW8WCQZJpHvKKKGs8WhhiLQYjOReGBKQYWRTe6J+VQk8QCvmRB8K52SQFbZ9r1FzaUCSTXBPocYKYuhXpFBTwuLH4RAygPXYr0/G7/dETYXQPcdF65Q4IX8BQI0Qf7dKcaKjgNGAtUavRrNWxWVGTr133y899v+40aVx0ihvK/G14JD/5h1+996IVi7s+VK3NnMusYCBvOmgAFQPdfRYV/OC0gsHj14Fww+Lu70NtB7V5BXjdAdW5186UeyAcecP1Blf0w9FhU+QrhBExkJjPg3cX0UBiHxWT5iKZL5QHv09+X8KYo/C+rRi27M8vr56u/vHz1378H43nSF1DGcty/e72VWzyo3e88LlAfvIsRQqDfNRgQYQrybcXOB83ElASARCcYTS+IsQlu/QwxZyuG7op10EZpvvmRLAU9oO8coPwhf5PxWJo2jciSAKTi8gU8ZK0XIbVqEbaRosQQoBgKyDZS53NLK4sRE6EECGipY5rYROgnn7iBXSjCAY5TAO6N6ch1AfR39NBkVWxXlVu1ViYEBp0wk33JrtZdRhFbWZrf97XseELX3v/tRPeLq3bm2uNt8+iPamycnFu7nc+8edrlEzdkVXOjLks6ecQQh21ESn0UJGwViUoCo60orQohV5FZIKHqYRrIZKCHMrpInAoOkSbg5T8UA4RX3fPAcOBLFsPscjRVTwySeFLhFHc3Bh5FtzIoG54+L2iojYFVOwUIlB9PpboTyGuryPM6cv0Gc1vVDVlbvroV867e8I71I6h3Gu5ftde5tR++YN3fCXQG18QkarDveBeioXDLAe0Gg+vEEsxnwJaAUV5xDnDyAh2dyftUy98JQQl/UTex9DWQLmOq3ffRS4/Gg8XCi2Gjkt9zpABg402FofzUo4RtSHhQDyT6DZnqLtEouzELFsyTIW/je+B90ZEdnPfwrUTfeS5tHCVawrJ83gkwiwlZZpSYtP7Pv72a489Z9K4afQzmA3mbHX8f/npkuP/d+9rn1EzE49R87FGZviolSZvokTpiwIU17NA3Rj3zuEIL8RId1L0mF0Az2BubxffIeXkeiIulJRvvwL8vRRoITamAFxA9YFywwRViaIFUOuRYNV1Naw/253qMDauqJ5s3XjNz997NzpP9g/TjZbVaZwux3/TV54/t2eTcVLYqarToHyD4BWgdtspAyzWCE8GuJErxvNNQ1G0L7mXUnx8YjSuHDQCBcQBX8NF2LMYHSqE9lYs/7RXU2UDG2jKkZEFwZf5DIpF6AoOzl+ERSoTRbgBQSdcPgumEIC7LC+3bZp+cNV97/rcgpelxhHL2o76Ee9a7Ez8/Hv/+YnOjfYZLFl/kOJEQo5JbMWuL0Gd5siip19wxI1wwUfi8GoOxE6j+hJxL4X+MFTbwSGPwhLmvhL2K183IEiksLCCvGPAX836EkCR+cOsK9WesIJdL0ya6/z0i99+73NNZ0nJkXi20XDNh29tWfjEQ8suU/M1TVSLkMuDABMeZ574yywV1EvgC+NcV5Vjf4+AZVkq+LFCFQUyxJHnrjIkCSo9hBWKAjDqdEZoHxIW/oDMclpvs1PVtfirP77iRiiPcYXd35vhXXanM/3KS/78Ax0dA+WUb66PhakrKQSvsB49b4/bnNSFj5tLIytAuOPP6cFFQrZ4eLkOEUIT3g8lH6lYUBgepEiISNNAUamk4wxBo8dwuhZHJqZ//fWff+jpmmPG71ppftqZ+qWP/Olq1W6c6dOi0WzKAGgCQAgkznM5hNrhhehotWqiyVHl2HcjwPPgBS+PPBDXf7aRoTOMQEWBDGHsSX5xXh1OEibguhJ15qKgLE+mI16op7qzasu6q3/wwWsjR0ktQ7jcmP2qs8nR7vr9+sO+/4W/fMNvTDnSTvkb4r4Y6+vuQbKUOvFRLwzKGwhhTCwJ9C6opkdWgYgCxWLR1a4nqRguKYBO+HdkGBgRhGP6UMub2NqZ3frsvOPrf/qtX130mm/B+K0LcjY6oe9+9oWP5Durjg6odROtDDE6mKjGh5dPCCBssYAKZodsHkbFLrHzY3avjMSDefUf3rVFXQiaKJsmGlBUjiGMgIC1iR7ZsIRk1wIlpk/qKK9m0NtjXefFnznluwe9LVBJmu9ipNNLnOprL3/4Q0ue3/qhiDJpul+pjufzFutNdbOG6hqWTaLkoYDhIE+EktAUEhIeyEiKD6EW6A5o/sV7saeO+O3OhbZFZUJAi7SdZHrMXNttbH3okJMafv+th85b9YMFQ1iSZf5VVJsrt/349WOWLdp4YUyZPtHO8A54DPRxgMMTrbjFVFljPrSrzaNGRlDgV479MQJecyniTLRgKyOMhR6qlWPQI+A2F+VYD5nQCUCxEdMrYbII6WPoma2HHTvt9os+Pv9lKTZ+Lco3G+DlDzqTvvWp/17Vu1E+S002zK2qbZKMDJBrYPuMApGU7GtDsy3qfUHeBy1VDUKEkyZAcFDdkkdNMVIJ0WJi1qOAELTYdAxsmyrCbRTucv/OwQBGLmG1rg8Fsr8/66KF93zsxqPGFavurtbFi/d1HXj/n5/8YZUyb7LRb8saQlUKZ1BGp84sPFHkPohaOQ8MqQ/5EEQA96xkbdC7fHx/0Wtvzle0S2Pl/g4/oiPh+B6eoT+9TUlSgmsSzxWHa/p59bOh5Xrz/r51H/3i+/6izBmfKJq3Gt2n/pg64Lov//2rcmvd6X4rPqUuIrHezn6mY+z8CFsRBb6GMIVDFAtUVIcmSrxqHMlzelFbUhE5HCnl4UKBCUrMQ5n0tJTj8J5aeCTCRRIoLUH2J/IfUCgJQ0u87ov23/TeT5754DlfnzguazxK10jyRWfSF973/9n7DgC5qvL7+8r0tj272fReSQiE3kFQelE6KlUB0T8gFhD8CYoFRARRUZGiIL03AekdQgsJIb1vts9Onzev/M9373szs5sEkt1NZnczD9fd7M7Me+/e++7XznfObVeGWcMIBGYVQfT2ZGEhDN6RT/EcaIEC6HsGci2uxVllIAQDQmCV0qYx+76LDNxPKK5/5Fe2cIK4G1c2IH2YO06Eh+YD8pIkaq4Bbz7pN6SsJEsYTe2nf+dr19TvzFb24RRD7q3Wcst9x/UL9vvjDx+8MiKPmipnA7UWUhMWUEkBr6glEc7cAk03yboyGGR0SNjLlfRUiNojR967QEsTPr1EKCyesiLcBNVhgKgiEkcXmhqJsj8H7RcFqRYXKPxTWfR2QHvEgJPBlDRqHp3r/WHlLU9F8s6f/OFbL40/csdFWjkLPPupVXfhSXdeDQninRTNO9zSyOimMfMgw6R0MCZbQcealgO5JNZHQA2gkRTGo8Q1sCH3gG75DZUNyJaP1eZfqUEYOAOhorpKN0sBXqiZSaYEtbW7Hzj5rqO+Wfm2VF1OXeU3iY+syG9+8OJJS96Lnh7JjJrrsiJeiawwRW68G1voOID4RVB5wHgwCx4n93fIaKDuAcNBRoReSylESm2UCsbL7wuOgwJddRmwOw3aHTmgw1Tk5/0QEJMQ4HdBkyQSrmQdiQ3MFTJ0y51arPq6ng80qA///Iaz3qo9BDe2gx/6Mit0/U/fPjPd5t/dmwpM8MBxILEvQqiJ4MKGy/M5p/9E3kqQIpYuAt0Rpq0nCovu2U5l2dXfHWEUttk9mpDOVJk36IK2dhY9H+go9qS6dG/r8sNPnXmXNHbH0aj+siFe/6I1/KLT7v/FsndyF+gt4X29ms/rpc2XtC8IgMD3UdoMUOOA12nCgNAGwWGyyA+ZCkUeJLIkjAcZDUFPUtr0BdGoGNCLNkBVo6B244IhIWNiAjmWTKeRjvOz9liM+SqCWkZKfJZWmu/cab/6m//0ydmvlo0Hpg+6Lv+84dPDPnx52Ulm3DfZZUG5E1OswAg7LALcf+DzDgQ81gBFn7Ry6KvU8/9l636w/51LmxfVPhwDgt8huyU5urSD/TZLdf2g2sYm4YYRiXVBXL7aZWTUjhVf+cac3085gK0u1VUNtPO+fnvn2MvOufcqd7JxP73dNa7WXwUbkAaGH810vMHDbsbk0FyqeWBz4GAERCMUbXA6ENGgKbplyXBQYZ0oeEp5oBEQUQZFnqjasIAf6RbAU3JgBIZtBPsDUi4yUFZhPdmhbViohKP/OuzEPe4788bZLaW86oFybqvNUl7/T3o3FM1/Pqpy5qgEZO68YFamFHBOA54NfR4GdxAonUUNpCS2RdEHxpnKSzz1uaPLSWy/2SzqAeF2BM6TXq6B9GH8+eYFLWYLG6E7pLCMu2vFsKmeF0/5wYQXpZpytzkNz6O/XDb5hh8/cK2aHL+vV6qt9SHdk0gkURuIozCO6EP18w0hr9HACQ85Qgnf7ajE5pTixIXc54HhQFE9j+8tYRqDVCaJWkPBVw6cQToMCFSkISCGO0IaJmPEmpgv/Y7qbr/vnEtPfO7gH4Q7+rDkhtRb5z2bm3Lr7+6/ssY9ZkSmKxd2S27wLiGBCeEcsJQgFUhOAviqeI8Vpa9Euirfd2MTAA6pQRmAN+NEIM6l2WktC+s+WzYgfZywSCAIwu0YSyuprlh2Xcd53z7jNml8uShqrbLkP17x0q7/+sOL/1fjmTYnqblricCOgONplmIqvHMLG67gKKJUhMOC6HicNkMtjEdeNY2TYJGBEbTsDptuKRmhTRR0PYAco6kKiKEcfvYxt0tH4byDpRJtq0PDrMdDjcq95//orI8mHy/vcCJQm3u81rxqjb/2sgd+qLV7d67zVFZEEzHArsKA56IeBufAogiTpFOLCFs515xNjkn1MN7V/0UcWH18tstvp9Rh9z4bYTw4cMRwuVzp0mYABvkM0YLWQbFggF46Y8bbd95/0p17HFWxZJDfVp8v3/rU8lx97vOnvvNky01V1vR9k03WMB/QagF/jmnGBuiVSyyNzmIFqSxnQxANgoS6IkNCqSkhBuSwpUqA88oorioGfRHHFLA51PVfykDPhuaSX6zlqDsXRH+eMNOpx0PVFteMVO9onCL95ca3T3ujbDwKyyq31Kq8+Lt/ubx9rbXXmLqJtbHOGKuG8aBogzrNDRgOEwbEyPPtkwSxk7akbnQALFBvtGQ7pdXnFVv+gK0dAUpfud3umEoTQYUoSBQWfYbArYt40eHycVgbhzLqge7VsbjO5sR9HO710kGbGh2icYxQIoDuBoxo49jQe9/78WGPSZU7Nqpm9bNWzWXnPXjymo/ZBTWeKRPTHZYaArRZRgFUy0aR6gH3rI7NHyilaFcSVCVQE8yvMXtMxQjb69FZf6Lm4fBKiT86tZOtXf6F1wtKdmrwKxTknYhmU3ohIhqi50OsAxn9KjIKHqC1Rp+jydJmW6Y5vmxD/Tj5lgOPn/XQN66bXtZ8KZoeIK7Cv7jkiXNcibpd5UR4Ykssyiq8tVgfjMWR2pQJwRYKsmQiQ1wDJI4g1gLtUZyO0n4O+TwU0ev2fgns4O8sGkNOTmo/U5xNAyNPfVecNp9+j4gQzyDVLSXZyMmqGVddfjOTTeleou11yQjFAUt1AW8NUCKl9/FiIGIcpS9OGify0oV+28E9/oIITxxcRtRE/wE1eikQJiJWXTc6YJNpFvDVsjQK5j6QIxqA7dJrJWwYSanDzFpN6/afO+lftdPYDs11te55q/73P3v6/DXz5dN8RuN4mQWZV6HmSurroD4JWoAkWob1BY/dSyLxVBPli5bWleOk8K25W1pLkBYWUYPwBcjJQnp98O2IpDrJgHDEF6VMhIwIb/oTK0F0w9vWBA8OnqUMnhPqR2AsrIRByQ5joiRZSm5fk7Ca503as+Km488++IO9z6kDD0v5cEbAWGv5brz8+WMXvNR0VpU5dYqcCUDiGdEbTX8GuoJwJshJyKZjGPPi1EkhUUIRKUd+c0liauAsJ1H6ssJ4XZEbDhpvUnd0NkMKKshuZHmfE8kDSxLB6gFuwKSlsuvd/oi0WvUEZHCS6V6SKTTo4cbsCE0LGAlyC/hEOScoeOjCa+v+yPflRkryXtq4eIHOXog8EiNWVbovIVKkY6Mj40voGhpIC/w7JKGqKn4MjQZsv75KqbDePe3cfT+QwqXMp5RkBPMnfe/u2JgLv33jDz2pMQdHvGPHu7IhFifDi8VGXeMcbIWxpcQUz2WT8mW3h79HZJuPSgr31f/a5c7mY3/n+XZ7UTvPER4sLQeUFTd+FuockNIFc24oWAm9MKQuEykWCMKtUrqWJXMr39j14PG/P/m7Rywa/VWV8ivlwx4Bq9NS//iz5/b55PUNZ4TY8NEezQ9VbT/Lormy4PU6w7WptVAYShEFlg1HfyyugkEGTZBABdkMD1RjpNQhPRIFpBuRmtLzLIPh1OuXWuVAKAAODtL+FMLpxfq33S9Q+GN8JxiK+yRSeELfgYq3dm8X/Q4FPUX28SIpDZxJ3cR4jduDAUeUljJa2o49+cBbQxPZhv6Y0MH4GW/8rXn8ry//88U+Vr23njYnsJzBslCOqwrAo+TQSyp4Cq9RIgU5gt8i4iUDUkoPkuovOsPckuoaaaOj18TkkWeG12AoVPdjniXor8voP/D7LSCE8ARgoaRA8teRgDmslPUWa9WiNmnlM8edffAvfvzoMZ+UjUf3VayvtdwP3rT+wHnPxn7cuda1uyoFfZYrx7JyHM6vSAWWj4E7AoVmQrIPtu1GA1cg5G9TQ2HfBmyKQeoJ4ZaF4++pmEVP/MC9qf64MhsUSBk9npSjLKvTa0CfL2Gjg4AqwmyQtwHrLykk54hOY3A1WUhlZI1Ya6RBffeok8cvlCp2zI7z53/fNOH3V/77ioB75Bw94Zo+vGqk0rw+xmqQ8kulu2B8aSSdTQIjzNFTwojwo6Q4fkTdWO8UFTnzLmpcZOiE+mEKErN+H4SLkIpLJ7tgG0FXQnUbpHl9fk9ubebjhf5hqTsuuuTM+/b5fmiHTmFu6pmkXo8nbl0z976bX/91pTpuusurQ7weOwymX0Mq0C3DySgfA2QENq5vi4BCyJvzpkJemUJK2spZwaDaqQbC3ibDyo1RiCaANkxslpTG4hrCQ9+GFE1cURojDyCgCETm/FamTEU9ygMi9YKO44QWZZra1X7a6QfcIU2V4gNkBWzXy3jiV8sm/vN3T19TLc/cK9aaHhnyVDIIeYOnCFBWj8ziyGUrqB8U6hRENmgbDztVWMpGMArRua49wRJ5iVYYNVIKJHZl8TNiFHeYxVOA5oJaoyIS4eJPscSGrqzaMX/snpVXXXjF6fMmHFwmzOy5+Kz1lvzsX9sOeOQv8/7Pl2yYgYZ9j9fng+HIkuQaF4Uy8XyVk1Hb9bHtcTIbPLKprBI3HJS6LWSmRGc6yC2hBuLHYyFXVPpXIiWjUWhCf8hbGsL75k9FlsmuF9gnymPwS3nv/XJux+qSPhzl5ulDHXQPPFTUPiyCnGKAVHirNKA6+I7SRkf78Anh1w49Yczn/XIZg+xDHvrZZ5P//afnr3JlRu6vtQVHVntGMzPjZj5XiAV9ftYWbWWRygo+nvyLU0+IQnU3ioq+VMH7OGaiME9StKCg4avd7m7nNCki5RbwBZGO01A0ZywUigBprLGm6OcbjOC6Z2YfWHfpH1488qWy8dh4IqwuS3r3yfTOD/7t9ctZV9XOQavK4wUM28rCAaPvlMKEJG35KO0I9Oylctii6ap4xZsiD9r66buAl/AIBKlpPRhiCbWiOrhYUk0QzOAhygpfgCIQThKBojFRMmz2oELnUKyHcASQQCGo6HY1daSvVNL8IGy6Sfg0y12RW/aVY/b8lzRhx4s+7v/x/GkP3/bmlXJXw4Eeo3aYhKyEhsiDOoi1tAYqjwyrDFWyts525vOg05ynhAh+KRKoou5hOyWlfH44iEJcFl0T1WT4ddoGhC4tnRaPjQsNo7o7abWkVnweGp2595iT97zrhF9OWVHKyx+o50baSnrl9vQ+//rDC7+IrVb3njh8hHvD+rXo9RgGzjiKOmgTQq2JYJ7lY+COAH9ORSE9r0qI/ZDS92jG0gJhlpCDYblJcRspiTZKQkQUkWdx+BZHzzjlEPHQD5Vp3zh0FrtJvjsa//KAksKyQOKHuyaUWo6aB6VcR6hO+vSAwxsXD9zZ3zZXdttFr8144u63LpdTdfsHpRHDFD3IVDTQueFNkkZ1GkI/wUiYs9J6fAHUGIglCl+I3OhngvDytBEVT1H/6H9k1ZbfN1/bFHvw9S3gvLzviYgc+RdYgaFJInllllE7U1F95YcNU9WbvnvFCbeWjcemx9lqt+T3H8vsfMf1z/wy1xbavco/zN3atIFVIXqLQ12SU9wDtGCChaA7Cm/L5638yv4dgYLMsgBKiedCHBzKm38BIXMxbyqqhoqRhW+YVocNZ4tT2S4rIEWY11+JYnEOXjflg0X6hrDB4hAfPBQL6/nuA0JhEU1GPupCoTyHPD6UzxganAx4TKaCByDobpuwU+1z3jGstX+ncmB/2r9//P60h/7x5q+q5Im7WVpFvZUFwICWBPVGwExkATQgKo9UJs2BCUR4yHuIqGhuL0mCRnOwBidIFBj0Uh0ciq6jW8XvZ/Gudub2+rC5ecCim2E+bwU6ylH30GPM5dfakvLKt2fu03DdOT88aF7jPlKZkmQTk2Z1WMrzt7bvf/9fX73C6gzPcRtuv8TQV4Y2mlQWSDb8kNGpXAgAAgyJxcXAnGi0VKugfN7iEeAZfBt2Tz9SNgod5yyRTjB/OISIHJEjalgur5kA0XRWhRVBN6EFZglC8uYwnchL8siD6CL44174/CKg0dCxJU7x3N7MqLjLzaao+QSDHhaPUz8Y4JxgXs1ZmYzkSm448ayj3pGGDcn83SafqL9f9Na0p+/+8Aq/PmpuIuaqr/SCsoOGiMJZngqiiEKMmUC1UXqT+mYE+aETtSr871S8JpoSO7QtoRFxw7hl4knQrnvgPGksi8jJ7fVi20uzHNj4rWDX6qyv46XDjtvpt8efNXNR1ZwdE233ZdssIg/l0T8t3+PZOxb+RIk37KUYkteLqDTHDYbdmMkVOwnlRlxm6CCEPC2nZh/iaM8vG7uB8HfepOu0adh7Pv2KnlUEizx9z+G8QB+iAx1zpmWRsU7JyGMlMc8pE9g6IobjkYYN9i2ELiICyR/2vjkUJp7DSYty8oV7ovsFdJPo2mGBCQBtYLN0BbUNk+cMf7Z+Ltth9Ksf+cXnU155dMmVmeaqI/zW6IaIdzgnQvT6kO4D3boBlT2iXaditAjeRPOp2BmKIwx7kdrsupTKKuVBV+fzUD8KwCPAlXp9ISgHullWAe2KtyMbdy/7VKlbf/vJ39v9ynP+tNNnZeOx6dmyopZy300rD7r3z+9ep7VF9pPTXm8ugw5mqr5yRUmiX6e0JQyyksCSSNr1JuI9K1uPUj4Dgouu51Fc+IYziEiRGKdFMzX5g4ZlSJoGFFZSRRiSVtxmykg7es2U8yqIiDgfLQJN4WEOmcPudub3BnNLGyClXSwqFBFUjUww2VQwxxKlCZNTWtJa33zosSc+gr6PHaID6tnrlk68+eoHf1PJZuzeGB4fibfrLBIEj1W6mdczJDTgOakogeig1BUlrAQQgRsJ/m+naC7ik4FyJOMxFkTDYwL0NNFkG4gesdm5kvGct/WD+lHs32ecf+QTe3yzsnmgXO9Auw40CXpv/+1buz7+z4W/COfGzvGxiMfIGKwmVM/a463MA30P/lwBekLFVxNGhShgSgi+G2hDOICux3lGRe2bP80chQVQFckVQH4B3D8wKFRE17MoeWpE86OrKtqFgTKyNPEu3pGON0mUghhAt9f/l0Ka1oL/SDS0YQxIa5tvcMI+hEO1gKS2gaIbf3fFNli+DR/P2ovtEAR5r/+1afw/fvPEZRFj7FyPWV0PsDepUwPWiq7sgAdSvnHumYiVJv5PoK14ZYRWEjYLx1g4hsMuVg8I9D/4lxCBdCY7WQCFfzeiKneV1rQ+uWReoCrxt5v/c+lT8pih5DH17xNkLLcCt//unYOe+s87P3VlG2d4XV5PV6yNBVzoBwKiM+Bp4BLPpDhJfTUc0WnCoADGyx0LiIRZ5Yxg/05KP3+aQ+dO301yqoHWBV9iLuBR4tJcwCBQN0yjPkzxJjXlclSME4HkueC7PUMcqmJvEnS1pSuC9n2sbOw/x//jZ57HJ6oSUFpwQSOCcYL0z1PF+ZB01tX81ePm3OmfOvT1Pt78R8eov/zmkR+kmjxfGxacMNxnBhkKBCzgBrMuurJJz8PlQZMgNxy2wbCNh8K7uOGkIJIlynWSrUUvP16FuocdfVCnNwdolLD+QeF7Fg0e4YoQcridTA7GlzclPnr+gKMn/+Q/83/4RNl4bP4Jg95L4JeXPX3es3d9/KsaNnl2RK4OpWMpAHF8AJpYLAZAhYy6kkC1id4PBV9EyQ+zzVNaBhpyu6XG+/5Alz+hX0ag0BvHYfecA5B0QIgvkXqmjGykOsyjctkVZJrLLSfRbZgj68L9SLywwInVL1c0cD+EL+4C0owoLbjOgN2JnMSm6XVXksmMe4LmylO/vc/SgXsz/XNlyQVW5a03PH5errP6sCrPhBEdLUk8/KT3nUWPBwAFMLBR0HDroDLn8rMOWzPnuKLxtBvxeASCJkyAM4QRwRctRA4NR+2h5IrK8JID1awrmSIa9mVpZdUTZ/2/r/zsktsOXNA/Izk0P6VjnjXim8ff8etP3+r6dkSfMNOfGuazkhKrCFdw8EQGJJOVw8KsJb6ep4OpYK7kKqB8UIE5p7oH1UMKLABDc5QG211tOq0s+BHh9uE7NEAIFwODImVra6t5DViVdpas7+/+jyi0h4FaBKU7eY4UrhC6htc8bKU4rj9NkQdttoVc2WD2IATemWodYrK5DjeJGvFmN9Li1lkIuhVdiXYmVemtFfX+RYHxrGOwLY2tud71r1uRC75x25mptcHjK5VRk6SUh/mJlZm4i9DjQRGqCnJJov5X8UVOh8DzF1FS8IjVYfLcVBLUoU/Ymivb+LU0bw7oobinw2FrFUT9RB8valxiPTsKh1Sf0VlUX2/mAh2f1o933/OdH17wzymnSDsUNHtrZgAwXemj/7IpV1z4yKXpDb49XanKaWo2Aqg7xMJCFSydymCIgeOEQmNLaxMLo1Zmca72IsVJrmvvIH625uybfq1Ihdl1tqJolq/JbpmTjTdIikAFM3T3z95IB4YozPMvEQ4QPziicHAfDpAlX6O0NXd4QgbpZwMOH+379Jy7wEgtU3+UqmTC1T5OHssT2OF69+edK0A1mgtx3ndZ0ZgXOe5EMgkHkyYHHFlQguMeI68X6AhBHSGqQZzCQt1DAlST9keDL0IYS+RoKWcryS34fZbFMuuZr9Klt7CmlkMO2u1JKTJ0i+fGIsv1u0tePZitqzqjljVOynTKosaBVAOxF1loqCNDoaMfxk3aABoeQD79RQ4FNQfyZ8ppOCWHgzaQQlhMS9IkoEIfnz1a5DpdABk1XrfDd0qZ0VQCjm5i3eawZlUvqDPA/qoZCZbTUmgOBaoO1858mUyuYs3zFeOM2048+5jXYTza+3hJQ/bt1jrL9da9bLc//uL+X+tR98yGypEVSRgMiXZT8OdlNUpPugigy8uHAZeHGdBJEQAVWgJi/qnm4ahM0r8LPVdbP3Rcs4XDgKlHjTrc7ciWR7gCzCHqmQXwT77mgr9zDjRSN+RGRFyfowOTT83bzhHVb7g7QjxpvCeOQEf9s463/s775x2OA0b3ku/z46qgcKvxfNJzTzVPkq+Q0GROjqOZQTIaZBwTZo1ekzcgjaPrP1r5ppJ0uwIhl4EeKaQcDANFL8e6O82EPAop1qK2N4US5rH7NpS0sKiPgT7FzsdjQXFvlvNeoWHGRVTfyXjKbIvP3G0CH7Shelx/5bM7L3onepGSrJ0uSz6gu0mzAy2CiEbJwIoHVSCshMQoUd0I/QBxdPfyCpBevlV0G7a+Go/8h+W9TDGXtO7pXA5VvA/86+2ZTix8jQVDULurCrKOzmZWGQl1tOfWLJy8e+RX5/34yI8a5mKyy8cmR8BYafn/du3nR73w4Ec/8Gu1M33eYLB5wwY2IjyCpSEExTffnlFo0Sdtim2gL4bjy6fJWZBFMHLKtvLrFOlqbtTyKqyOgcGLitYyh7janjj/PSeFcjIzBYbpwV0Hdp5rMuwUqsMQc68QDiPdMp5vgu6SITbJJpAllSStbmQ1z8TwCGTK9Ckdr+jzuwJuVg84P14IPULkMblr3g2nvek82ZdP6EB+BXkqxbdJBkVQehP5nwQ+8mwulWgYWbVg6gzWOZDvpC/X9sTvF4+57TePnB/OTZji9QRcJsADbjeYt+F98CBWhBr25kztpaUvgJKhB6oQB9JothAOaXtw0RvaKLBhyHKK+fAiF0gR4+koS+TSLFznXrWs+e2lXz/z4B8ec87On1TPLSOtNrd22t606m++atE3Xn/6k7N8rHKCZBhBDewMVd5qpDdsBGO/eQNbt4J5dEM1TLtQ72jL8H3QcWr51NJ12nVODi0Xzg9FEtS/xEMmbjhsA8KNBXFxiIhbpMIoosZmCpCNgTQcX/90/2aopECQrRuxTb3aea4LolHOc+7IeqDmwesfPKigNmHZzIwdG2nLG5BJk0cmNPNt3UTe38mJcRoTbkC++KChHbxJLFpIjvGwFwoWiEWQQ35f2DjhKqW1hHHkIbs9q06A0tAQPBY+aQ27/Pxfn1XhGb1HSK6t15C6gheB/DXGwkbpCpRa8UzTQyc8tFIdPJVAE8V7eOihF3xbtGEIHRKwJmfiXMuDZJp1s4v5ItKyDmPta9/47n6/OvNPc5ayv5fq6gf+eTPzrIaffe/5a9Yt1vbx6TUTg5AvTWTaQU3iQ39HhEU746C6JwnoEh0wAqTZwo8etQwq3vd0d4UTRIzQwjhA2oXnVigNJ2yGLW+NPUH8xHOh4hD0zHYtjf5N0Qg+hTdLluj++/20jrF0nnOSr6XUYIY/TwSsUlSkJT1WPNDA0BFqRyB19Swqu/RUNhnHhJBkoT1mXESk0FRSqB4NoTHLmz8aNMpdkUdC3gXfntC2T+5JLrrvwZMWsRv7fcZK/oFd71vBKy96+EQrGjnWFagcByFBdJmjPADeIoOLPzl0NmRs6ZGkB6nQ02EvoZLch4hAhOdkgsOKCBs5JT/lsai7HFOnwAmi9FtSa2PVI+SFa1ML3vj2xcf84pgrJuwQvTy9nZiP/6lN/smZT1y5ZmH2a5Xe+iqqbaTaEyh3+LF3guoFlEhuUPcX6l+9PVPv3yfSlIU0FZkMUeMQwBgndVbotrarczAktETENkepa76CRNRqmx3ORs6zEHbKi+qj3FGhc1CGQqhsmvj94HWg6XG2ncB8jdKZD3FXlL7ScsREjp+hUw8pWz1Y4QVxnBg17l+qAZarqvNviC9Pgd4ogL5ChIWc/90ZZNsa86EaMubWHinaGLn/IRYPXxyUMKX/4W+ynghGXGuHj2Kx3i/1gfvO//z1011aFhtnjKqaMTrWnEG/pAQZV6SuQKrp9fpZCsVRoedB1S/xoImxclZH6WJQyqPTBiKQNHjACa8OcAeJVBm8IZSanrLMH5L1mN72WTKz4eUrrzv713POrCgrB25mSVobLOWxPy+f9dsf33e9CULEMdWTI9HWLl5QjYD/jMhGk8kcohA3eoGQwtFhSUp5kMPrFMGpRkeJJh4dCI42YTxsrXs7quB4QRsERKgxvlHyjbRALkGfw3c6nvISaqWFqASFdx6tDCxWhW0xDURXVzhwz2o2OmLMsI/BxMEDPJGgQF9P4+iaZUvWdSUszVthEpbf6QXphmkbYjUQWnh8W7S9a7glHIHFF4+bezEmS8cax1YvQr/MkGNgfe6PK8fccvkLV46KzJ6SakuFZAPwXOItQvoyi43XzCL6gNchDudBw0+cRXUgOBLCS+SNarxwTg6PoKQRX2CW9kv66uiSDTWjjYcvv/bCv0w6yV2mJdnMTtP5sVX9m4veOPTjVzZcWKPMnG165UBHczsLozmQaLyjoGMPeBuAYoPHiT05DUSbH4C20h1O9FGcR3WMB6VYRS3TOQS0V/xbQM+pfkKwfdoGbQVKzhJN0HR6kdgikSgTMsz4zuWP7S+KeMSnDfJ9sRsIStR7nAZfwwT6CkhMCQaZJIhNKRMdP7lxvjOmwoBg16wbHpq/0tMeg2GusKhBLD8n9IA6k+CgFUq3ZPr/zI5nYX+yE4HY/zTVTNeIccPekMZTi/rQOVrescJXfOfuU6q9YyamWq2QnlNYZRgMuyDBI/33Kki3dsbiCFtFXww/eLHSGQMK5Us7HhxQyZGBAstPne5crxmbAUUghpLUEnr7opEzAndfdu3J/xh1uMSRI+Vj4xF4486msT89956zu1YGj/Dro6d3RXWXG959ZaiGReNtLASiybCvBuy62CwAsAlhfSRT5NmLjbeUh6AiEk6NqGPQ1i42dWeJOtojDoSYolNeD0GOWhTIbYkBnoWw13bxxmqnekS0I54D8VT0LD6XciS29tx0B072ZdPvJWfS5cM9I1LTdAIQJBLDGiN5J4yPAdGST54x6rOU1t5Fynv0NFLnoWNp6STFIiNbe5kD+fWODja16hNZD3mwvKhGhSCiW8BjMm32uCHXff6nX72wd3SN5wQ55R/lgRcWVP0slyJBMSQpoPmdQPGZvjsYeu7dO/lmIpzk9C+ON1aaGbZIZtiHjQxFG68fHqKqQXciivo/6RVYuYzUsahmgvG3i8vGY7MTZLVa6gM/fnfnf/7y+StTqytP8un1s4205HJ7sP4hHERMDC53NZCIYM7LUeoG8mDoqUmn2pAXF0JrpTqo3iE07anmAdAHpaXsVDSlpBRAUj2SH9kqNL9lEaNSozQl79HIAN4NQPQRUUCMVXbjnhBJ5WBUsvC4JRgVCfxOOWjFmBZebyIqx89g2cSqx2fhvSZSuy7IO2xbOPL2HlnKwPAurfyJqY0hl0OvDfZHeBTITMSyDSMDHIFFh4OxYaFKpR1N121GF5pGUJCkh1Mg25xNwg5tNrqnQoi4vW+3r+fjuX0UW4WhLNwf0djTgJlSNmW5U9GxU8JDynN9+rrF4/55w7zz/cboyQrSVs5D0D2icKqMwocr9OI6DVjF66KvM9H797cl2+EdA6ILwxEMyqwmAIOS69DRAvpZwwT3v3/429PuGXmw1Nn7MwzddxIZ4i3ff/LAz97qOCux3rt/wF1ZxThnFZ4IGA+iGyEoAkHxJA6D5exhIjXE+yHoQO2pWwpk+44Xb2im5kQeUTgZEpE1IYeHgCCW7gafHSlmogkul+CQVLq3RLoLiCIvS2K18DtREc2ilpZGJZgz0EI8LguCTQUd2C68X4dmUkZLMj/ydqrqYrFYp5B6GFIH7YPOMy/2RwUQLMMAEsslYQRiXeEqFnVuOW9A6oaFUqpHj5JFF9A2sYkO9YMTR9JjIm6a59Np0Ph/kpbyhM01w6cOHfqS3ALLc/FZ/z7K7KyYq2DLFbQMtrSsHboLBEuh5sFjUY7SEA8lHVRYpEMUKUvjhZLXGQiCCRR9CW7Q7a/uWM3qayp13d0x31UZffQXN33n1oq9pNhQX8O9ub/1b1jDL/nmXd9KLFKPl2LVM6pd1V5ZBqkkGi5NTpwn81QVHNDC/JK3z3smir3U0oEoeNd4vkfDps6xDYcQrcLGD4RQGl3UBlK0CXjSKT2N36FTPuBGot6KZ6xcWnbxbqKcjkYGWBaPrLp8Vk72a5rlqaqpYomuBMtmAQH3upjXBSOS7QRVno7G1ABXcOUMFoP0EJQl9sXTD/Zz7jzVtD+SIquGqMutmGnVnVtbNYwBVSGOvAGpbWCpnBGL40UiOSi2Cw5lFVAvoi4ZegalIGpkb4K88YECOQqLM/HR42s/ZSCcHKTrY6PLvvef707vWsu+VuVpqLdSkKRF7w9HLtmvdILY4gKHyJQ6RkL8S3TplsZwFG4KMmgG7AOe3zh4uurqqnIxfd3CQF3q4V/c/J0/l43HxqvWarbkp29fP+UHp/71El922FxvumamywxAWBK0L5SqADsx8leIQEhASLgInGCUNhrxL95FQRUD28Uo4aMhsgaUynI2QeHWEEyX4LlAjAFvTGlqYv6VkYLxgJ8oa3a1tRuJNcyTXTBiwrCPmUtLhwLhhMftN+Od2dHr17RNyiSMMV41VL9i/fyJ1RW1Hi+yMlo6Ca5AA+hERB3wsnT0SUnEDVXCEeiPU+dBqDyCoxEsPNd8H6SIFAhH6IGkG4ZXfuqqgGBnTwPiq2IpxWNuUBQJ5ARykOPo7QpUvlZqW3vnBN2sV3/cSQk+gywsdVqKZiIsOup9oIcERVhZySV3njv9Q6my5Dtlv4zMquetmkvPuPnCCnPSjFwsx4J4oAx4Z5SOEJGE6KPgjyBPSwhYpPg3DY1IaxX8T9pESlhE5FDNLCKQJAvVRHLxXNMib33qwetvP/OmwO7lyKPnorHWWN4rTn3w6M/nRc+v8s2Ymu1yDbMMeEdkKeBIUBTuQUpHVn14/KnHguafUlb0RcgcqnshvU3fKRrhMOp+WZq9/JAicI/zCfyaBCKPohMPJAdMNL9lWdw0Pcl1GaX146zc+uZ+X9nl2XMv2uOz4NyNm4OtNkv99AU28p47ntw9LjcfoZnalGzCM8mlBMNBSDtY0MXRM5A0gJHlrteg3x7ouRatCwIUUMgqUCYqBykLEtRLG9nOGbMmfiQ15GOWQgTCIJA+YfKY91e+aXTgTUEKY0XAsXGNo9Tom16utk28Tcj3CgQPho5TjYtGSkkBnNdlJmfsPGnIsLM+cs/7M3OxyN5M9jf6CH1iAMMPz4wTp3FIM+WORU6bzAZRsYvZF56eMCL0VRAaE+mt/puRrf0kF4y/pVp61tywQPe3vvjzP5z/l7Lx2HgU1/zXGvGDr99xenyN74iIOWa20e4OIvIA2CAA7xxpKwKo0mRjLg3QvVigXXfT2DoNZjT39LF8nyEvQnjelEYsJkfc2vnr++sF75lD1klrUUBwReQUz3Yg9aRq0czq9R6P9ujhJ+/+lyNOnLSyendJu/iuTZ9dquFQzBX0tfQp67Xbb3n60CUftJwWkDwzOlo2DHObYVYdbGDJBLpuBZfOID34U164du4kdK8Hi0ZCgAyIIkg2ErvtMWsd+0fhLXnrgEGzDjhwnyUIY9spXOFrxUlZlbBIts1nhpqP+IoTC4Hgajx/KkPVAsySNcPcQ6L/46OHrIaXnv3swtrQlAYz42V+L9V6wLYM7ROBZKG0FP2ODIjzhVDd9uZ4W6lDJEdpA7GXlPSgJkLqmkcUtMZbkXruxn+ef+2Iw8qMusWTQhTsT/xm1Yzvnvz7mxLrqk/NtgX38lsVQRVIJD/2jqTWxRJmCvlr6tYH1h8FZZ0IVdE360EhXTVU+Bg+fAVQXC/k+gmFJ5B4pcRyOw4PusE5CaptTHgqBusaGuzBiJzr1FatGjnV/49zf3jE77/5+8mLyXhs6cKdcIS07pd/Pvyuo0/d7eqYvuy9QLW+zh8xoXWygvkCNB6lfgq29E6+7HXCSdwomiIOE6wTw9RNRHNtO82uX1/8SfkaCP1y1u4NLRkzFfUSPJrgF9wDJf5+QdFNTTQFXLUw8qX0Pr9sSLb477w4KDhyuM43FQoVIyupRgap1NID3bf4Rjb9Qm2FJf347GeOkVOhWaYphd3QMe5KxqDXgE5zHZTc/N6F0yD4B+iwFxQfE/4HHIVotL90zfModNv7ERAOOp9N+00GvigSprQEXRnNkwXaGSWYWpaW1732nYtP+fOwQ8rGo3gF6EuhGnje/w5dMq/j9BrXzrunNkjD60J1LAUOq6DXC8gz+nyQz3dhPSBfy+kqPATBQq+HqWVRLE7C8yTqEnsN8LqHzQe1EfVFLxepk/7JO6k9Mx50PieF2v179zOKIrrTAEiRka6mzZi+fsWE3etuOOm8Qx+adaqUh59uzdVKY7jn9OoTVy/P3vvXF/9P6+wKjaieFE53xfm4Dd7DoakS2QfaA0WjJf2eqNzxNJJ+DhQmoTaY9QfcLdJIymkWjm4GJDiaxSpGVKzUm5nmNRSPTgtIRQGNa8mBCx7dmMQXQ5BODvXji2lw22BCXLkUH7wvUtyCF4OUDmHCs8CjBCq8cX/14O9AX/GePrz9s8ThYaNmhGJBmhehvctTiQ2EhMOoG5ezftG2jC+qiQhTwXH2PB1QeKh5uo+nsoSh6Uv6goyHjIhPaIPQWiLpTCLZoTKtIPY0AJscPqyeNW9ox/y4Ka1IZT10xWKRhzProv6PHr74/066cbdvV3bzjAbvQ90/Vz7/3vSYi0++95y2le7D1ezwGVAEdAVlQFST2BjAspzGspa8pBiJLQDgTEc7g7ReyIWSFOi94KCxdmC6DrcUzblpK3b2yYHkzoEd+XNPAsR93FMpqm3Qmsg7DaLdj7Pt0ne8EspE/CcfgoFcOou0WwAyqzLrQn9H2hVbUTlZveP0Kw59cNpX+u5cHPmdse+++kboP62fS9Xxjs5dmRWQFBTXSwlj7stq4XPHAVJ4prghFMADMhwqnj/SADFR/3D7VNaUSGqTp02aj57Bbg51d3PvZXr9mOplyWxX0jBzzA9RGAUfQvQeFJKQsSAGS15upujD5pHpy02U9L3UtUrCMDxVR4tX5P+A7cHv0EbklonctUCQU9KL7f3Jn37gFSjH+SZ5TI+XPEu3GzdFOWwIxBBsmYqOgldKdOOKwriga+fkcdy0ODUSp8guxq7PB58D8SmCqM75RIHyiQAquXbDKhYOBVEQpUY2mDovPGJvMhqz1rx36kWH3XTQt8eVjYc9bOCyku69/JNpv7v8X5dHV6oneLJVO3tyARdPRZHT59Sx+HrH73jDHdW7xDw4Oi/OfPO5z8NlC7PN14otRNTnNcAn39mKhAfsHE48nCdGtIE8/N+8kJ+Fh2wiogbRo4rNHHtge3o9k/zxlTVjlScu/93Jf+8P40HXg83TuuyaE5/F2ltkyFqny1MoNvfLGJTgQ2gfd3r9DF7bJNoWgb+Vua0gpGOOeYLu9kh9+NOel9jdgKgsN3Js3UJLyXSYeJJ1ux7Q3SMozn73wwZSgkHreUreB1IAFnCDgi/L5/NoaEgtIcyo74Oz/HGr5s2X559l6VId1zWWgbJBs5gI9QfG/Akotb0UCfEjI63GabKpgcmAnoeHJQGhzAJhTpueZmUycX3J4kOOnnLNKZfO4drM5YOxznlWxXWXvH34Q7fPuz661n+816qZQjVeBYA0RWlBVAFpZikpjAQKwcyoEPWuUh02LQivpfD5J3p0J6oVyCDRSEB6LwIRmP/iUbPO/D7OEIvUG2h4EL2mEXkEq+UNFSMTT5x7yVduHL1/79JWmxuSut2kll12n/qgJ6BuyNlM0KUavv4/rzDKNAcipUWaOhDUw30qXr1tzMTu9Q86fzcDAoZFY/T4mpUuv9YkgcYiq1FigXfYcUuU/8rDefv/FkrxiWQwOHUJvy+h/4v/z4XDQfB5DO4q2UP3vLiTbFRNRUtVJWH8fe4I8Ozifi1szj0zzttz/HlqoigHzougSKHRF0VBtOpyKOxSntnlQ84+l2KaAuPiT302cqryl/Mu2ePD7Xm9A/lcH/wnNeacr9/8o3dfWH2VVxu9X0NwUrUep6hD1PRkoFWJeoS8Sl67hEQ1dZ2XPP3C+66E8eCHHVkID4c2NCcBYMfBBLvnOt0iWiaJYjIqOeRaM6jZSgE92WmuWnzahYfcMvMM36ptMWeHHbn7ZxktkSKk6kb66dvihNv6M4v2c1IgtSeCp7PIwQA6NauZnR2TpysbSSBstH9MnBFoT+utCQlILIl0r3lO2vEOS69C199jSRspeeb5CISnbPh96hWVEbht3HIOyqPlXSv0/purTwx7R41QEEoRhYOeow0FtQQOWab7LC2KhKjXRY6b8q9UX6MsBPV3UPisw2ig+hasZJ3xOAtUBZC6ii9VI9Fnfn7DmQ97pheFjYNyhvp+0dYSy3XnDz6Y/dsf3X5VpTz+aDlesZuUDASyURl9PjXAghA1CSGUyBEk1JLzLAvSwdJGoUJzR8x98VYkABTcSPCIRBTIeZHcNjUO2MODNZ0hcRLqYalUWVRqWnbkGXv/bOfvVH7e99Hd9CdMmIosmRZzeXzuQZ/e7naHjvG2615gv8JP2CswxJI3tWrk+EIHuvO+jQzI6Img7XAn1qa0ZFoBz4swHk6uz1lwg3ZP3WhFFFO2CF4sOqi5kOkVFRUd+MegTWG9/fKaelmvmpGMytAfBa4fqaA0Hja/xw/7iOiDkt+lPngUQkaM1hiR04klyZFwMC7hQBVr7YDyXSjMOtMb2uNsxYcX/PT4W+r2LzcKtr1vVf7q4ueOf+7eT37nSQ8/VO/wTK/01DJZU1hNqJYZGURxlK404AiaVO+ymZX5RkHNgWSkS+tAiHnvbjx6wkmJPsf5EuI04ouWDXFSKSCAdQVN1tS1uHXansPvOOXySe9uy2UtR1h2xJjGdWh5KPXg9cttOm4YGepCk7ioeZKFlNysc8LU2lddk7sX0OnkG2cwKlh61m7jn9OsdDsVVQzy0O2XCY9A5CU3VVjrl7vZzh8iAEZ2Q6E9gKI7XdaRwopJ1YPXy3352Y92d1mVo3IZijyoKYx67UXOmyjPFV69LqURcVJYdg2EvGTa8ICd5gU8wvLDoHhBJZ7IJU05pH12+Ck7XbPLt9w7fNH8kwe0kVd///7zP36p/Rc+bex+LBlp9OhAIIEltjLkBX9TGxhkkQ6k3g0TDgM6zhl6OcBBKyI+JY0v9HsUiSht50ev2+mE9k7hEOzP9EVOBfFagXYHX5QR4V+8B8XFolE4RICjx401La6qztfOvHSPe6R6so7b8ID45fARw5o0A6yLg/4QafvC6NtBAjUTY3OkNB1zmy37Hzpnk+nijQwINkzjwK/t+rniNdfphEbaVJ/QEGos3DRpJAwKpBvBeUN81YPyWPOiVfn5x+uPSXUZ1WF/JXh7YDLQURryg3IAurXKAKhjORBwh7hR4M8pJy7gnLT2sobO4nqceSutpQ0TvI+fe9XuCwblhPTTRVvrLPmxa5ZN+eUlf/2/tsXWqRF19GQpE/GouSAjcUAVUN1UPAEHyGThcMh21smbpDFFoyglhjiqip7tXKEG1U/X17uPseur+bqHA6pwOK3I6eFdCTzNyRNZRHpKZUvUx7JWPGv62hadffFR14B5edsLhiEnEY93hbwQ2hrsR88aTs/tPsdy6C3Orp+z98iWTd1rtz4Q5wU77zGszR0y1kuGppk5y+2kFcTfS9l52v/TlYPH5sGmmkYnLi+mwyunWkFW0zyBQCBPGtb/Z962n/jofe82VvgaGyTN5zdhONwuom03cV8oQnNBaFR6AM/jPR6lcggIQooURBo6JCFQZKeSgBgDOp6lzAD15ADIkbFQ+PVn27Lu1ne/c9nxd0q1AwQ6tm2nb5OfHn/Xqvrd917Z55M3l18YlkZNMdLuURJIEGXsAjIMh0TSotDvoH4mMsbJNKg2yIvkdSbBZZaHSjvKfCWH4gvoNojXhRdctL0QISK1qHjBz0VACkLk0bqNZ2MQPENKM5GCi0v1j+TSnfZsuO2wb9QsYD/eDhODxnfsEXo8HpeCQH8N3oMyL2SIRSZOoE/Fd8HIrbNQhSeWdKfW1YzYtKT3Jg1IoIHF4bSu62zvSPmlEAoh9ss454zzluICXCmxPH2bvuIIhCOxuI2kgYWPg0XSt08v3bvXLmmfoyWVRi/1eJDfaRsJWhQcF2C37OY51Ep0qVTQ51jzXBbeMww48tkgkcF3H+C6+F3QyiaUlkXfOveA3086WtqkF1SiS9+up13zrNVwxQUPf6dtefYod27YJNnyBIFYhZ3t3otAaYduB5f2FQmKQp8NoSup96e0zmA3+HY+gUXNhRR5iNpIKBiCoUiAShwpLOh1UPd8AJ5/lhgU1CwLVrmaoqz1k7Mu+s6z8riNc/TbaJKUpUuXN/o840SRYBAfgm0XhoOePfqP60DxZj/ueOTMrtbRk2pflkZsemw3vfMHWHb42PD7KKa3WWClFWEOpReoa9kJI0tffuuPeeMoLCIjtaG8dg8IDSQ1aQ/K5QHND9/aZe37y7q7khqFBJCsAIYg5NPAOEgqU2UqZHMJOi2BVp54mHJQhaMIhCj+ork1KyfMqbj70BOr8zrMA+Pat99VvHxzdMJPzrvj6thq99d92YY5QVYXdOthBslybnxFOooMRaE2ST8bvMOYvkitj6IQAYUVz7PT8V1q56/IEe0ZXMKQ5NAZr6Kbl5rZ6F4DQQ/WR5rF0q1MDecSUWPVZ6d998jfDD9k+zkX2gbmi3elakAQtUkHfPutjL6fiRCovA+OIPREx8yDBLv7XwEfh9m6Yfbu4zdqIHTOvMnVIwWl3My5Yxa4g5k1JviGuP9SJGe6qdp732+lBJ9gDxofREJ18AiEDwkEGdHKZpY8vu/VoLz58qph6Zg52SP5wiI6LdT6SImt+CitE4oNArUZF6INWcH4k465RSkJ2G3O55iNuyrSH5145v6PeSYNGKvXqznpzZui71u+R65cOfvmX/znd0ZH6FBfrma6kvMzSM6i9g14JY/esF6d/iW7r8bp2OILWazmblgrijzyvFG9ubBt+J4CZEUoX2YyGdDuIPoAUVcOa0P1IFqVY8wb1q24tm7VhNk1/z76O42fbcNL2uijP18QrQn7I9u2UL/dbkgAiBwHkwALYt2QoF42aSnRtTN3HbdZDrHNuh+77Dl2Q461oWSXyQgaAbJMBb4UfpbBC1Dqvona0Ue+JwQlZnpBOp0elHqVTz/8xkSPFKiRoOdZ2CgcShKBuxcNoiWsf9gbG8gduecjmjfR8AauK48f2suswzA87Z8dcsysP8852dW03Z6nAXIi63MQIX7/gVP+fcPzf61VJu8VYjWjdPBYUZI6qSehAQ81PMitCkwk1TnITuDf/EvUFYRzICJPEj5yMggOCerAIEPd9BbkFHdJcyOHdBUDJx+x67bGVjNvBNGqN7bKU5V95bxLj3oKqKvtSni64KO1jS7ZHyFY/KA+KFVPzebU8c/VWGkuHDlvWkOpaEW98s7oCVJ0c/e5WQMyfAJrTrUHPwAAkjtJREFU84b0JUyGlqNz8M5Eodg3tA4Rvjla6ERnj+hDRZFs0MEszE8teeGHa74WcAcrTXSebzxTFJ7a6ax8Pas0s0lX4XFRjwKWFVIUOZNoTKh9MM2imTXNobrc68ecvNMnpbm60p216Tlr2A9OfuDiDYuM79W4x0+XUv5hegKcyTACPqgFjm4czdbG1jFf2Gv30NgcYtxqUAHdfk7zXd6CdZW+KKUp+K8ED9aAOOzr2JiYEQuDE3WBPJNr12B9qJCXNdraNnQubjrtrCP+NOaw7Ze64j5P1PIu+GjFYUBIV+hocu0TmeQAGHxOwJEvUcB42A4d/72aa5m585i33JM3j/Xe7AqSRkuZfQ6Y8waajZp5Udnm2ucFLj7hA2Tx9XESyGjQ4RTTKZ0lDIilxroSYau9tEmerb29FUtYRNLDY+BtAsNE80bpikKqlrikBHU9oS/yKbutPU2/vZ7GndA1NObOz1k9kfIEE4u+cvTOd9bvs3nvp98uYgB90As3dI3/0Tn//kVynf/EgN6wE0uhRS5lgNjUB6EnHUy6LrZq3SpWHYmgDoA+V5K2oAwBNx4ktQqfh/o+qGkwr5FBMQo2O57rRuyJzKyCxlKZd6iX8jmmCJjWYHE9xtlbyOLZ4AoXFXkpAsmwQIWS1K2OJbvvM/3Ph548fPH2nrr4ala7ZkX7FGimB/XsFsuKbO/L3PLzUbQquP+4A82jVTyTUKZFNsBq2XO/2V/Yc/WFq+ewYw5YpSvZNl6E4waDzBItWDtidOgRtvxyB9wrDV77EEgliZOj4WdAIg1gsDIZVCoHmaVctTgRrvLVe/WM6SVvQuD+C8MuyqgDJYJEqkqLockxiUjEzbwuv4AQqpl1wya4H/vGmZN2mJ4Pc5kl3fPThZMe+Pv/LlMzdV9NtigzPawScgxuoNMokyqhodLPEkAk+QNBlkhhzDx2CsV27ug1TlaZd27b0y70JZ28QYnTlpvYAUQqzdGmoGhKAAIMQgYhoNL0NFQF6S7AhWbGloWHuR//4TVHPyFN3L51MSthSf/++wd7mEn/KJZTPD5idBjkjjTfI7itJgNCYAs8fwhTTZeZsjz6yokz6zu/aNP+QgNSN561e4api0Fgl3T5ArwRze0GeRmKWIKP31vgyRpwpmFLLgieGB5OmSjNDYgTAf3j9/rQl4D79FR7V6xunjbYbnD98tZKM0398y6PgnQHd0yLhoKYBYiSn5uRIuqCLRmtfn8NNopgmPxicFZiDrSkBmBLLucK6ksPPWHOM8oOUji3PrPc9900f+f7//zMDekWdoRPqhgtQ38nm6H0jaATojlEUxZvnDMImQQNG0MXGuWkxsc3YHolHDzSUpHRjM2jDk65To85NRHajYQ2Mkv0h5S2mTqvfooaGG4I10hKgkhnwmnVSdAOsG4dmhReFfdg5tpyRubzU777jf/49pIKqfV+X5ib/kCzhYVefOT9b1ux8BiWUZmLem8GM5kJ1owLSD4L60jmooEa0sdZpqHelHal2n3D/R+Ed5PQTLT54wsNiORjmZHjaz9Mml1tWUyi0IagCIQAluQ2DGY1LmdQSMRIsHtyqmhYYs7zacmKnrOgkDK4XIzO1tgwMydXWqaCbIXNBEkpSPt2C8VV2lYKv99Oz2CP05gsnmhnNdUVTNM0NBG6mccrt5hyYul+X525pjTXtH3Pas23fDf+5MXDH779hT/W+MbOlbOBEdGWBAv7q7iAFgFXOKXERkEjRRJE8UFGRDzGwlh013Phf7ChmXlhKPqVDfndvnfb/WycNpyTegrcmEho2L0ItGbJiMCxI/GqZC6ejtT6Pt394Bk37vu9ilWluO63X2ifwNL+ES4rEPK6sPHCkA/uA4zrGZ3ziakuYPo8tNZwR9AAiJuda/c8eParX3Z/X2hAlBFSere9ZnzM5GSLZkJHgFeMxMLF6AnCu0F+8AepCIXl3A5BeDMZzW1muFjBoDnWr98wBXPk5+ylYra6HeSlOgXVgXBTLnSeA+3GIyUd+uwpvaPjiGMPvisyE/zjQ/xY96pVc+1PnzzuvTc/u0yVqqb61Mo6Cey55BXKyN2k0naOvQdTbX5YShw99H16YCRQ/+JuDmdHoNXp5fBkHi9RKov2GTcgvB5tqVJr3P39X+71Tt/Pu/WfYK23Ag/e9eoZfjVc44JOODnQOYBUBvthEgU+xl4npBuvlZNUtJU25I5l+x0y+kvRj19aQdttr8amylp1mSnDgABiKYgVUYTlRZdixPngHErRti9oFAjORvhn+O6kA+1KJzNeUnQcLHdmNVtKS0vbJITWXpmiQ9vz3KhQyi3IQPCeEEJzsSh4mSQl7Gftsi+96KRvTxjytQ+krUK/vuyOb334xopLPXL9DA+rqu5sy0IYKQK25DA0W0zmdVMxvPCIFrIlpSbB7J8ngpxdhdJUtIlRQy8ZEIq2+ONI2QAYD6SzvGG2wggmnj37h0c/vL3rHs6dvvWINWv1wsRBqumlBkIO+gCZog2V7p/x2N6fQtsAofoocs2gDqkDBUkyHoaVSw4f43951PhN05cUX+eXGpDq8axlzJTKVw21q9lUkbpCAp26h7l+xgBh8uzLwFOjBBlCh8aEezyETgIKS0vl3NCrGTRQ3hz6q5LxZB06d13caBRRCzlaCo6ugugPKa0RobNnsjrzBfzI1gOY4c6snr3XuP9Iu0D5aAgfq5+zGn5yzsPfb/3MPDesjp1mpcNhlg0xGYSI6QRcmKzMucvgxIgosjjP3s3wl3b++j5Fogtd5mhAijmAECTVSRgUyqVwqWm33tqaWvneOT855uYZJ0mAnW3/w1pjBf7++0cvq3JPGJUDq4qWRb0UaDiiVhnUB8ZeQTRFe7lK90JbBkUjUnL97vtOfAdI3C+t8HypAZGGSxl0pb+veFOIQjKwTsiyYnJd8HBpygex3hKPOqiY7JCH8ZwsvAtqI0R53YPow5+IDh4DsqGJeS3d8qCnRSUvjiDJ5ME6zYQDr/uYEG8qS2ZRX3Plkm3JtenDjtvzg0H9UH7JxafnW5VXXvinHyx6c/2Fw7zjJyZbmVfRgywCArqgtxrPE22iomdDJyZBOoqMhiOtMFTGKN/ARmlx3g1J4YctMa3mUrHcusUHn7Dzrw4431eymtiHz7BJ6VZ5hpX0VLgsH6hV3CyRTKIrvoRywP20ADLZBFJxGhB96MeCMcnocUNyp5bvue+09i05xZcaEPqQXfea0uIJ68uYS0sTggcFWv7gcw9hkB8EWyum+uAldMJBE1opZ/ma1qQJyjsojqa1zS5FUpEEAJ0wBwYQd5mDsy/cQl5rYQDcFXlxGhVKXbl2f5X03tTd5I1kMwfAZfbLJcx/0hr+7WNuvcLqrDtyTNXM+lxUkquCjdDt9bC29ijLZSxWEarixiOtJVk4KLiuNj4KAN1+ubASfYhAl6lABYrmZEqlkE9PgCvmQn4okP1s9gGjrj3jolmLSnSJLPeRVfvgP1+5eGT1xEotnmMu4Gq8SDHqkAKhOsjgjgEBlQbyVIcBQWs/fgbiTepqr2pQ3p443b9F0d4WGZCR05RWd9hcJHmz7eTOgkGBOwucXnmQH7yBsEh0UCxiSh0gtDNUX/O6eM1gucXOzi5JkQGnEJUwTktPR95gDEB7T30Nw4bXQmk33jprj4mPSdOHQF50Ewtm7etW3Y1X3v1dq732KCVZN13S/JKZU1gOkHEFm2jYU4E0gsoy6O+glAISJCyZIqQq1ejsTnOOpSMPTsAjStsE2B9PBYDGnE6c7osgyLZYnYIdxpdabATbH/7WD/Z7PTyHms9Kc7zzojV78UfN+7Wv76iuDVcg5Zrh8xWpxM/aYM+0os7mRYmXQAGIAAnOIPvTq+pGet5RJ22ZKNcWGRCUkdN7Hzz75ZwUX0NNhTzUAULE46HywJZ9RGmm/8vPSpoYigvav5Q3oLuhIhI6fiWEWrLhCr//5oK9rA0cYDjgj3QyhRoYtPxyOcWCcacoapOzMwDEpJzBdEM2ub2jJSt7tfWnnrPHwgE/yL24wPjHVuUvLrzjO11LXSdXSmMnyXoFS8Q1rDswEcNo8A4OeIKWoXElRhWAAkWl7nwYDzAUd4tCbMEtUm3ME5z24poGwlu4CiGiDwW9VwbUsFyqzlz0LEqZNa25z1+67Hen/63x0NJJF2cWWZX33v78ebXBMWFiVEkjnx12h5iWycHQQ2qAYNaD/ACCl0O6E+jB8vh9miY1f372hYduln235+1u0e4PER/rkCNnr9akztVgSNXRP4MGsACLpRLdmtQG21g6AjvFOWbeFcu9djzWpieyYvGGXc0ORi2nA/6wm7K4m0rRx8BPMQrkmzcgx8I16oqqRrZFYfOAn4iiC8wssTw3/vzhvZKr1OOrpdHjclGFeVgQZIgh7vEJpANF8oRqEPl/zvSAnzcyHg4w22HGHkwDsYlrpYA4h76yLNA/Hr+LI4EsJd4EEs3nv3/lab+d+g1psyyw2+PW//dY86R0pzQul2aVBGjggBuun0GaOhThDyqE/0ZDRsuoK9GFWo6bVdbWsPZYa3z01Kpnakdv+XO4RQaEzgxWnrYxU2teY55Uqy6nkKNNDwkLTPcmMjvduyaEAXF5Yx1G/YY1rGp7LNi+nkMFMoRuhzdGwrPVEVVtMkc7gLjMCIMO0rbO+tGh91zTty+ral/He0vef99fXp/+ztPLroqYY6YoqaDiVwKM+gg0sDoIRgCaIUQZnCKIurDxhSwefW3EqmsDIrb4od2SCyzla3CPGTPOZJ/GOhIdSJ9Y7e3a8o9m7lv/hwN+WFWyojkNSec8q+GRf712QTZmjaSMBDlnxA/FDTxHqJAJEcqPg/qgxk0Es2nQxVju9Npd954wD9IJW1za2eK7lyqkDLTS30rqTStUL1rdUeTzQQp2KB3caOCGBDcPSYW6vF61yvvpx8lRg+E+/X4vGQ/enMPbQGyQg9N9PuBoIbFOYeewmcaTE2cO3+KweTDMBV3jK7ctGfXUf967rNY9cUxIqQdCTmU+oF0ymRTqiBR5EDMyx1PzL/FzsfiTc6fUvNuzLdSGag2WwdjUdeJevX6DpTRA0aqUrqTU+skeX5v0f5c8emBJ+4CIQPWpe1fObV6R2QeA6hqFw1KI99yuKVJqmMPkha7KYD48oKgigblktlUz1NjyufvP6Nya+9liA0Ifuus+o5tzcsd6yZuOenzwcJGzHexHflMt7vZ1ipQmcpy6J/TR+4t2xaIa8HWQqqoKxByGBs81x40HORIcyj1QVzkiJVnPZnNRfdYu47cINjhY1lt6gRW8/Q9PnBoyR++iGtV18c4M86FpMgU9b+i8MZ8PfR58Q+LcAHyGhKaHiElEfYB+FuzJ3T1dwi+hRjLoG3kp8oqxRHptp+nr+kStS932/x7Z991Sz3FqOat/6fEPvl0TGlXtllxEP4bRRvKKYP4khUAtDGAKEH76Vm2hpb61buen9ZUDmsxAnU3yxdaH68z/TZ3l36rncKvuvnYM65g1d/wr0URTB0ORLws+/KFwCH0MAV6iQ0Qh9DMgphkptH5d+07404CvmNXVVYJtz8wi2tYJHOAQ1RXP0cCKRjhdd1Z1mV3jJnkJcjRkjjtvem1W12rleK9ZO9bKwljQqgIxYMYAmy6MRw4oVTocMSjqwnb+bVfhClFHHortwHdFA95gb+SlHjKvi0UjVey9cEP2L9fffubDpV4A1kpLvfe2+XM71mVmyTklQn6YAbdMh/XQyD2jNCIIWKkLDqLXpb7cvp0f92LgvkzZ0JN684pjTzrgv1Lj1jEcb90IIPr+ximHv2IpqRZqe+fw1y1Pl/XtZkvwbiKqQ8kzEOtIVkXXsIoSXMJWnbKmnmXQ16IBy2voyNMqyA9182yd/cf+1IEQlwAUnq6tq1jjqYJbPkSOzDyr6vkH37+0Sp0wIdqqq353gFHEjiYtOK8yiOtQA9HQlAukHDkv1AshvhzGXMGayx0bO0QWUYnds8TJMakEb0eZg3nccsZq1a3/97s/Pva5mr1Lz0Dw6ets/HOPfHhJQAlXphNJXp7iqHg0p1ioF/B5MsDEwennBa/cYD4k9POB4bgrUKG/fuyJY7a6B2urYARSCEPWbK1uGOV/N9fEpubSVqQweCSTyl13/B+FpjYsluvOF9mpnjD/kgraiAQCMJTigeV3ULhWTrBgujydzenRCz9YW4d/fim5WCkXkwoKJVOWMpKqQNwPcFDoR/OmHUA/OeKM7i2fiSvMUcnCcKwFCBJ2DWusWgDGg8HPzGlP/nVX3n9wkDVMdBuVlS5oRpDmTCLTxTH3pEceQ+9LMBjmmh6UX6cnhrxxMhhEL0M2Q0TAm/PvtrjGuWXLkQtSbYEvyYXlCh/JbZstVuYwUlBazWEOFlo09Ll0TwJtxulziL4E57OUxGIjEH3omlvOu63xqO1Pz95zcKwWy//rb71zhpysnOCXI5WWirtCcx0VzyXAjS1EHGQ8TNJaIS5A7kBv2RBvs1cVO/B21kQg+giIYa+TorUktGGEQCDNA9XdcmZyw4zZI15Rp229Ad+CVdPj1r0suct+Y55OW6m1gJOIxYHQLqtJKIZSZhaXD/ZM0wUqZmR7+WKiTQtfXOSGeKeI94i/0g7Ft9nofvEHC8U+uh7xVBSU+uhfyAvibx4wmQTN2rpH73jrBPSDDGzuAvQCDRvZuDIBbnQvmAlyyU4wMwvWZB29BTrA7CaoGABPFnXbogbKXk8B3xiKNzRn4+v53T6D83q+eJEGtWKpSbPHvdfr8w+wN658xBq2dlHmGCnjHZlJEZssRp+iQQ88PcwDPdTU64DCDx4fMijCeBToZkSDoOAsE6o7+a88dxn9RkQrW7Txf8EY0fUUf4nUWOGLSxw4X3Q9zpetbmgnfAE4QWSFfUAFFYlqobeKP1eUY+cCEEwNuKDBlGJJs5XlrLas25daxMLt917w26NvGQjGg4bo3UfMafPfXH9c0BreqGT9zGP40HlOPTo6okUoInJUIzV2UjSIn3iA2M/GfGvWc37ubPg3vZdUKbFNievLcnlodPXDSNBCw3rBPpADAMrSsf6Q64YDp5mezNI9Dpy5dGtO7bx2qw2IBMHUAw6bu6IjsSGmeBWNBlOGdSZ1NEh0UScejIkGFTGk4xWXKApyj4rfXW+ucZu+h29z3AUUnp8oWhLiQmiEUN+kC0KaG5and4kuG9hwXqlKsoKV4ZWKS04SHQQ97M7mxBXeuDdIESG+8s2EpXoAeA4fw62nIjWh6Dad5O344R+/s3JCJu6b5pKDERIc4ubB3mTI2+OQBlLA5AZCXNjmvou/Co+xezOhjcrakqhhS+99I0eg+xuF4Sj8TiAVnefaeX5s2LijP4Jfh0CUSe+Nx7u45r2/Qk0avuT8mLTyyUt/derNu55evVVF2y29na193fo3rMa/3vjAZapR1eAyAiC0hOHQBcpKeO3CjDuHRRtDKY3Hl96gmCzO80c/YEvTIUhmWhDNC0B3B/u1BrK/pN7R6otYb+990KgvlK7d3Om22oDQB43bzbN+4vThL+lWooM0VajfwDCBI2YgxaP0FcHboMvskmw6aqrLgJY5X/TjaRS7aN2fD8GXDmrPFzjwSLocuj588WiJt2fS8GOQk/AYVXcqYTW88eqakVt9iu38hrphFRvAZhKntAn3OOzxpc5lkRbpsRlt5+vrcTpkAwy9vrE2XtrL6L+zv/nGh4egRQqMyIguOLOTvcvyNFHxmi917qPonp0N/wufxe4RJY9+cIcy1QGouQ7Pt47dNge4aw6GU0dunQ4tHUXmCqgzOJNANMHd1ZYrVcZD3/3lCddPPbO0jYJ5Y5C05BefXLhT69rEHACtK+m+fL4gecYC5MCNRwFkw1NAA+E5ys8bzYUNEu0mOY4aruyHnYN6Ik/DgfMauh8G0dBjLaITiflCxpIDvrrL076ZvevB6pUBweilTj/78IeyUsdqGXlCUA8izwtsux7DUOtc25qMh6GJtBX9jnSOxeZle8FclKp3p++3xz2fM7QbhPg10nXZpSH8m5S6ABRSPEpF+IO3Fh9gxZw/9ttV9OsHDRte2WGwdBeI0UzSdi8cdF8i5ThQ0DuIinSozenD6oeAMhlGVv/c8q9e3rYTNqEwOSFUJBcRYFGUx5dPMYd1qSJAZ2VszTNoGxH+7IrapuiWR4oHjxDJJeuIrijSdeognNkaDqSqajrzJD/NedsfueBnJ9225wWR5n5d+H34sAUvZse99NSH5w6vHIfCOXrjcal0pDUAhXiNShiR4mS344iVno3czijk9yxyhEV7BRqhsTMD8Yd/0jy43AKEQdkh0jKBYkCS+ZPzTjht2qreDt/WrJ78OUBtYu76VbaieoTrA6jIpVTkd92gxYIILK8ncCJCXDyRPIqDNq0c7AWhqUX+tmfnd29voM/vsx8EsalShpPuwGn5MJnPC96vVBoRVbB2zfKuXVKrGDyUgXsMG1kZy4HZJgcLIsu+guCN0Au1w26bOqP0t4HyWU4JgNy09JfS9yv47JN4VS6l1rmkSJDSH+LoCVawPVnkgPJFzr6futefIFJpFEnQU1v0vPZInXFZXb6JEljG+SJkUg59BPRcI13Nke7OGuOi18ztDVAgbMT1psVqVdvff/SbE/+025mu1l5fcD+/EbDd0N23/O+c2Dp151SnXO1V4PyqbtCqZLjeB5l3AfMv/nL2tFKn5HkRhjuGPCaipWVnUgisQc4wEXbSH2hXs5DCIu41cF7x+mNOTjZXNUhvh6awXmcAemVA+BwGWGKPg6Y9ldDa2jULDKIKAG7w1nnOjaQebc0QgTEpHmgnf1uUxurnRbF1H0cT4AwDXWf3hZJOJ1kQ3Zqq6Qt3btCnPPHAgvFb9/nb99XDR3lSklvrQniag6x74eTca6R/U+7W2a+de92+15g/G6As4BcyUDYr9ZPYLwPw8QefB5np9yMBAjE9FJVp43Ggt/wMJR7vTd7l1lyT86yILAI5Wjy9Y9tKnm3I10VQD4FxaY6tNoxA/MPAyMzNF//y9H/vfHpw4BiPhCW9+lhy7roFmYPVTGSEqvtZ0B/haExwknLUnKiLFju9hUHsFln2ywrqzYc48+cAaslhEdK0ZEQILeYCZxdxzmUyGd68qrrAjmvEzLTRsf7oUw6cJ4HpqzdndlZ0r94r1Um5/b46dlG4XvrYdIHYJBvnzTYKLpATjwGN4eLpLccDc7wXspS9t1u9utgtehNdEz0JTo1AoGEMNEt6KbyCVrWV8Y147vF5p2bQZbxFH1mCF9WPYmlXwGgGBJEDL5ziq0D2kJcpAnHuuBT5nCW4VH5KyJfkQAs14Lv8t2R81qxqCWLbwc6KtcIbzoodE/sTigrM3QrjW3KC7foa4fjlG0/pX7RmOP2KqAmIqIQiDxJAQLoX6CsAfgB9F/etq+mEXBv7X8W07M8vvu6Ue6ef7OrYrrfwJSdb9z5rfOifL1/gTtdMtFJ+AMVISjiDFFYSBf8Uy6JeIIxjoXaVf474szUQ9jHHIReGRKBexe+o0ZGAsgrZByDJxM14WSKbZqY70zxhp7qH9zmqrlfFc2do+zQCo2ax9eNnVr7ordTWpfUk8mpkNIiigaBv1GiYzW9gXEnNSRcNpFXkOL+8eE7oJPLQHYdYZUHkV1KJNMuC7jgSGFYRXcd2XfiBOXxA3ULRxYR3kuLugL5CVo04Spt571B4I0723VlMJb8LYg0WpYIhcGiaCZcJ4Ei7gCy4yIrrH8WPW6+dvm03Ut1qkpubkp4EnQXYsVNfI/io6Yq2Zb1NL9dOMX79o+tPeHHqMe7otrvwrf/k3CrL+59/vHVwfL08M9MuRaoCtSwTR4EZRiMcRoqHO76FzKoAoPAckW047PTR1p+6n99RvL7IwhdR35DhQBSoaTEOQfb5IJuM+jQpgPprzIX7fXWn56WRW6b7sbmL7pMBASt1+lsX7f1Mc2rx8sraiGZiE9ZyaPuH165A/hY9bWJD5haRPJWByF4pJsBE/pbndmnRUBFKgLwF7z/yhl4Q54OwUnVbdSMev/f1E60OAlwPzGO/Q3Z9M5pqi7k85JH03KgK/xbIktIeelZHymdAuHJ9HohwOJgGTBJ+FPUMoB7YretuE4/al0Bn+3xBW/ABxeqUG68GqoAjoCKaFXTQy9ydpUcDoBj0FKnAisP8c4QVEpE8fZ1DL5ru61gSdy9/aPLe/p/e+NqpL9fvQRvBwDrmv8HGzX+r/UyWDo4KqhFmZlFUxv243Kh5IptCJJ9ONsKBXHeXhO5ZEynN/eVhxg5UnPZY3q6GOcPe63GTEUxRVRr35mddsRTzVwbirorkWzP3qlvb16vukwGRwpJVP56tHzMt/Ews19Ekg06cmqQ8pBWMYo5hggrAseIcGuvk6Zzmsx4eWl/vpjfvz3dr0qBTBELFTYfjC+AAtxd4cNR3kBPlHVGZUANYOvdb+N/ohN6cbnu8Z/d9ZjQHK9SVyVwc+So7JWervRXqUQPgAbAkxTQkF1KzQyKF1TCiOq66jChTNBYIIs/MFescz9X5Ts+2kyYdAKWfHkas0AEv1gfPJpBhyGXBfZfhDpaMZjSLQ0JTLOz3sCiE3RUVHm6lksr62+clfWv++bVvzb7m548dPSAZlpMfW8Ouu+q+q8145TRFD3g583a+T00gRh3Hq2BgReqXJ+/wWsFhVurindPwWYRwtQXHxHOuQ7isg9XWVEE9keYLKUlscSm9Y83E2XX/azhYivZ1P+qTAaGTK40s/pXjd3sxZXUsl9yWkUZ+zaBuVBf8edteEFGcPfR2wohjG7qBGft6I716f/5BpssR3fL57njbsFAzGIECXEThjASjqgfUjrXaxKcfem0Pa+3A7EyfMsfV4Q1LawHnTTmdspJFkVVBgljUofo8/b0adudN2KyAz3G5u9oHPlHlltzorntOB8g7HU/rHemuZAeoylELIU9wo9StePAHChV4cVMj3Sc3IvYXaX8LfRnQBwIoQ4ZCceG7B2SdSo5Fu1pYIzaonBKLNmU+f9Oqb/71j2487W9n/mHuVvMqbckY9/U1VtRy3/bHt/bpWsv2MGNeSOXRJkXd+JTfdZ4RJ0oX6TmeuCKp6zz7Mf299NE7nyvOCCCAxuKgfcyu5eJ5D0f8rL29lbnRck59H8yby0jB1PunnHdwvxj3Pu8gkl+yDj124vJRk2pettzJDRrCJRJpd/S4N18oHCgNbY4XWLyhFjxDStDzBx2TpGBi3BCfV3L++sUftRy2/tMBWgvxs1xFjXeV6oVaj1PjwWKCArVttMUGwetSJT1ALWi53W1NmUhJL6OfTj52stwViBgrfQEzkQVxogdUs3QIT9WBKtmerEO330/n7u3HFFPCi3VuGw8bMcaFlCC9S3xQAH6yNOjoU5kOsE3E4N/GWKjKZXRk165MulY/PmYX/8/+78/nPjvnJP+AKpYXj82b97fPeOPZBd8bUzOlymV6OVJJGA/B1yWYM+i5EH0uDsRZ4Q2Tgt4o34Fe4j42Xo3h11OEqoRB5LBjbgxBZJJBNBwAsgzz2JXqYoFqc+Wu+018cNhk1i8MAP2yg8h1LP7V4/d4NpFbv9wTAPbb50YdBAgm3dmUSSSnuwec7+TsPYKst8/Ml7yvKNWALZYMCNdphioZUTjL6JgKuCLeTNQz6bnH3p89EPXSpWpJnzCl8W1EIK1OQ5ejeMeDb24f7YJgKR8CnNsle5W1KzfUb6PJ3K4fq4yTctNnj3qZqfF1lTV+6FwkhZF2enBsT9aJckvO5NqNzqa4VuYUiyl9hW1T15H+gGY7cVwhApHdcEYQgagBvbNFW/1xu7Lytr2OH3X5b1869p3xB0nIWw/MIz7PGn7TNfdd5THqJyTbUj4FtSo6BCKRdx7wOiiPGPEFQTkYDGqGFnQmXINFsP3xLwe+XLq7FU74xnBi0XdHkP1MBnUQbwVXwAxXerMd6cXzv3Lc7HeBou2X/Gm/GBAJsPf9Dh2+SvImFhhSso2609NZAPxUWBO+V4kb4gXq/EG/GyB0yMUPEl9NBFW0ieOo+IRcnAWIMlFTmFh0quRhshYe+8oLH528+NP0iNItoM2feee5U5sy2S4k4cU4C3QZPQB0FFIUpbx26htQoIi+bPGaWQPREPdmbPY/ZO6i9S3LsuiB6KK6gRhrh3WBPENR9xOPb2mRWPktpNteIta/E6ESeocMCD0PHiCUXT48AxYS1Znompi24ZXwBOuKS6775i0X/fPgAZmycubQarI8f7n+jcPMVPVkI+Eb4SGaH4Nq+8Aq8qiDTIJDre8SxgOCclzSAXBYTrrqePu23HCp50/srQU7IH6i511Qy9C+Gw7WsGgngA1IRUpqtnnUpOB/p+/CWnqztjf1nn4xIPTB4UbWdtQJ+99nyellGh4cJHtQeA6KSbENSCEH75y2tA+Qbd3sb8KzEF2nIi9Kk0OhO+WAaaujxjDiQNU1vFYPRrpa9FmPP/rfKe0rQfw1wI6pM4OdwYh3Ne6DdjE7zHXG24EilvqiKUWgBFYtXzMNdElg4hz8x+xdg2umzBz7YFZLrFfdDuNCj/Eurr2V+pY368SJ7AF1ZRMKkRBX9EykM7Eo+JQ+rxkWvnvabmN+/pePTnt273MjnaW+jS87/3/v75z9zqsrz6nxTRitagEWQZbE6yHjITrmC8bD4cKDk5iPQOw6CNdgKbCI56P7Lzv5Nvx7nk2cZxLIQaFn3EaS4icjBwSptwrqySr6PzrXf++Sk/6rju6f6INuq98MCNImxrcvmfFhsMZ6X5OibTLoTVIwJMV5duLEcihDZDtE7MdL6OM0iWsrHlq+QIC+ok43krGkfLAbUEYD6SwVNiPiGTHi9WcWnNm12qrt48n7/e3hEay1bqzv7Zya60A2EQ+Io8tCC8x+CLhx7/dTb+EHigUPnfBQR3NsDJYKujUH/6HOkZJnf++kB4LV0jumHG9jJLGA6NvJnxdYbTcHYnB+T6mT4i+7oOsUdcknEAQWPb7yycl814KTkOJ+BHeMnDy+cCjEGnDSIaIgSwVjhZOkathkNdCVpLS0El1qBGIPN+4U/uE3zj/k+qteOPCTwTBja1+yxjz0j+d+JHdFJnWuz/k8agiaLCkEWaL24RwO4sr5d08DQXDm7s/LQHCAxawW5pYoo4gUVnCSZRB5ZPQs80bM1ulzRjw6cc/+iz761YDwO6hkyYOO2fkxpTK9KGm1M9SbcRPw3kkCEmgm2oBlggFSSRHWnRl4QYlz8E46R1CmiRynyCkK+oIc8O0mNYYBBw8mUTAPAy9OxgRtIFKqIhSIT97zr9c8dY6+2LLzdQPjkZLGSLmvnLbr83owszQJVJwMrHsuC3oNFekIUN9QOlHvD0ekW2d1YSMqdPT3AEsUIXwoPWBoks+nhF1rlg18xcctndkZ50irpu/ecHtaWb+AuTrRg7qO+SHuRTl3SoEGwPSqKj4UoglBY2/qVFSnHQvrjZ4NGd3sioUiL7RbZJ5Kod+hCofXoAWDb+60yZPeC33xDd/e9Olvxb0LFDmDWwV1STT3kg4EUsxA3PMIW0aBnE5LaSq6NlBAck0PFz4LIopY6/jZrbclrbb3jHDH7/f8+tSrrnv3q8/v+xO1X4qwWzqmvX2dtdyquPeG/56dW6HuXpGtrQlJIWQSMPboXdEUQslRdFFshAW7sODuEzxfpKOjY+/iJJGUg+BKkaLAXupDwX1gauHUEloO64nXmgmGjMmTofuDlgpNjgPusGLBwcdNe1Sqt5kW++nC+3UE0BeiH3zMqM+SZtNSX5XV1g58OKD+KKYj7cMXKHn42Mx4TwL1ijh8WP10N735mPwicDY626uwN7qCnI+DZxJ/p8WjQHDGrdWNWvxu63EvPbl2Vm9Ovy3fM2pqdafhSTUpfhlNnth4IGAkEHK0/gdAD45IDJJssGfBh58P2O7+3szRd6/c7+1xO1X8Letu+SgUkRHD5qCHDjaDcDVriXagO1hjFeFK7vlz5n1eqUUKFRsW9SGZcFYMajzi5HgFQkZR8KVEKupycGIEiaEtgcsjSvHlHFw2lxCEbkijgdNNUj0smwE6B2JX1BeQzuS4IZMB8/R4wdADuK7sgaftTrPO7JpMiq1emFCWP7DT/rXfv+KGM+783p/nDOhaR/FcWe2W9+7rPzz883faj3RnKhtDagXzUGMk5oJkKAw7xCg2to5gluMAcWQWPrSQ5nJQar1ZFf39HuAqSXEUDi36nFGrFekrzkdokPMrQcALFFPu6LrGid7H9jzSv7z/r6CfP7FiAms+7rQD/9WltawORuClw3PnIRaMhww2SDp4cxJNDD0w/eEF9/M9bM3HkcxlJFA37K5bn7xQW2CR7O2AOcaM9XfW1vs+s+R41DDRrQfLAQcUkSAKhNRdXOIiLjfE8JT0rBFZuXjtZKs1r7c7YMawtxciTZW0ky847AVvQ+5Oqdp4rz0TzUiuAIsldVblH8braelkzIaNCnVGExQglppgpgKILBz8nNLGcq4oy+F3OTWNf6MZDJ5wDlojOcgl0JfGvwL4GbTdAHfk4JTx1+Cxoy/F7+WEQok0APYAtjDmh42oZB5XPQxKA/P5q2BcAlA+drMUNp0YbFVzJpbrlNs+l+u77mjcVb/ge7885Mornjzwg6nHbb3kaW/Hr6/vsxKW8uI963d64clF50ZbvDMVJQKDQVTmxNkHKWHsuyp56AMgiujtvZJzq0Pnh9gCFMosoOFf5tEoolWsER6GqvGcGkl9dPZFRz9KWYnenmtz7+vXCIQbB5AsnvTdiR+E69m7zJdtkeBRke4zCZqolPqhgJFCLvxXUjnI/hhJ6guBV5+K6jV6vGLOzb959RTSVe6Pj+6Pz3CNlpKz5457MamtbdYJXYk54F0IJC5FWs/53Hd/nK2Xn8HTNkqweX18BhzDAUsP05u7m3lydcsNd55977LoR3eZkeRrViDbxVw51pXuBJKJqLWJ/oNSD93rEmRMeJYEzhX9zKlDuIFBFI+0iolOd/4dThgnNITREDQ8lG61EUUUqeDvGXTDG1Chk3EuQkeS00bk6+lcGnWAKGtDmSZY6YfwaZy1aety3sbcEmVY7FH/hPQVx16w9y9+9dqJr+x14YhBka4qnqPWT9i4u//6vx+zdM2MkHekoioBdNIjBY2GWoVSd3gOZME2OqgPKg+QCixxd5kGSBIRkZABUfF7GRGJHEwsGzHJ9/jU/dg2iRz73YDw2ahkiaNO2fvelq5lzRqEpggKSBOmUg2EGtioOIfdgvh0BoIX3NsVRPsvaYVUBOsheBCZ/P6La058+d61s9DtWrLSdM972fug6atNtW2NwUUKsc1gYYE+hDdGduNq6u0g9OF93PuDM+FTQqH1KzrH6VEW6sPHDci3BneROm+5/8f3hsel/pRyL7vPCnZ8rvrTmuTG5g5qEODDRRcxNjOqCcm8uS2AGge+QDYnEcCP067REwTDgiBAkmOI7Dvw1QWPDfGFDdEWABW7o5oDVpC/x6YC9m4gceA6SCmkNTphRKL4N1QCAxB/C0isKba8Sw82fSLVrL4jEfzg/x169siLbv346w8dfeXIDQNyUL/kosxlVuWtv3ntO9mWqrmSFqmhehLp0lsAxHjAuEs1EIpALNL8GNQ2BM8xog9SHyWpWlG1Jf0P1GvQdpC1wJGeWzX/G2ft/19pVP9HHzQNDjlVv64TaHPrsfnWomcfCb2UWJ4YjrJctYHwWLUZby14AQZmUKZ8L56dwTyJKhWrkCsIqQ2SllJmPvD31y4+4PBTLsCAtvXroPbywybNUpomzKh+sunj1BwUSesVhO0UAXIqDbHdlPRwUQSXtbxalzLytRdiU3Ax/YZRL+mNFZ180iFSV8s864WrLrptVdOiDz/2K7WHKUrlTpapjkAmUSXJUQo5OHsv1pNMfQeIKvgmx39ncx1xOBUxKRd+x4u6HF5Kc+nU76g+LmC3fgg60eaSIQpvAEBkfCillTXTzOSsTKdSYSyzrI73kTF47oiv7//BcT8b3/yvBQNl5Lb+Oqw1lu+O33zwlQ9fWntChTJhpAngCDmsOUQdKlK3VDvSUZFyYZxFXxrVOLaNH731V79176DZRozKI1ii6lOJ1BKgCw3GI2dhvj3xlbP2GnX3rMM9fSZN3NyVbRMDQicLjWKtJ3z7oHvv/f0bc2AO9zGTsJR4UCTcKa+LyAjD81c1OCeQLl8HSZnLBQ8nDaSG6Qtp7to9b/jh2xcD/fEbaZzUa6WvrVtKm3+1NFbKPvGrj96557MFK42MVi9J8GrJV8GmwiOQElsQmUSvIH3sC1VVPX7/c0eA5fgdOCCid2UIHXW7wP1n7OO3bmta+8Ij770375XPD6qJjN1NyqizZUOpNw3DT/U0QkvxSSGQBqUbaX7sojgxyoHnQcDN6W+8oE5QefBSIS3JKTg4txMhhcTH0JcGdmwJ4+zxkdeWbddy8VZZtZZ5Iun/RcZrr59x8v7LDzx/XMc/PhrcA241W6437m7f58k7511dpUwfocUs1HjgnRMyCeg2g6CtWGuUSPdALMogZNpgvmVKcVLqClEsASpIRsAgOnfUO9WAoXnrrLfO+sExb0kVRSR4/Xy/28yASBHJzC61Fj92u/5+LqtPMNPeesuAd0W00HTjxPBJkNhtEwT18zBt+uMociJIpgZUC2nAe91VLNHSMeLD19Ye/f7zXf+12qy3pJptEzpuzQ3usteUtn/f/G6zoWQ1SQ+4qRZFXeDkuQixy1IdKAJCf9rvi6BnSKpZOn/ZfvHVrAZXs03ytaW6y+Lz7nl2A9UT2pfcby39163PvrZ+UfMcKefdFdKjU4AXHWUaLujDecAQCxZo4uokgTbOFms7WYTYIggpPoQrc3BYPDlk5I6Jx1mo6IkaiKQasEuJhOzOtBhubUlab/s4WKu8t+c+u8zf56uz1kw4Q0pf98pAGJm+XQMAGFLHAjbh7zc8eVW1OrZRyXpUnw8EguijNWEoaKUr3HEFQwY8dWLXTgKBpoJte/AemGVq8EREhWgWhgQgbMDLCH7sDWsrIyOUl0bNZNtUAXKbGRCaFPcw1nnMafv+5+7rXpnlcgXrFdULrxfVDwhrZAFT9HoxeQOlF6dXq0h4iTJSckG/myUTGRby1rJ4MjPxHzc+eXHt6FPbrbj1mRQqLeFXw1hPq6fCnA//azctlW1QgNZxA/eXySZQyC1t3VpF9JZDoVcHpKi6ptH16rOLRg9lA+Iss4knStS9/Wb8devjD97qePrF594cuXjh6j2MdGCaV61FPlRuTCSNKtSHvFD49GKboC9eB6F9kNJVVGS3e1xhKBCBgLBNM9IZQ9KTMmjlZa/ezNT0sozessIfMRfMmDv2s0O+dtz6Gd+s7bp1FT7s7l4t+gH5pvgKNv6SM/9zk9VVNcktBYIa8AqySlkOIJJAckDQZjIkCkAMGCdAmUGiI0dQVBeUH4PzQOoKyLxkMs2qakaxRCdE/UBm6w5YyZzS9OwlV572tDRs28Jct6kBoY0TWOwFLz4WfGb9B8lppuYdhk4mhNJuNDJFWKIrBvjZIG5AppCY8o3AxuYyKG4SjT3cv7C71tOxrm3u337/xEU/HXn0tVicq0u5QAHfS99/xZKn7v3z24eFfaGGLLpwFWJZBay3dNGHGJEc4N0k/+r3hgmfX/fRm5/vDW/yfam2fxueSjn+X3Tu0D6cfJDw+ctX/Nf64JN5ayoXfLS6tmllV2OmSxoV72gejhpJJUg86xC/h4Fm9AOC4jN1TUVPj6oGXSlsiSnUN9KGBRiCS1rvD7lXBKvcy7xhuWXy9HFNU2Yd0LXH2dVxthRn+c9AHYneXxfqrSN/8/9e+z8pVTfdZbjrckgr07OooMZqQYra4P1mZH0pPYjsKEkNGwSWtFsMen/q0r6TUHapJCjbI6ytvZPXeFQfRPDktkVHHL/bv2oPkrZ5HXabGhA+Z9VScs3j1uNXXfDkAVbCf2CqK+nzu2tB8BXDPA5+HSEZYSOyy7w46eKwSUwkyBfdZkPj/DdXHfn33728FERuf5MapFgpV9vXjp+w4pF/vfKxktGmpOJGyKUrnCSylEhGntH3+FgqnWAavChVlWpWLuzYzWxiVfjToEQA9WWOxx7Ga2b0RQ7HvPQSS+1qZf6mtVHfkgUrfSuWrvd3bIgGsindb+YkqHIAfRCR4hXV/uSIEcNTo8aNSI8Y06jVNXjjkV3s1On/+nJFA/+9uSVWzc1Xf3zGJ2+tPCjMGho8dme/B9kNcu4cpgleEuJoNUQbVGIaSKJefRhmn58iLKQx0SCqAYyteGIt3trsYwceOfEz9oc+fPAWvnWbGxC6jhFT2erRM0MPL/2gdZQ77JsRBy+9x4N0FkdlDd4COtcLgBF0YfKoHKdSBy80lTMZaKkD1uKSPY1vPL3w9BEja5dYXdZzqAuRRF1JjuBo1rrrPhMf/fCF6N6Ku2Iqh1aj6EbfSzkHCXhQXq+HR25IMfhiLdLMu/++6EAURB9C+E0akDvs4ZvIYULkeJTU+RioEwDHLPDoX6OHPnvfuxdA36M62QYSV/S6qED2WegvMogWhmtjkCdLtDGEPKT9hrr1ybgM6hI6nxa6jc5YO/P7q5nqRS7E3fLOSd/c/77ag7cPrf522b2liVL657fsf3/GvfrtDGtt0oHAikQquI7yYIbw0gTq4KBR4MlnIdySA12LL0DRCBBZaaRmUqCPyI6c+vRdH/y/+Y8nZ4KyXCgMleBAMd889NjdP49l1ndI7pSuwlUj2oxSHtRD6HAxUU3GQlQkZ8MNzz/27mkdy1lDKa+tfO6BPQLotfLdd8vyA+//6/8ubQxMGpaLZ9whkHcJ2LOHJbPkG/s4z5eEYIx76XRLgLkSOMFEMd2kFNegrX/Y7Q9A3wUDaAQ1O3BrLZ+PmuG/56unD6Nk5XY5tosB4XcSYIlvfHu/fwBwswgYE23DhiauBjZw2Hh7N94aIg63G2SR6NZKZxGHUIc3CtO6AVoK+M8+o9ptRat3/tPVj1y14HljGiKR7TfmPW5pxhxPU1W963VotrRboM3IoRu51CgGN5Ay6WwGfExoqkMXrVeqCrNsaPRH7yZmlHKsercayu/aHiMAdKPnhX937PHkfW99X2uXpkZcFaoBbi8FvR3ZDEFbvcgKhLG1OAgrgj0XGKg5zJm33ZXsUeynYcI9oAct4PMBTZbqTOir3znm1L1fA3R/u6ECttsIEhrgxLNnfmq5kvPiyWh7XXUtOqhK5pD30wRSZzfx0SB9RXBA8M+k0bjEcF9uaMIHIb7jBU+RlaiIyPFx+/zpN49d3fQxG9dPJ9/6j6lgqaNPOPQZ1WOsIW4soHW2/jP6+R2dMbB7gPrfA9ZQLwj9UB9GndM//KX/vn2o1jZ0GHr7edh22I/LLLcCC19nU2+5/r6faV2emcOrh/miLU0s7ENGI0vRhQ+pWXTxg+2Yel/44Yh45Y0IuU2IQqhrezAbEfiiWcDgu6JR5glqn+2x/+R/7X5W1XaFwG83A8LncYyU/MX159yqhJIftCXW6pqUQHhJ4lNiI+NcPkQoTdw+nOOH0peE4IZ3wXsW6EscggdouxnazT6wXr8HBHlRsKvqiES8nKBNIdQHagtZILOSiTSrCQ9nyQ45kmhR5/7iR7de3DzPHFOKHQBpLOu404d/Gqiy5uuS0ekGuR81nvFalK2hLNTZaOzF+Be0I0TuuD8PCkBVt8R8QR+LxWNgiEVq010NhuNw1YK3Vh781gvtO1kp3hlXPsojwMAz58q0scY///o/P9VbfDt5tcr6TBRaFwqIJdPE8A2RKFeQc31Fs1FkAmy9mzyzEDl3pd8z8lNJexjnNytomlOPD//iGybtcTbLv/1MOs+g0HXRWbgqAEBZus1TnXvq/B8e+t72Xib9uyNswdWP3ZOtmvvVUX/WIhvmab4WU1WSXHcgraVQTA2jBd8LmgV4EugZIf4a0udQiXiOILKkgUDjhvNwNt8BYETIcHggBE9BsQRIKpFFW6iLkKYDEJcsFAixRCaOn0ErIYcamhdkDv/bVY+el3vfKg19eTWLzjlg7D2SS11n6PD2dVB8G7hW0j0gFAf0IWQUIdNZ3At6NEwOfaSHDi2HRMKYb2jrDwNOjVAGiyY7MPcB5nNXMBClMm82zIark0fed9NzF+ZWs+otWFbllwzxETDbLXXtIjbxu1//y1/a5rODJ/mn13hjfjx3oE+DAZEU7BeEukK9w9ATLAjHRMsl+NrlFPc27b0AjFDyiuoiztouzeCRA6yjj4O+6Gcu8YxnjDRfhCYRsVuAM9CFTA3o+A3w2El4NjNaloWBMssZXazNWplKBje8usfhMx4K7rF9CufFo7XdDQgETXLfvGC/D9Lupg8sb3xdMkeEcDqrRFE92tXBGUOppqBhA3MD3USDyIXDCEHRo2lhIFAW5lXLbM9GaCdTwys2Ynj21ORjQBXM5/GjJqKwuuD4MfNfX3fSNT945HLtPWu7F4ox/saeB05fnjajTTnQIRGtO3Wmqy7yzgxcb5I/iH4/aMKJ+90+JKJ57ecIpCA6RV4Wp4/lDzdCUGYkXOFcp2/qS0817Qlq7sGe6yzNDjVEzpprs1zggKz/v/93xy9d2WGTKl2N1WBlR3pYyM5ybZT82qSNlwyD80VLijov7S8+Jg6Ja2mjEc40Yy/7Yg0X4oZw2v8oqyGjX4v0Y9JZqCjiGa2prGBxROxuP1jOK3KLa8Z5Hzr9/FnbrXBeUgNCJ6+ZxJq/ee7R/0iz9kWKDykgaBWkczHmRYuUS0GTG5p9PGi3tUgIHpswpVM4PYMz2HyxUOrFkWkt5ZNSzChcvCDpYkkB0M1AqoB78rEOdIrqGRfytY2jFny8+vCbf/f8acnPtr+GyPQ9vev2OGjKv01fdLmB9pScCZZWiAq5EPVRcyGFxyTdq2WIksoGOmwTHW8xjyRvTLBLglZK8MYsoHdJgCybshqevP+VE9o/ZyNKOcPlc5duBKyYpXYsYRMu/fbDNyrxulmJVn2Ejn1BV7A+0PkwENLYvR0dnqoi3XVSZ8XPwpgIZBgXGaP9DUhVHQhPCaAcnxtQZOyP8WwnS3NCWpYwXYmXvnneMa/IY7Yd39UX3d92j0DoYtBcaH39/CkLJ+8y8v6E1bVaDUE/PUNd6dRBmsFgpZCyQgqFjyh5DlA1dOoiTvfogOoh2TwtvUyKjJrFMmmDDQuP5CmjbMKlRnyjR897bempV//gjrP0RRY1zm23QxotZU86c+e3pEDnEiWQArU41PIQFlM9xOcB3TvCZg3/VmFMKJJywn7Rydt/Bz1ACp4CSo1RdGOQ5gU2BhlU50TNoZj+quZV2i7/+ds7R2AjGVCSwf03CuVP2twIoP6lpJazMT//3r2/jS6X5yab2Lj66hEcOh+DjIIM53MgZCF6P4NoY+DPF9EJieouwYsdaDHPuOhI4+PLjZeRDDGpVCYyXcxX4WFxo33ZrvtNumffb0a2a+G85BEINyJ1Uub07x7+vKtKf830ZaOBSi/rikVhQIhZFJ6FFgc5IfLuZJlRHLPA6W8A3WQg1cEz8jytRbnCktjAojEsjjr4RXVbT1noUHshFZqjfhFgmYOuOqYloISmVch+feTOS17vOv/Xlzz5/5petIgDarsdw3dCc+cM/yOa3LzS7cOmjdpHFmlDE4YbRRxEJBkW8KJGwrNHgt3VqTs5F9kfI6/yTn6kIUiGk9ox5Qwzoa6mgJaBdDH8RsP4d59b9o0lr7CJgPU6GIrtNk7lE5VmBDIbLHf7J2zi73/y+q8ya4JzpQ7/KHfWxyzAdKHSyyLVwyERTEJa/bEKS3OPXOOF1ANtB0rQswvtdZEuhuY9KpM+PIKUa9HBqpxFWtkL45F2daxqnBb+zxnf3fPTUl09nbekoz91X9ea47+9/5/XxRYt0ZVsllATPGGCOgK4CRG6URGMBhVePOhCTNKAttNZ/A82PK+UA7jpc4ulQIeL+IZxzQTnjcbiLJM0gcoaxeRckOkoAo4Izh716ast37r2R/f+2PzcqutatX1kXSkKOf5bB74Z09dsSORaUm4vFjIpm2HsvW5CkQltZUEFQcuX0Av9mzMm40//kSo61WJILU6zsvw7NcizHPppYlgJiYrpt93w2IWsswzrHXhrvf+vKAO0lcdkFb/84YO/WvBG04GuZKS+ylvHwHPF9JTJPO4QCuSkwTW4ezlEbVegrkSxn8p/5CBT2l6Mq4IX6aQqCTliD6SHTTyTmpyOdrE175124aH/qt4VOrYlPEpqQCQQVx975oiPpu1Vc1s817E0WFkpYKUYPdrEcibxzAk7jG0NWzJCVm7zaOQJoVX6PobuNrjIQabNFl8er8phvgGE2xXeSiwEg2XiGjPSEKHy1LFMp5d5tZGjMk2Rw7/7jfv/sORdY+L2Wg+zDgms2nnvsfdoUuc6HVGfCrQHRYBuF0V+iAdyaMDKL3AxE/190FxzQ0IEd2SrqNZFSDbSxsCGIQHb78qEq1d+HN33kb8tOwLknIOZf7u/h2/IfZ7WYnk9GVZzyYmP/a1ruW+vOt/I2hx05DWkrCKhMMTQXEizVrBYLIPNlUA2gzsoJWdZ5FRIvpj+H/VAjhoTRkUivRc8mzKcZ5LlxUPKdHd60b5HTbphzhnS+lIvgJIaELp59IakLvzxN540A/G3M2asjWBrpMaWTGdgRIBcyhfORXiX37DzKm39v6lt/aQUXVe3LAvIFTOQDkVdgb5r+PIAGut1+6Cl7mMaRKhUSKj7lWqWiwZGJ9Z597/lqnuv/fRBawaElbY5zzqaO9Onfefol8L18vyUHs0RtYmG1JVuaFwv3YPFuukkc/8tGxP5XZ6OpAI6IbGohwapSgn0MDK+B9QQC8hVzJerHf38wx+ckUROHGPTfxew9ZNdfsc2GgHUPDydS9ikC064+9amBbm9tTZXfaojyyI+MDUjzRPrSqMWEOKiUH48R/BzSqpm0x/DQMaDSxrzA2lcKqDbbjM9GAQuCaJJ0usPsE40DKJJan3taO+DF1y+34f9cf6+fsaAeBDHfkVad+q5X/lbRt7wcQ58gyaKtwZomCXq4uZGg/SdURcBh5ZzyKTpzaF6pT5s48H3tOLhpAgElNIqQlADUSbw6Qo1sRCuG3lMWjS0X+bQSGkgqatofhbINjRKTXUH3XTpgzc9dO3Cr4FQMLit7270DGl14+SKZ3UlsV4DGovI6CgaIDSWRprdRTUdp8nQuaa+Kg3Q+104D9VdaAwErJGU4hBxAsrL61vorckhYlO0iDfd5t/lsu/cezU61Lc7/Hlbz8OO/vmobwXWvs1m/OEnL/y6eb60vzddWRNAHxWhMQE3xzpENArjQZ3mhgbHC6JJJrC8ol9isB5ij6DSuIhCcHDGYNwbNRhS/KGrgNO7wO2F/c8NHK+/66VjTt/7Pu+E0qau8vvwQBn6r54w+vNxM/0PmP7Y5wkD9N4I5bK0kfBuaAwquJvQuI9/iKa2AXM4IRLPvzhGxDEk9gIhZm3+RYbQ/iLjxxXjBKEgFZNdGUQnycpIepV731fuX3jZX77/8nesVdsWoQWiy8zh39j/zVCd8pniMzUq+lMPjscDhlz0h1Ca0MI183kocvyF8ejjw2tDg8kZsJ8egUjhhXsnhEc/EFJrcg6biVlT3bxCn3vHzR99HWR66CArH0NhBAhh9/ELbJf/960/39L0mbZ3g29COOyqwjokh5HS13AqOENFYV0oIJpDkrvf63LbdTz5+qf9gL5T/ZeiEdwz9joyKrS1+EO1cDIhGBGR9azSvHT2/sP/csiFFdtM43xr739ARCB00f4ZUtePfn38Y+66+DNqpdESqKllkNXCIFKcSvrd8I4RnRCtieP5DgRMTs+4w4lChLdO3dq0+RJdAUVQ5Fk4X2Jj1uBhkzSpScyL+DmshFidZ6Sqb6jYa/7/ot/5wdH/ut5aaNWjmW6bzdWsQ8LLdt538qOWJ7WGxL64ehuw9jkYE2H4RKTHm534oPejASfoLpdjpRMQpJHkW6nHh86COpcCBUuQPirows3GUBsz6sa88fSCkx//+4K9MCblesjWPvED7PVWpxV64/GuPX/5w1t/F7bGTM91SBEFHjfpw9SE6/AQAXll+vGEUMMg/qmAAFRO8S5yUYQeYDe0lZfTcw8T1E703NG+ILO0LrMuQOrbc6tXTpgbuunSq3d/ZytPsU1fvs02pd5cdcXu0oaDvz77rqR7/bz1Xathi5He4SuEElnC41BAaUIlJr6JbR/A0pfcirg+cTjD2WNYBebY3ogLXbCCahoFZOT78T8YkQy8riSToR3vMaphM2snxldXHPq9Ux7887zHtVkI87dJXURqlDIHH7nTG6CEbnGDjh696ZykjRe27fSh2OCpX0P0hdDDyx/gPkQhfEPINygSGsUxHiL6IM8M5oPXRizScMfGElLrmJKumHXXjY//dOmLyekwImWurN48bCV+jxGD+9RiVT9xx8qvXX/5ndd6MnWzjJg7WBWu5bxoLtQ4UkkUkAHfBxRFpLK5M0MGhDz04uetxDfTx9PTMyCK6eQcO0V1OHG45fZ0GwvUyjFffebpk8874Clp/ABgQC263wFlQOi6Tvr+TgtGzvTco1R3feyvBeZboW5T4fMKQkWiZsbmwr1Vp8mtjzPYh7eL6xHXRF+CJlqYPAdyTNUax8x0oy7g1w8kCXFRqTAixN+DByQFLh8NdCJWNojOkTGNqbXVB//qB3f9/V+/XHIERHS2Sepm8s5sfahaXqUZmpHDuamD3g2WXOSObMNH0Uc/j7fNZyYap8iAOJEH+V6ESkFthLqAAj7w/oD/Jxxm8Q7kvdN+nxKrm37zNQ9e2vUZG2s2DQhPog+raMd6q7Ha8mBZVf7hR89dfMdvnv15jTVpTraNeT2gX4+hF8yFJlIVzMwZdGHT8yETIg/GgzIQmHzu1HCoK/422CnZC1RIRBiLhgVyzmx6FgOgFn+1mU65V75ywrm73TTrNPeAU+kccAYEDYbaz67/+rPB4Yn/Zl0bllu0gZFninoI71ymCISa3bi3X2I65rz33LMTfVOF9eLUTyFSUZDf1UAjkkWjoQkjYnqxdbqxiMAHpgKtFe1MM69eHQ5kR8185t/v/eya7z5zSexdaxSQSP3reVeyxKy5097CsCZMGm9qLEQKy+ReH9JrPNam8RbNnf13EPLEjm44ZFj0AfFaEbYHF0jkSC+EmLkBR8AVAGCRlJHmm1Sz7P3EMb++8pFLc3FW33/XU/6kbTkC1nrLl2tmo68+/ak/vv/U6lND6RHTzFavUutv4CJsvkCQuUBA2pyIsUhVDXciyImh+qdMwlA82Cf3guCuvGtsW17uNv1s4SYJh5O3JRDfnwmwANJ2JHxFqe9obtnnk+YGbzn8tIbl2/RievnhA3L0wzOkthPO3OMOTV79jilnk6Q7Lhlg3iRkFqVUyKhwf79/99BejSHvR3FYPZ2ish2PcHr6zX2RN4+cPqCytCHr8LYyUOSL6xJ2cJAaWknUgLpYVSiC3H+WVUh17og+fOfPXtvwzYu//efrFz6fnmGtAwa4vw4Xy42aUL8aqzilEtYcBi2Hzleei+X8PLSfFyo+okbR9wR0gcuI0mJAXvGHqWCQOaQ7m2Vu1GYSiSgLIxrxQe8h3e5mwyOz/Es/6TrkwrP++VNrrVXbX0NR/pxtMwJQ5AwnPmfjL/3m3bcseTP51Vpz2thguhYQbVCSp2ASJB+cFhfrjOdYRWUDa+lo4/UOSY7hSU8TcTOWBiJ2bLBEbQSgXr7hbttc8bb/VJGao4cJThqBagyQJxoAX1J0JedaKoan7z3/Rwe+gTRz3x+2bXA7A9KA0H1+9aIxn5103v5/0N2tHxlKAilworoQ5IkiT2gjm/AbhzO/oGNRQEMV8+vnS782DXz/ELHZuhndJqfnXBcPc+Fn+imbBacPdX97gTLywftC74uKn13oHSGG3HQqwarQYJnqSjGjS5HC8qhxibXeva/78V2/+8evXj+eUFporuv7PCLPlsvm/JlUFvEP0gM5A82PZJ9snDqHF4qNXRT+6JT9UUwXly6iDmIhpTxwYfzS2RyuA5Tz9PygO55YSekCZDxgih5m7kzj+M7VnkN/8YP//shaXjYi22CP6PNHmq2WC5D02uduX/W1H5x525/TG7w7+3J1NWbMDZ4nL5cT8IJwVAZ9jQaIbjAY5ozQXuJl485iQS+DABYiEh7Ixyb2nyLny9mvKHXLXc08GMDuRlfAxuACxayn+bUf/PyUfw/bC8JJA/QYAC785kfmuPMnfbLoo+V//vy1tR4lNWLXbNKFpjsfIKYSi6baQP2OjU4OosDq1JYLGxptdYpd6OVnoAm0DYeRb9YRQNRe82nZDJp8Qec9dBGFEEUH4CNFN9dzjxd5fyGaBrxRDhsjJF2FB463YhMlYB/BfONJUDeD1pmYOs2kykLyuOFWe7bhlfvXjJ337p1fPe9HX/8dxHaWIP1HCeLeHeh3/HTeyj2MjBUydI2FwIOVSncyxYuHmNd3iCU3Q0kl0TfbH2UHTmViH7buCDkK9qzwP7iokG+AfRVfHg9Ce/uvCoyroYH6X28A7U31xIWvLTj+2sueyGY/t/7kmSwNuFxx7yZl8L+L+js6l7LRd9244Nz/PfjuSTXu0Q0RpYIlU3FGApQ6UtJUK6T5pXUfAGTbQsrSopQVJXiwzvIdX5wjij/Medel5H0gNr1PgZOLnnvRw8TTsfkppKeIyHWpNgpwCBXOqZJD6xq9LtT7REeWRZG9yqbSvuaXDj55xtVzTvGWjChxS1bfgDYgUq2U7XzbevHK5XdNbf501chRdTsPi7UnWDoOqJsLHnLQD/2KgrcqKJA3vm3+O04T4Kw/TCKHjjo8NFsyVJt5zWad/y3pkRDXIEru/Jv9fBQZG3uBCq+fakHEU8V1UuC8+CakVrUG/vKLRyJTnqp7AtHIwyzIusB2XBDy2MJba1/Ohs9/f/mePnW8O6AGQKeeQacvkRw69SaBiuKbO+5ZFP/oOrfkPr/gIvLj1+NzNjWuRb8ThXcFCoYR1taygamBynEL32k97tqfPKjA270eXfbtW3jr5ZdtgxGIb8iowYDHO+8pttvtf3zm0lUfJ/YYEdm5yopbUOnUWdAfgREB4hD8TmLZ08abB8EXXZHw5rs/1htrA22DW+jFRzr1jCIXyI4uhN5HAYHJnyX8TZWRnEuDpiUSYRkzjp/bDV9Y/2jmbjW3nHPJrPnn3dSLy9iOb+l76mMbX2zlHtKGiy4/9faqMeyJVe2fRN0hRCGhSuToXSwVB9QUO2te7pZ3p4svBwtFxSmi6HAoksUSJR5+KlYNRPvZoyBPm+YmjRRICFETYh3BBmtt1WHvPtB6zfePeOTO+U+wva2VVoXVtuVdMijIe99/tWsXn1xVCbAT0kWg14cB8QZAJUMjSTBah5/HJn7jq7/EiEIZmPl0ZjXSH0nwjNUzvXPYtCXvsZO/d/x9NyQWWqOtZD+k9rbx+h6KH4+ow8faPCPv/+3S02++8uFfrf0wtX+F3FDFsqAjQTRtwClRAI5QoD8z2A8OKNmIhcKG7OdTvpSmIqNHEZVwch0iRaLtUVx+1hGLgTsIf/DHF/tqU498+8LD3oDGx4CsexTPWX8ksbfLGnj48qVzHv/X+1fnOqoODil10L3VwS+VBicOmox4dNHDFtqeu9MxTRPGhal4HUX0fIr8vpMy2S63sYmTbCq1tYmXbYIJly9KNPwRYaOMr47MBs0KJJbUTXJ/8NPfHnltqJGtVcd+cf6UeksWvcRmXXn+3/4SMafsxDorXLLmYvXVEdYebQIyDMSP9IxwyCSJ3wANx0GUSDHg/GJMS+SHECoHAjuk2JbJAZUDESzoyzB/nbbaDK19//d/P+9nNdPYUim49RFZqVbDYD+vtcaKxNezxut/9sjlKz5N7Zpu806uC45m1JMKfDiHYhPTQSKRYiF/CJFugZ5oMN479S7RwWu0tA/ZRsNBKvI0OsGQ+auQuuIZLpHOIqdMJsEopPF0CfD0UKxFrW298/LrzvzduKMlIAgG/jFoDAj6H1RAWA9f/E76iswG39zqwHBJRfENXMf2BBYQGc4kFiWtRImCahV2t7Ng2Ke0DGV7+piG6dM8O5vvl1zDJgwIUWuFIfsbT8cAcQQlukfm6C2wdXb4661F+x0x6949vzL81dGz2AoQoaewkebpi9PNls+L2v2rj8f2vO2Ghy6R4sN2ja9XIvX+iSyAOlNnvAl4fDwU0OYgtAsZEKIY4aAE6gsG7TpFd2RKSmVACJGHjhDW1dWJ6fQQ6QpTUHhNGlFWNcrfYQU63j/r+4f/Yu4R6od9qg/1aX53jDcDnovGDVb16G2rjnzugXdPh/jTDLcWqoz4q6EsCcEy1DVccPa8KJCnshYiR7gjRFEDBgaBYhx8Bz0LVKOhw0BKXKAVhSCUQCkiyQrj4dRDnDvkBgR/JN0PDWMRqPKyzuzKVMaz4vlzf/y1Hx7+43ElkaftzQwMGgNCN5ddZIXPP+HOH2otlccEjRE7ZTpQB7F107kXYHvCQtVL9BHwwjl+EjUGMiDEtUQqeDA+xHbJCRpLuYD7ZkAsFN8j3ghUyjKAuvogyMRYa7KZeYCMzKnt6zRXU1vjJO97+x+20+N7Hzh3Re1o1kFEYy+/nNrl8Qf+9/XVnzTNcucqx1a4xoWMOOR30aeYSEHxDKSKOQs1eQwTR7dhfxAUI2RAdBgQ/I0j40pnQGhuc+CXI5pvA/91xRMcxUa+QdJIM8sbT3lq4vOA5vvjV08a9iJSArA05aO/RwBw8oroKjb8knP/+RutJTxNTgTHVylVTAcNuwQD4QP4gfqK4pCuThBxqBpECovAL3hiQTQ6qA0I7SPkgoL80ABizEmXC2SVMDBkRAQalNfXucMqtD/wI6QGm5OrWPVY/dXJe4R+9qN7Dn6tv+dnW37eoDIgNBDtb1n1V3//4e80L1S/FWaNY1UgcUS4SKkUO1DkhoEMSMEr4H/BBkhdnmQ8qLdETHyWo5sGzdEjEon4g9BajwI3X8u/K0SD7oYn7tJQlOsAdiqqhSvdUfyrLQF+IWK7tSyXqpsun0cJ1FoZw1sdHsbiLej0RXGeELQVUFA0rASGC1gYaBFQ5GYirS0MCNWcQCkDXH7JDQgmzYv+kE5EIGHQXRP9BaVGPIBBR5NxFqp2oa9mXc4ItM3f/5hpdx99xm6PNsxgK6XwJsK5QbMABs6F6musYC7Kau+65ZMTn37gzVN8Zv3IoFlbpWQAQQeiECuNa8tQP1EaaCNZ8TIV1OxJSAZkYEj86Omx0OMjmgMH38Ebm20DQsaDWDMcTXO6G2JWUAB6UUBNRM9NMeiEUl45pIe7jE4WbNQX1k/Trr765mMeVscPrnTroDMgNDEL77dGg9rjGneq/iuqFqhXDNrcKLnodKaT4RBGhOgACjhyEqtC0Qqpr6FgQCiyykL0KYC0QCIGpmf0kaTTKVZTGYJ2wAbAnBFqYEi4xooCdl2kpnSEKLzTHOgP6q1QEK3FEnEWdlfDGcJrEG0kU4ASAosO9xBDitoCQXfJgOBh4GE5crbcgHADXboaCMfTkwyuDhJKH3Qi8F3LkJYJRHK96GDXULB1gQo8mDITrHnF2NmVr37/ymNvHDGdLZZqBgYd9uDbNvGYdVrejhWsfvkn2rjf/uyOK1WtdrSqBceCqQy6Njqr8FewTCrGakMVLJsGalLPYu2BkgQNqmmi6AFslSISMiy0oga3AbFTWAoMCEUgyHwUU/OQAREOq11s574LEYjqTAf4I+1vW+lpiN91wx3f/G3FLmCMHWTHoDQgNMaf3G5O+vWP/nlt0BhzULKDVdZGhjELBalUIsv81IgHidb2aDua8oAg4kaE8pKEvoIB4UZE9I44XkPJ5q2nM7wVwCHKoeqy6Mh38qwK5+XCBg+kiyBow8EXL9UwBP0Dr7bYfReUBnLoIcQY0OKGJ0WswbxfRhgQ6v7lqT/bgBBraKGIXprRo+vTwdZL2WaaTwVeHjUhcq0V6lvBQ6qAz6st3s6CdWGWljujCWn1wq9/88CbTjt/ynPY76JS1cBHupRmdDc+Kyj0kYdi4dcejc159N5XzmlbnYNOfdVMxQi4OKCDfGxsmHwtAmxBCEmu2cM3VdGIKmArlEqm9Yh3OOtwoNzkVlyHSFGJ6mohhUWVOBF90PNiZslAqoDpVqJW18VCFaAn6mrhWQJXRarVrGm684e//eZ1k46UWrbi1APmpYPWgGifWvKz96/a5Z5bXv0NlMX3gPqt3wRMsDJYCw/Uy9bF1rF6pGaSWjy/eGnUaYHzzaYo9CxAfEswL302IILSgdAetBUSpJlI2XiqiTd3i/Seg7B3inwOcKDAa0V5WfoQop2nYqDQAOGoNUr3kQHhfTNEN0ICOILmpFQFdJopx4DQM0yeHqFd6P6F4RToOgM34UG/UBwd/4Y7w6RgKhvVVi6dtkv9S2deeMwdE3Znn6NnZMB2+pZgRW50SkQcUHVi4c9f1cf9+6/PnrtkfseuAaVxVC7mqvOADYBy/MTbJPqExJrhNUanT4jQcnA4HCeO1pNMXE9kTHineSlBLL0fYZ6UIspcXhQX2Q6eOufPHI2BAjXBCIvHkkxDKjgYDLB4qhUcX6BsseKxtGv1C2ddcfClB100amXvr6K07xy0BoSGTV9kuf967QcHv/bsZ1daKdfO1b7h3lwMhIRZFekY6lgHJTSYbck7cArq3EOCd6QaDnqCWF9LuIA3d+4vjUREM59o6HNYikVXPQ+Z8YDyPhc7ZLYU6Muj3kMLXdDCCOp0RfdxoyCMB+mWOMbDhh5wT4qkbcWGILr2abNw+L9Kt4C5AeGZAYq4BNZeGFJR6yIPMKWnWG1VHYtlOlki2466iJcltE4YlM722lG++dP3aXjmlPP2fWTYRLYG0QjyXeXDGQEIPUlAVgWXv2WMufNPj5/9wZsrDquPTKtQzar6rhZiKwij1kEaPYKFmvNT8coHPG+Hp47WHxkQIDdEH4RdE6B6G61finYHUw2yx/Jw4LkiwioWXhOIT1qHlKoLIvKIZ9qYocJX8aQ6Y5nWRRdd9Y3zDv5x1aeDecUNxE66LR5PdYqkpedbb6xuWvOvpiVdnmh07UyPXOnyequBEiLoKXmhAgHBjQR9p0/ni9pGP5XSeGzxnW76hZy9M9/dKiAEvMGe7hsPLU/dkXfEKdnp35SWIgPCzSmYVjA2MK5kUMXid/SYC81RHKbIESSic5aP4wAaMzIYnEaLQ7ILc0wGkuY+EoC+BJq0QLPEAp4QS3eCswXrI+BtqO5c1XzAS60LR6xd0Tp134N2eiYxz3ovMIZtQCd/7ylh+jinA+HtSFUpuSZWueQFs+HJ+1497J2XPjtGSkdGT6zZZ3hXu67kIPRWExyGcW0DZ5vgLrNIx55SnM7a6rZGiD0BBXPh64iDi8QN0up50STlWwac+7UjfqfmoRtASaKnqrl9FfNXIUGsxrqSrPW9E8495OrBbjz4NA6EBdvXazBXWN4zjrn+svR69fhqafxsORFiLhPQTugJmwqysPlOdIe4TMbfxSbJIb99vYC+vH+rI5BC0x5vh+RUI2QNRE2He4OcApuiDWFARFWA4LZUzxCRF4EMaPPlRb4ieKGjT+A8AE6Kyyl0Fo+XEMIpURMhv1lRkHQMB1/OnGxPVEHokGn+0V4PZRkg1OBA4F6JaVhBUdcHVoM2dLJDcyHWmVzV5Avnlp990XG3HHjKyLdQ9kmi0O4oF/VlhgfNe8GWqyK4DLz+aHLGg3e+cHbzivRMKxUYqRqhYZwJm9fSDAAtJMClCWGFqAP9HRwByYWfKJ1Kzho5GqJNV6SrKBoEDByLi3JhCimLImtI6R6h6TGI/VievuJeGz1V9vNAtTihnUOkqLFUO/PBeCSM9QCtrXhnr69Nu/Lye456edAsjC+40CFhQOj+ml636n524Z++b26IfMOKRib5LGgJgBrZUkhLWSCyaKKdusCQMCDU5crBAbR8bYZSbjRINheEdPnUgIDhCtJJe8rtFBQZEWFQhPcuDoFfF5QLdvSRJzsU3bQOeVwpDQjviMeGRkc+bYLrdrp9KS1HbMc+PzY3HSgZGI6ANwBiSh/LJHMsBSGRQMTN2mJrWajShbx0V9Rwd62cMKPhrX2+Muu/hxw14j0ZLBPS2KGd2kLE4Wv/jNU9/dCHE+a9uuTYjrXmTmYiNAFsx8NdoBb3uoJ8HeQ0gIRIvgDABSI7JMljN0lpkm45DIWQPHZ40siREchIog0SKVBiL0M0DFEoWUJKlVB8tC4HsQHJM3rbRkRQlIg0OR05QN4JbcV8CcsItr7fON194xXXnfJQcKeh4ZwMGQNCk7X2Wavxmgtvv0KN1R1lJsIjWA5cTgit+YZnewqFYjMpfw2UCCTf6rixrS/a1Df+Izwdh8+LFzEJRujkCOjhFUgQIUOLqbaZbrmmim0QeJc5f49daOeGgwyIUAd0VCBFx77QLycv0+S5CqcmUhpfiuZS5UABYUDouvgXdQXzzmALFPluFo+D+RUbnc+FLvU4ISVN9LqEQaHvgXwqWJ2hBMmxa9RJDDL7tB5NZ5VYc0WD+tlxZxx419x9w+8Om4TUVv3gg1l+0cxk1lvhz960Gh664/kjFn604qCAXF3DMr4xZtI9zC9BkyILDxoiZ1mQ/QHsx2uKOqIIg6C4POrA1o8oRFhw+i7y/sXADCFDS1oXokZQcFLE2iwlCKM/Vq1DX+JIOzscV44B4TUebxrgtbXL6ibKt//h8ZN+C22PPCNEf1xDKT9jSBkQGshP/p6afN0Vd/wcOhEHKmZ1vakTcy3BV2mTFJBV8qaouYcnfHjxuEcRvVtaRgyR6CAV7npBx1t8Vp+OL6snfIkBEakrUah06hjiIsV9i/SBoB9xXifqJgQ9FLTSBdpF22Ok4h+PPOj+7AI9N05CWEoI+QwQAwLvQAApyQCQARG0EhR9OCKKBprW6H5UcOfLuG4J/GFEEc/TWnitik1SQ0Mq6bAkwLGWNTMsUOlhXdmmlBJIrPLX5JaOnhJ85ZCv7frSnofVrATjcUaqGHzGBJGGlG5llR9/tL7i1ZdfrVr4wbrdsxtqDjJigelm1jXcKwdDXimE5j6kmrDFIfuHiYYei9+LfqMMNxxuNJlmQb9BKpo+KAdSFEILRaQ4HYeG1pFA63H9cnK2eUrVjnIpWoHOuUg3lhDAwi/ZPr/9nG1SbTNfG9zUk07PPz1/NlDHifBxbwTekV1ZlpSb14YbM/df9cdTr63/ytBiiR5yBoSm+P07OqfcfM2jl5nx2sONRKjew9AXAh5+Q8uBohxeFRawronOdfTTCcNgLySR5+XlaP4lPCRhaASHDYrQNlKpQFfQRyPSawskrs3Jv/KPyT8QTl5ZbPQFI0kQX/E6p/aT12XmH0BRhdgM+P874k62Aeaj5ayavhrPXt+3eCOfJecm7NSJc22bEwtzXu+gZxw9CYdokwOAeVRG0RaMsgqKGL+lZY3O1nh6Q6KuPrRov4N2/98BB45/q34yW82Gs8RAjkys1ZYPRiO8fAELvvfGgqnz3ll4eNPqlmmy5Q6FvHWVZtI/AmqfLlHzEh3TIgIVa0bUuQubvJOmcmDhYiaKot78zNhrx1k35Hzk59upVfVxAfT17UVr2qlZiL4OR+ZB8Fo5zlb350U8J3xPQXgmqfgOXrZkCoaWUndomswg7lBCybWu6uiDv77ljKvrDxx6VDpD0oDQunr+xubpf7/h8SuleM0hUiZUHVQjSHeAQzYJ7xKkbgF3iHWB7kIG5xN54vmNha8S4YkLA1IoOm9kQMgE2Y1TfV3L5feXYAT4Btl983Py8Q48Op2NM58PGyvy/poeh0+d6vJ45ajX54oavq71NdOUl+fsN+WV/Q+c3VI5FmpAUCbGizLQstnu2AwrQXhs5mUx5vnkzeSwD9/8vP7T95Yekuy0xiXbjOFaQh7hsgIhtxyoVEy323IofUrsCJRg5m0PxI7KuVckUm8OOaIze/kGSDtSF6tFAAWonqog5K2IBECn044ieZJHZSkjxbwRF4vpzRtCw7MPX3bNyVdPOVZqLtl9bsMTD1kDQmP2wM8/3enhO17/cUSdsH/bSrPRa1aCMwk0C0l0HSJ3a1GBixCGRWkkpyu7wPMvPHjumDjeCH2305h5ioJtOEnlj95GI/AFBkSkJUBXHPCCKiVLNoFDng1QuGi5FPZpPSOB+F7yKrEM0zpVl9VZ1xBpmb7ThA+mzx73fu0IaRXkLtIjJzAwU6JyjCwQ4MH9lq8x2y3VTDNvdA0LZ2LMu261Vbtw/uejFy9YvvuGta0jtKRUDeRUhZTzDGOaGpZyrqAq+WUPahtI5gGhiLqPjoZQkafaRgM88D+28OwX6nl505+PUOwmWxopSt1yg0NqmnA8TYydaYHbS2YhdJvnsEY60muZKxJfGxyuPXLmRV+9fvezKlYP/JHo3RUOaQNCQ/Lkb5btdMdNz17J4qMOjiijK/U4JtqPTlBA6yTKlUNLgrxN0blcOMQi2nSe3ymY8XXEU1zlY7COQPFcioizeBGA7Rc1gBzy/3A1gd4CwAD09iYcD+phcLkIzYV6GsSRyLhk9Xg6ZyUSqldr84WsDapP70rp0WRNvX/F2AmN74+bNHL9mPEjMo2NlZlwHfIbkMMgxhWOsC4sQLvQxheXBOMDamGmdDSz4Lp1Ce/KZavdS5cur1y+fOXoaJM23eyo3IllgzXY6zwu2etRZReoIuWQgdKFlcP9oNPSDUvmQWOtBaORy4A7DJseWmnBios8vZ2aHazz19fr7p6+dT5NOA9OzbOAOXR+svcFGBAvJBQ6Y10sDPGdRCYFgkSwC4e72tLKkhd/efP3Lp5ygrS+r9c4kN8/5A0IDf4dP3xv9jP3LLrKo4/cz52rrtYhqRnwySgGAuqK2ggtIuqS5YftdQgDIoxDgfPG+dmZUvHe7Z6rGMgrapBdW88HoKcB4XL3tCYIhkTNliZ9UT4f3ju8UC8YZqkgT0bF4BBVckrwk5k2c0Ymq3qULBq007JidumWqRsWKvpUYkH1XlIlvaIqkCRdIRxOOo3yojpOoaD+pEc7Yz7DQJJVJxplSGcBMiZJgJSZqHbrrpCqB8Ky5VUVOEIUPWvIyWsaEUrKXENeNNPihFioCrxnOo8MxUl8CF/fWUCbd2QnSKCoigwHf+AdloVCZMZfkkcdOjVSAV4hwlEZUOdYJsosf6LTCrX872e/PeXSGScrQzbycEZshzAg3Ihc8umcZ+798OdKtm5/LSpF/ND99qEfQAfttDiKPI5uxTXxV4UXGYm+uVBk481SZQMyyExG98vdpAHJZ5ooAkHjHCiNaa4JcWTCeychJFUlGDiQWxwFZgMS7LQm1cpIaot+y6Nb2qxJFpiKrgREIkoPoDfI0Bi5FAoxhoHX4LALMiYwZPbGryiQWeT0XtTlDRoQ2c3fy1OnZBTwnQwGZ1yGQXCheEvGxK5+c1ZiUv0jxmK6dt57QdeF9JWO1IsX3fkFaO2gnspeXbwAT5DRcOohGB2bfFXsCQKN6HDKif4o4VjSPGdQ79AVILAAdlSCWltKaXrz2pu/df6k44d25LHDGRC64bt+NG/nZ+6b96OgNHq/9jXG8ApvHRjLxYIoqBgKBE73SESQFdJiUjiHlii40a9K3sneq8em/Kb8A1BcQHaQaUUGJAPBLmEwbFQbzTs2d4K0mvDeSSzJBKU+QYUtVFVp86b0FiethD1Ia1n+OwX05Xxjpzo3UX/QZ6AJEr/O19MKDyVWlu0W64Acq4gYuNHAd7IrZAeoKZIMghuCRGSgJBgDRDj8I+jfZCToHDkScKLohHj9adPj/UAwfHRN+MqmkXLZYUNoG2HJB43mrNAf5fRTOYaDk4gStN1mGaa3GBi4NNDcXnSZZ6WWtUm2+o3Lf3POT+Z807dyR3nCdpgIxJnQh6/+bPZ9f3/pCjUz8kApXVHt1SFyA3be7vBPG76Xb7wrUJ4L1JWgKaAayY6eQx7sD4qjae1Aubt7oxCM83nRgS00R2jzpSiAPH36TukgA39TUIgmA0NpLR0d71Q34a8CUIM2adroKSfFAwC+asjI0EZOvyBGYwpL6N82xNoeVIkg5+hdofNSCkq8n66BPoFqGBJLZ5O8mY+uhV8jXidxY4H0Kt6gICKh707kQ9dNUZEg5ic+AeqR2VGL6IJd2unxEozCIn0lficg/cKI2PT0WCCOwc2pWZZxp1lGbd1QOTL78A+uOPHX009U1w72Z2Jrrn+HMyA0OI9cs2jW/f9883I5XnNASKup02IWiwSBoMBmkEY6gHuc8OwMVCJNSHJ2r3I4PDe2R2cbma0Z9PJrB84IfJkByfc78E2kAO/mVC4cjUcd+kWNxXYUQw9W99qCSIE6JsQZAYd2Xpyn50bevSdHvN/5DPpO7MlCxKjb723nRlyv8x5R+HUgqGJTRP89eKkGq6RsX1dRMWzXEXkqGA+aQFCDIQIMBiI8TUhGOqtBFgD7AuAKTPbnWMzTstZVE3/igsuO+s2u3woN+ZpHzzHfIQ0IDcJLf2qf+a+bnrost9p3eEN4QnVnWwxhvRcpBT/CfipGQs0PnpwEd6M4veU8lILt1cHt7KgeXF8f4dK/X2ykYrunY5Nsw5vYhDdrQDZ7S8VovcLPX5Y+ElKodGHFhsP+FTW2cknmQi9LAfwhvGfRGFpkePJNsnTblKolB2kQSTr345JxDIggEy2krcUpBAGp2+Vl0RQaAvGf1+8G7FljKeCmw2Eva9fWNgXGZR+45BcnXztU+zy+bLh3WANCA/PaX9ZP//v/PfbLCnnUrtG2zAiVBVgoUA9oJpYOipUU5hsGeXmiwJZPcxU1GJIHueOmAL5seQ2Gv/eEYW/OGbANTbcoIF+r5uuDH8XwzyIwRrc1UtRjSClRZ8P64tHqeZ3C2Dn6Ls57nQeaCvz53xXVeRw0EbdJ+AcnnhwM07QNrrEbulJUNAtnIZ4upBBVN5p5sqhzBD0sCU0ZA7o6noBhxtNtq2rHuh770Q1fv3bEV6TWbXB5g+Ijd2gDQjO05N/W5F/95K9XQZZzrqSHJhhJv6SYQbSJySzsjfC8spMfF3oZRNZHvxIPtKBUHxRzXb7ITY7AlxmQ4r8XPS5UUOX5cMe7LzYgzkZE8B3hfBT6TYpRf4JOp3taauOLFDBzgfjb+LugE++5BsWVdq+pFO5EXB9FUTrVWHbgXqa8XAHNkYPk5wAZqo2AVgAINpcPdSQUy3NqDIirzqwSzC4YNiL05EVXHvPnkYcPzQ7zLd0sdngDQgPV+pLVeMkFN1yWblcPVLO1M4LSMNmlR5ilCZlUYSnoQRVeH+e6KRuQLV1jg+x1tmOQdwoK6a1uN0KGgfcFFBsAsS0XH4X+QOf3hb9zaLDdhyTes3GUwT9xMwaENjyVNDZsY1aIgoqNVMGwFQIfJ10nCCh3ZAPiUNbw+BLDQvK8TvGc5kcFm3NbfANDqyYMSEe6Nbv4k4k71f7thv+c+S9pOC+A7dBH2YDY07/+Navhykv/9F29LXx0qtk1s0JuVNwQpaIauvBSRAqLU4WTb2cbkXIEMtSeH8eA9Hw0nGjCMRKiR6BQqP7icchHDtSHYRsEwRzcM4XU3Yhs3CldMEC02ZE0czdG6KK0WXem6WLDZWvI5JFGmzZcQ21me96P4xCKCFFEdzSmgsaIUlhgHYbuSbjOzVa1L0ixSPS9OQeN+vXlvz7yeWjElAufGLNBLAXWv8t7+L5Sk7XG+vVPz3ksszqTsuKdXTt7Qf0A2sX8iajPi6ct6MGn33IvtH+vo/xp23kEnH2guB/EprDhV7LRPkFQT5EvJ1WMggywc90bF7v5x9itHcXf6fcqILabSoF+keEQZ7INGNYivwbb3nGjYR9OcV38xhF6yiOGhfnDhrljmg8xhuQQcrycwG9zSV4+HsTGjHHNQkQrmUtn3CHjo32P2v2X5/9ul5f7k9NsO6/2fj9dOQLpMaSZBVbV7b9/7ytvPbvkQiVROVfNhb2K4cs/5I7X4ijyFVAuxTnwog8tQs844bJD1Mcfa+7t7LiPcL+v6K39wI0MiCiWd+fSLdQyxNzZKSDagiit6WhA5M9dPJ+bn1v6GBcMCK+P9FgDBXqN4htyop6C8ws+FJ6CKhicYn2Xgn/TnbJDfKZIgRX6GrZ26Er+ep5WtsfCrkV11+cRkUWht4f+UWxIaawEAk2g3YhpQswXaXlYUE5kvlSn7mt//ZTvHvarw35W807J73mAXUA5AukxId7pUoe52Hp8+PDwhvv/8frlLK3sZWTkoGW4IIfqA4spFhWWpD/gYh0dXcCDh0UATCkt4OodsSYBDeUmgn9xnQm+UvnyxOIE9QQVRsGB0GdRqgG2qAbV5WxkvMUm3X0DL8Bke9oKnpra6Ia3zCEQaS2nxrZl7+lZJxGmrHsUU3w9+VVoR0DFlypAAINqtrpdLFcZ5UJVFEkBYkvGwekYp/vi0YRtZJA9yFMPOWOOl4AYhpno1pfQ6S8ppLgIcwy992imDYy6ifWe6s4nvv2Dw6474MKaZYN3pLbdlZcjkM2MbWa+FVg1n43+7eV3X51q8+1RGxzb2NWWAX+WhyVSXawqDMOBJ1XPkQtaKLQ720neI+Sqaw7ahk5G3qwt8UlmBcqBZQOy7RZ4+ZOH7ghQlECNlByFZuuucwVOHklQpEhfDjGiSN3l8XH4G7l0FAFyjjDZw+JahvlDQdaZaWJVo9VlmmfdEz/9zTd/O/koacPQHcW+3VnZgHzB+FktlvTZq+kpt1736LfXL2LHhuTRkxTNywKeAGvtWMWGV9WxJLRFRCEVBKmcl9tm6HUiDXuEHX0RzqmTL5yU63B9W77ld+/oI1Cs5+Ggp/iYdM9BFiIt3rWPiIM3UIIsM5NjVZV1EJeDxgsiD8Ob1sxAx/zQyMy/r/zdqXfV7SV17Ohj/EX3XzYgW7A6ut63hv/0gnu+17KYHalmqqZXe+tkS4eMUBKKPuhcFxEG6XELXh0OjeTJV4cqXmSunMYlUjJzCBzLXFpbMAHll5RHYBMjwKsWTs2CEgEcUCBe2DMzx9GSvNeDvgsQBJd1BqGlAfZd0wW+MlcyGpfXfjjnwHE3/ujaQ//rmkhi7uWjbED6YQ1EP7Lq7r3lvbmvP/HZxUaXb3aFu7ZazfmZlQnwFJShpIH8g3IdqdbRYra8vL5BcECO04fXQ4y+Ci1gQr7g9xR/6KD0LlBR9MOFlj+iPAI7yAiQE0Z9MNxgIFVFiCqSJBbJKYAL7BSWBDCuBFsgDAiePQNpYwBj+N99KZaVO1lGaV1ihbpePeHsA/9w5OnTF7nH29X1HWQse3ub5QhkK0bOarbUp29dufPT/379wth65SAlWzPSb47AonTBTiSQj4UR4TlZMiAeyrDiBxdftMKAIMlFqBvegEbRiWDzFVDC8lEegfIIbM0I0OZFeizCgAA1xSMQooYUbMQ8C0C9fjAeZEA42AA1EskEqtII4rnLsbi0wlArox8G67UnL736rFvHH1Oud2ztHGzN63f411pLLHnph/rEP11777mpDZFDza7GmbIe5IuUAREi2FmL4LlkQPi/xdA5mkEOvNBAJ/IgBsLs8OuhPAClGwHxXAkYtNPrku93IToSHoGg0M6JEgVjMUUmDMAVhgyB7urK6ZXLX504J/CXb55/xCtjvya3le5uBueZyxFIL+ct875Vd+MvXz7+k9c6zlS12hlAgfiJGlyB4AynRKBUFV/c9mHj1AsNX4IC3Olo7+VllN9WHoEddwSKuu5FVO84aeSpEWxXYJcpSCEVeCJF5fUOilbkXIfmaXl/j6Mbrvp/P9/7fWlUOWXVm4VUNiC9GTXHJqy1vE/+a8Wse/7+wvf0aO2+SGeN9pm1LB5LsgpSsDOTMCAZrqPtAXLLhKx1IgP0B2ji3T6VS6QWL/w+XEr5reUR2OFGgFLFJB4MfXkUE1EPIYQjxLxIT8uNongyDTVICdkBV4DpElLKbihEKq0sYa36PDQs8fC5lx3zj33Orlq+ww1cP95w2YD0cTCtTkua91zHlL/9/r9ntixRD69gE6dXyMNYV3sr8yMf60e0nANii1g9JVDEuwIhlgZFfAbGg+RIZQjWDOZmrj4OX/nt5RHo9QiQAfFXhFlnNMZMLcdCfh/6OnSmZZJQcoQxUZGm0l0sBTnGBJp8I/XeXFv20/kTdvH/9eKrjnqocb8yRLfXg2+/sWxA+jqC9vvNVVbod1e8eMirjyz5cVAfM7FKHVmlZFUYjhQLQpTG5ZVYKpdkaehnSx5YFVBQpOEhBUgre4eVFO2nwS9/zA45AgSX74Ckb11NHfoFIS+bjOF5QqQBvXhNs5jPG2JdmRSrrA+ztsyKpqx3w2snf2//a44/c+RiqZE3gpSPPo5A2YD0cQCL3251WZ5Hb1o289n/fPjt6ErPkT69bnRFYBjTYSgSmQ6ksHLMA41tHTU93XIzvxdprSwkRcsGpB9nofxRO8oIEOJKguBTBjKzlpVCOjjH3NCAd6tEOYToHs5ZTk1nY/rqZaNnee846rRd79vvuzWrd5Tx2R73WebC6sdRliIcK/i+udBaesVFT69cvbDpqFXN7XOHVY70ySqKeVkscI+XAT3IcokMk+AtlY/yCJRHoPcj4EaqqisbZ8NqIb2g6GxDSzPzqTmm+CE5G29qCw0zX56+a8Vfr7ruwNelCeXGwN6P9KbfWY5A+ntE7c/LLLIqH79n1bSn73v3vI61+n4htXJ0yB2WEp1JdK8HWBBqh5S79bp92+gKyh9bHoGhPwIet5vFk1FEIuinQiOv4pdZ2oon40bX8saJoftOO+/Qe/Y7179i6I9Eae6wbEC24bhbCUte+TYb/fcbHjt60Tudp1apY6ZpHSyo5FRWDTJGHQX0DL52ZEW4bTj85Y8e4iNA/R9SDtGGC2wPXhgSs4vlvLGWhLL+3el71918+e+OeSswQYoP8WEo6e2VDch2GH4U2IMP/WPVLk/++83vy4nIXi7NV5+JJVhluI5l08Acoh5STGdSIIgrvjjRcVtg7nU0KxytCoK8F3W0F+mQbHyLNlMp/aGsRbIdVsAQPUV+vdk6JXl9eGdbcVpkxbos6MLzldxtUApOlP0qW7SrWDun2/onlmvUwV2uHEtkY8xXFUg3xVY3107wPPjdH5/wlzlfZaulGt49WD624QiUDcg2HNzij7ailrToNXPs3bc+ddyyj5qP8krVk3NRd33YaGBaCqQnCMUNCwgt1EoUt8QSYPmlnyVJASQRzYn4zjlS0BUlmYqgR4F2gUQFFZuymhseR/LO1iGxiNYh/2Db4kX89eVGxu009UP3NPkubxLEItoeN+d+I2ZqYTGIuJDWGUluQSunCCwiZKLRcKsoLAeYrU7SvCiA0zsMrt2B96kWaoYWSyWizOMVa14mZgdwyaUzBvMGgXL0d5iat2uprnS9PXv3MXd9//KD3g3tVI46tteiKxuQ7TXS9nmsVivwxG0rZt7+10e+J8erZvlTw2c0hMaw9S0bWDCApic0haSzGSaD4kQFwsQE7NeiIIMMBr4UdNQSESOpEUumQ9FA0qrigaWDa+lwKgf6B73WPkgDgX8YvU58cWqH8lEegd6MAFcEFNQ9MAXCcJAh4fIGdsRsrzMRV3CxA/5qh23dMGg9Yl3DkFiKWIs6/sgbBPH5SfR0hMJ+bog6o+0sEPCxgM/PkvEUY6Fcap2++PMR08P3nH3B1+/f8zRPGWHVm3nsw3vKBqQPg9fbt1odlhRbwYbdfvMbB7339KrvGAnf1KpwTW0qoTE9A/y6O8gsUKIE/SGWTYHhF4ppYJ3Gc4YHEIaFviwYAjIUlmCMs70+enCJoFGw/ojw39Y/4BfrNC2KB7wgc1omc+ztXJbfR8vPWT8wKHbkKxwXWmfCoOSbZR2BJzu7ZObgEqn4O5BTFlhzTSsj1jaldfEM+IOVrC3aCeVPD1N9BkvqbThHV9rl05a6q7RX9zhixm1nnL/zIvdEiaRCy8d2HoGyAdnOA158OrD7ule+xcb/8VcPntO8LjE33mbMGFE9pZKlXKyzKwU6lCrmhldmUqRBFgRPIaWpyD/jxoMMCdhFRZqKOLg4vZx9CqHGJjNKcSE1xtPRZECE+BV5jPyxx2vKdPIlXASD+tRCP14c5OH01Ci3IxLHmNivJOp1EZGI2onKadgzXC5aRkQjI10rMQ+kZl1Ib7mR0nUzjZiuvQlmuFrXpK2m+XP2GvUPECC+NvJrUpkAsYRrqGxASjj4zqlzi62KJ+5dNP35Rz/5Znyd5wA9GpzkM6rwCHl5lzp5ZgpI4CQVgT3+rcGgEDmconqYwQV1xDQKI0H/plSV+IWTd3YmWgjwCEMjivXw9oqL7wNgPMqXMFhGgOpwFGHYAI486y0ZEnEPojjupLREpEx+Dq+BUBRCrRlkNFDPQ/iBep8LBgWvweeC8Ye5/OCPy3WxuNUctQJdi0bP9N9z1Ml7PbXf+cPKHFYDYJmUDcgAmATnEkAVX3ndT947e9F7zcfK8fBOWswKeRUfggQYBBgQCvURL4Bbi4qMeNBcbqZTdIIH1MkpFyt5FuNcnKIlz03nPUJ8Dj63oBQ9gAajfCmDYASctUQ+iXBGHNTURkhCpyZXhL4SdOtZTjYqI11FxgPxCP6NeMYgXR3wx3ly2Zzaucxdk33t8JP3vPXY00d/Kk3NF14GwRgN7UssG5ABNr/WMiu0/BM29t6/v3Ti0o9aDvSa1VNzCVelnqVQH0pqSFuZeMLo4VMUKK+ZoPThyCuRcxYpKmE6xOQ6+WlRH+GQYZ7ygudI7+OUQGREykd5BLZ+BJxIw1lnBZh5cXpLxCJ8rWHvNzlyMMuxWZLsY3pOGCKXAtAI1rYG/jjJnWGeiLaqI7nk86NP2+93R5w466PqA6X2rb/C8ju25QiUDci2HN1efnZ6hSV5wyz01gNd0++59Zmzku3q7GxUnSybwZBHCsDZAy0K0CtcHofyyYSsss2FeICFASkUNEXKSqQTqPbhvIaDJouMTC8vuPy2HXIEeD0un/4UKEHhxJCjQiqcjvNCKw8Fcop2uRGh7zmhHCiHwGVF9T2kq9BNnkMt3JS71gdrjA+qRij/u/jK4+6uO0hq3SEHeBDcdNmADOBJsuKWpDWz6nf/1zH1nr//91vNyzN7hN3DR5spV1CBpjOeNtBXU+hPD6wOLH2GP5xuFB1lpLgM/E3X6CFFrQT5ZHquXdAhkaDDnoWXZ+rQTqC0QbmZcACvgoF7aWRAMpAq4L1KIDAkQTUJa86L9WeB2DCVigJyq7KsFgczrpul0jAOsCnBQBXLwY6YqHXAarBYDnTschdzV2SaYtryz8fOCN9/5veP/+/MvUMrpfpygW7groAChGIgX+MOf225FkuWYqzq6fvW7PHAP184U4/5p/mV6rHZTskTdtcwBSkA00Iu2UjDaAAOiYhEkaD7jJQACeqY0GbXEbEYHHFFnh8Qj4BN+vFQ59KkE13uBdnhF1kvBoAMiIo1ZGC9UYOfoUtYT6Jx0INoQkaRXMt2sarqEGuHPk4AWjhuT4R1RTNYe9XQxcmyeK4DXeRG3PRFP4sM1547+bwD/rXnCdUrpIpynaMXU7Ld31KOQLb7kPf+hBCvcrEoi/z3Py373fmXR8+W0lVjWVdkitsKSW6XDBprNBkStBcZAfLwKOrgcEjq4EWKQAZnkIncs2YkOHOpF96fqZGKW9mA9H5Wdtx3Uv1DBypQRwaV0laqAsgtVpyFBahQ0ypSVh6wKrR3tcBgBJkKJupYDHBdLGO3il4nVzJphtbP99cmXz77ohPvmXucukQaJiGMLh+DZQTKBmSwzFTRdVL/iI7U1mN3rz7w1ScXHK91uacnujJj9IzkdSGn7FHQuWvBcJDaISyHAZSLhIK5AmoIgfRFdhq5BB0qbi489OUU1iBcBAPgkjmzDgyIQvLN5LVQdQ2/o7VlEHJQwjpDdJIDosoDac4smgQDIR/KI1pHIh1fNWmn2qd2O6Txga+dOmyRNL4s8DQApnSrL6FsQLZ6yAbOG6x2uHIJFr7/z5/t+/B9r3xTi/knRtxjx2gJOWhmJRYJBPBAQ5MdtRGU3aHBnmO5rAJ99koYjgqWQZe7S6UHv4zCGjizOriuREOYGwp74ZhkwU8Vs3s7iLfKj4gjDEPi4dQkaSvGJG+ipTWxYO2Iid6Hv3/ZyQ/MPti3UmooG47BNePdr7ZsQAbz7NnXjmK7oq1n1S893bHT/x7/6ITVizr3sNLKGDfzVRhQQ0TZnPMHoVIJYjrkp5Ug87iqWBYCVzJSWWUDMgQWQYluQc9lQXQI5T89iZ6kDPMFfZwnIZEhuC7ypgh7NSXTrLuTy3bZd+y9x54x67Fpc9gGZXS5xlGiKevX05YNSL8OZ2k/zEoBBpNgofee6Zj89P1vH7vw/ab9K1yjxyZaWb1PCoNjK8S0NEUjOnLQEsugUKLI5D0WtxyW9h7KZx88I0AwXS9kYwm0kUqhdAHaHV/AC3r1KEtZHbFgLVuaVVs+mb77yMdP/+6h7zVOY01AVZXD3cEzxV96pWUD8qVDNDhfYC6zIusWsRGP3f3pEZ++u/6w6HpjSkCpqAe7r0z0Jh4U3UnQilINhNJyukZ63i1n9eW/3JSRsenhu72px+u+CCLMeb0ES33Pg8j3OCkk/y44vJzvvOu5l9BjOpXTNeOoVfR5hjnLMbEfF75v6fWJe7f1NDb6/uVX5pAU9jy/c5/5T+iGhi1uLi30DRXOZv+d34+AfxezFYg+IhzEfaUjAvEA5UdvATxcl7Ro0mxtGjEp+MKeB095aO+vjVnUcLDU/OV3Un7FYByBsgEZjLO2FddsNVne6HLW8NLT6ya99NS84zvWZWapZmAM01zDzJwLpgPoGPSC0AZhIp9t6USjTYgaBdEJvEtAbAwENpwFHr+XVeg2IDWRA0OwgQjGw2sojqCQaFgsUKvY3e+012zimk3sTjmluBmt8CJn4xLfu2/QxQakuHGy+BR5SpcebQTdDZMwJn05HFLAYgMnaDy6G1KxCXc/OPnHFhqQTb2f0/sjLUn3SigoGs/Cd8pYFlhyBcWIw3vmEBmiTwiEhdQzpGBu6bBQ/LbgYBDzs4Rgwe/1sM5YJ6QFqHbmYSlIDVDE6obUQEZLAhqeA92IHvVHpLWmK74gXCe9cegxe7xwwFENqzwzJHCul4+hPAJlAzKUZ7fHvVlLrfDCN9nYh+555dhPP1y6n1+pGmak3OM8asiHVjCkt4iESEZjIihT8G8zZyLVRWy/IG8EsoYQNXRQ4xhxchFOWMEmxWOU/A7nbJz29260Kt0viAyDQUgefEYxh9dGU7KJiCO/PX9JJFKgcxHv6H8DQp9aHCEVIiqHNDBvpJz7sL87fFEbG4eNDRDf3HEzxYaVfqfYEOxuvy+iV+8ePQgtGBHJiZhTkf08ErXQVMo1aBCZKtDnIAkB/gVj4g/5WSqTgDZHjAUjPubySmhETWdkl96SU1IrUkbH0p33mPTg10/b/+OJc1mLNKacptpRtpWyAdlRZrroPhGV+Nd8ote//uK8xg/eXHbQmmWJPeOd8qQq/9hhQXejP93FoEOiMw9XQswKJmAZ9RK+L8DjhQEhr1WW0IgIIyO2ULIsNpmeQ2FR5P139/Rtri78UrH/kNeL2EyqbFMpNIdKgzzvjQ+xtHt+bvfIhnblvtR/CnxPpJJn2YbQMQjCDNhiX/lRoveIv/RkSi7cw2YMCA0xlaiLDAkZYPHvwu83ZY0F1b+43zwbLl0JIN5UD5MRCdLPOaSkdNyLzHwoafjQRY6eU0QhBnFXuZLoHI91dGVXr/aE0vPGTKj83z6H7vrBXgdMbq7ZW4rugI/SDn/LZQOygy8Ba73lXzaP1T/1yDtT33jx02PjLcrulYHRtT65si6TzMkSOthdSG+4SfSHNkNKaeF3EqnIgQjP0AV5o2BWFV3I3RQP7c1d5PoLmxj9S8H7wFAPL7p4EjaxoXdz0Z0NkDZOeMhAkZkbObzdz1NsfEQEUiRwlOdr6s1CEAaEPPmeNZv8p+WNW7ebzBs3ov8o9OH0fE0Pw9gjHUcGFBUtbO6FmoVsR4mOyFOe4t/WipGITp1IDLnhpDkDWgq0I7z5D31ClKKU8JlkRDTq4QDbs+TKpS13pjmZa17tq8y88pWj5j503Imz1lRNYp1S3RfGjr0Z1PJ7BtEIlA3IIJqsbXmpaE6UO5pYzcfvrqp966VPxiz5pHXvTKd7BstUTJO1UJ1sBEKKBbZUajtG6koFEzBxbpGiHHdsuQGxc+vdRKqENy22OLtga29mFH2o2KCcKIR/Tr5aUpwCKzYqourAaw6IjCwZFC7ccPU0PKL+ImxP4W88AqEoil9P38kkyRiJDZlOJ66eb/v2pk6RAT/ym3/BKJA0sQROM5k0NboZB+c1xSCFIuNi79kUfejo3BP3KKK/AoGhqHmIl1KY4hAd0lwg4nAUKcGMS7UtYmjWdFCP6BokOzSo/+W6FH+mxRVKvZ9ztb03bU7j2wcevvvqKbNq2yPTy93i2/JZHEyfXTYgg2m2tuO1trxt1Xz8VlP9Pf98ei8zGZnK0sGdZDMwimnu4UZO9tO+6EYaS9KpaczWXy9iX+2+adL+1nODF5suGQ+RZnKMTM+bLH6fcx7nNSLqEcXjItRWDyO0aZiyYIvlio19iEIcA1K4anvztxFM4veFzZ/uUqDL6HVkQDz43pNKpuj19LJN8gmKzyHj4dx/t/vo+Z78+BfGk2pPGrrDZQ9AEy45h4guocup9cyTWewJZD5UQqkF51x03Hs77R5Y75pcrmtsx8dv0JyqbEAGzVSV5kLR7a40LzBr3n/904pP5q1qWLUoPruj2drN0ELj/VJFoyvnqVZMl1dcnU3pjV3NSctwD5gXbUVqi3pQHG+ZvF4DuXZSVyzW1S4Ufgubcc+N2KkDiCKyEwEUiszFo5WHnXYbQicmcuo2vRlf4c1vGuJcVH8p2sy712CoPkLjsTmjWUCxddfZsMealCrRAU4sA8JAUyRBRlakFXl6zY5OnDHlhXt+PRbTFS0p+a1oVGteoVttn9c1ut7YabdRH+y239TmGbMbu4K7lHXGe7MqdqT3lA3IjjTb/XCvyXlW8P23otVvvbpw2OrPWyfH1iX2Vg3PJAhVNaLKWouUTEQ2PTJJnVK+nadpeKRB6R1idwTahxsR1C9QjNdZAN8FjFgcAmrKU0Hci6fisJ0a6tGXQJ+vAIaaV1vscX/5z7F/362vxHltn4roYiMXn2un1npcAzegmzsHr+GgOM0164trOwKaW6hVFCHbitBuCqIn1Urami6k80JNfUDNwYA4RpPGgAScTIAgTAXUA1K6y5JzLfjdWl1Nz/fXqO/O3nPyJ4d8bZemKV+XAJ8oH+UR2PIRKBuQLR+r8it7btArLWXNgmzN/PcWV73+8rxRK5e0zrG08ESvXDfSSPtGZuOsoTo83GNkLQ/J8v7/9q6tN2ojCnt8W3u98W4uG5JQUpQmJbRUgKABqUJV2wce2r/Qn9mXPvQBQakKipqKCgKl3TSQJbCX7H3Ha3v6nbEdtoW8RIR9GUeWN76MxyfO+fY7V5OYiI5ck5gnIIIQYQ4GESMPRdrhATLkzKWt9FJQ0UcU4iMdrFOeAuWhSHs9lCudiy/eYD8p20mK91HRSAlDOB4CpGwDdyIQonExBIWovgYWUwYBMGpshCW5PplHthjIh8nGG9+fXECgRxFq5GtIEy6zUGdyrFP3SESpyag1qpKMY9SBOHlOytPAtUi+o0gCqmIr2QLkRPNl6A9OodKuDYZGIdTpSnOVc4RsKCrOQPkQuj/1Go+xUg+YCM/I8NzCFP0g6nR0l78KjdYOj19WzMLg0cefnN688dXVvYsba7Xyl6yrXmwlgeNKQAHIcSWnrntDArWfReHB5rPSg82Kv/e0vdRvigvP/2p+Y2n5Rdf05m3D8ZGY6I6CwBYBAERHgqKGasBGDu15U8WYKspMWdN+Uq7jSpyOkRI1GL5xI1ooCYlNfCAMGlpuJWgkgEQLmW4kQMgEuQQoSOky5LwIXJCcm6xHLdl18lrCD4xFYEh+mPEx6NihCQ/gQYwgAwjaT8CQJR4yAtQUNOUzpXKQlWwp6o3aF6fzGgc4io6K0c7YAPgAEAXAcYSwOKJ3PGSjxigePBuy7qO5Jfd2sWzvrF5Y3L18fbVz7fuZhnp1lQTelQQUgLwrSapx3pBA5zfhVR63SvdvP5y+89Pvl6s7neuetVgueguzbASG0o+KDsrvQbu7yIBmpCyzBVHDUsmHiAwi1iBBgI6nZcJNgI8OBhNKtKAe71C2pPxJ2ZJyp5UYSzpOBkDjCjkBgaSWU3Zc7ksBRirxdE4ZaIyfRxyBOkEiFuqQZRDTGD+XkvFiaPcsOus/TAr3JYYUjdBNEs8pgRG/Z9cTE5GRblR6H6HTcsHx9B4BMs0HPa3fzE1ZDc3kz1u9vb2BqO0ur03/+vXNK9tXb6wfzJ/RO4V1FWqr/j1PRgIKQE5GrmrUt0igcVcUnjwQ3h9bO6XKkxdznTpfr1Vq11nAVqAkZ3XdLCELvgSTj4XGinY4ikwTDAExQpJtEBch1iCgTOkrt2QXaJJFPpIEAYhVJJ91nE+KNhgEcouxx8xTCQMhIkGKO/O/HDKLjKHQkCnbyR7n/0zFRC8MaWw6PO81Y4jBEswctXdNM/mJedBcMwZDvhEEgZGJS5reZKkRRJUhoS8EMKEAvywnolt6bBhoOWmglSSL6mAcVczneWiEj0+fP3PHK+eqH64uts5/Nnfw0brWLV1RgKH+Ad+PBBSAvB85q7scIQHxRFi7W9rMrVt35+/f21qpPqtfjLlVRmOsnKkX80acL0Xcno9H9izTnALMYY6BDttRxOwQLXxj/QBoATNSmudAvghKciQAofIs0sEuHfmJqYvCjwl8skxwFJCVADLOGt5mNqKzDk1fh88CNzY6OpLLX7popHksieqSoAazGQFCKE1UZFqDz0MGBVCtKUInlIvhrmaajjBQSUZjPAgZGocz3jVzYdPIBfVI7zd52OzyuN3J5cXT5bOntj7fuLT7xY2Lr059y5AarhYlgclJQAHI5GSv7nyEBJq/CKe6O/Lq+3278ue+/XKvPf1PpXau9qJziffFB+i2WDK13Bx8D67jCA99eU1YedCUm1lCkE3KtEXETBEbts0cVAyhfAtCCgIWctingALzVxQgDHbMZJUBSWbWGneqj/tIkvOAAlSIktrwUX4H/QjU/iBGAuc4o/IglOVthCN8Bp1Alh74Ez5zWOBAjUw+RFtwOL3bQgvaggVd19N3y4v+1vJKeRvbg+WVueHMvDs4ddrozVx7a8yveo+UBCYmAQUgExO9uvFxJfDoh4G//fDxVHXn1cL25t8b0VCfCYLYjwPhx5GeD4N4Cu19p4ENvmfDbz8yXPR+dxizmMlysGhZKNFiEMjYNppr4TOijMEZhKAtCtPKRU4PW+ySC1wscJUzlq0C0VOh7C9vRkAh5OijlHEoOGjICPAVDXGHPg+6hpmLW6ajHRgW68Dp3cM02ratdwwn3v90Y+3ewtly49y5tdbqTUtVrz3uS6Gum4gEFIBMROzqpiclge6Pgg0HmoMQYhdbu9vQ/F5X81oNrdxu8YV+my/0enyp1+kv8W5c5l19FuDiBkGQ45w7aPtrw4SVxO6SVyWxSQmgDmDGCODz4HBsD7EOmBX28iX20s6LWsH3ql7B2c/7ubpftPeLM1rd87XulK/1LE/jeU8bFL9T7VtP6u+uxp2MBP4F8UANhgvv/SkAAAAASUVORK5CYII=;" vertex="1" parent="1">
          <mxGeometry x="617" y="116" width="70" height="70" as="geometry" />
        </mxCell>
        <mxCell id="yZUwgCXandGBFA6V9dU8-13" value="Anotation" style="text;strokeColor=none;align=center;fillColor=none;html=1;verticalAlign=middle;whiteSpace=wrap;rounded=0;" vertex="1" parent="1">
          <mxGeometry x="622" y="186" width="60" height="30" as="geometry" />
        </mxCell>
        <mxCell id="yZUwgCXandGBFA6V9dU8-14" value="" style="shape=image;verticalLabelPosition=bottom;labelBackgroundColor=default;verticalAlign=top;aspect=fixed;imageAspect=0;image=https://upload.wikimedia.org/wikipedia/commons/thumb/c/c3/Python-logo-notext.svg/1869px-Python-logo-notext.svg.png;" vertex="1" parent="1">
          <mxGeometry x="887" y="114.64" width="70" height="76.71" as="geometry" />
        </mxCell>
        <mxCell id="yZUwgCXandGBFA6V9dU8-15" value="" style="shape=image;verticalLabelPosition=bottom;labelBackgroundColor=default;verticalAlign=top;aspect=fixed;imageAspect=0;image=data:image/png,iVBORw0KGgoAAAANSUhEUgAAAOEAAADhCAMAAAAJbSJIAAAAgVBMVEX///8AAADv7+/7+/vU1NTGxsazs7P39/eenp5vb2/r6+s9PT2jo6P09PS+vr50dHQNDQ1lZWXi4uJZWVksLCzMzMwiIiKrq6slJSUdHR0yMjJRUVE5OTmQkJDZ2dnBwcGEhISZmZmLi4tERERWVlYYGBh7e3tCQkJqamoTExNhYWHZCh7jAAAVoUlEQVR4nO1d6ZqiOhBVwA3FBUVtbRS0tW3f/wGvQCqpLGRBdGbu1+fHvdPIkpOlqlKpSjqdX/ziF7/4xS/+McSbyfOYRlafmm7s0I/b4xecu+3gOjDy+3J43f7QEsF+S/weWIX6T00d3zdtheChPYLd7rnlumylp7bVRStsWiXYXbRAMGyVYHffKsHu3HueoevQMMFvk2C3GzzPkHx4GHnPIcr0DDdQ5nVwuJf/uPQCDYZtM9SNHzukWoaUYCFuZ+W/PrT68/j3MTzpGFKCH4U+IQy1Y+wfYzihBMt2+/8xHALBXUXqf8dQJPi/Y0j10RYo/RGGfe1NcdA7JoF+7lCnLaILSFFql/9dDKNptoJG6O7zoFaj1zEETT9mhGwY9t7EMBl1BazSGmu4jmHGj8ECfw/DZC/yKzFSzpHqGM7k638LQ2+h5FcgV7xIz3AuX/rjDHu1/B4Yy81oaMPbguK2+isYpjqCD/TEB656hjL0dunLGXLl+so302N/ctrhi6KHwZnhp7ZcyYsZIhF6S9hlv488AgJFZ4aZtlwvZniixbiKuiFhHPmvOzPUGxCvZUjtrA/VB+hM6MKJCleGBlfhSxlS182X2oCh3rklvmpguFsh7M6pyX38UoZLQmBU90wIdhx+Ss9w3vExzOVqnSESG4mqhXjEP9Utc1RUhe2Crs/Fyya8kiERJRddRUMtDNmlf4ch2DJ6SQDSll35dxgSazSjN1xzkJnxKTvC5bU4Ev8Zhh5pHDA8l6w9p5h5Xxyso3YZBi9jSP6ekT83rMtOuW8OtnxNGBh2xcsmvI7hlX8z6OsDnatPyC9kLkEt8H+G4ZYvEEwx5tRhBiORFCGDO+0YhqOxFucN//oHQy9d6HHLtOvFfb7cnepPuqolLU3tgEJU6cSbE8NIfJ2MVGBotzi2r29sgWFc/TmhvwfCq5gt+ln+PQZKNxuGuUVhI57hzYrhY45gyZBoQ2SOcRS3aG5fqZU5GJhWDG2KG/MMPywZdvc1JorAkAhMPIMP5vQlK9zfiUxyYkhHswZCG9qvUd+tGJI/E3xLTt9xxJcznuHChiEIMg3IAKEME/3tGGrHPaEEjaZoQ7x4i8fzrAnDQbrUYiGI6scHj+etHqwf2zCUxyG/DI4oVpOsH/DV2zG0BtaHkR5eDMNb2YgCQyJL2ZxBXOdnBnnll/qGP1/I0AwyYpRxEgJDog+/4E8p2uYHeqVXCSCqD/8ow041J7+ofhIZ7vgCEYHZ3dG2hA5M+nMKd97tGB762mi2I1SgI0NSTtV6g8hQMDeJpbILqUyDvk5KTqWuHUOosVp8HBoxJNalynoT1QNpKzDbqrlFqegT7iXEaPuhNo4Vw6OJ4EPn+i9mGM35ewsxtfLYR0EGDfmasGRY6zxFCF/MEApBi55sqJ6P+ht4BZjQTHFaMTR20ncwBDv0qLiZgYzPD3ZlacNQtOMVOHN3voJhB5ZFdT5bsHOQirViyBzmtQS91zMEFbirdydCU6zQNTuGnUgXzBYE1KB4JUM6WPZ1rUj7Gn7qy46hLV7KMAJT9lPtHKCm+AxfbZnhoW2G3JuYPFAs7/tUHq44NrYMfS3exBDJg3PC3+4jUcGbSHsrhvHtc6fDGfTtixl2csbjPKGPRcEJ+RSER6wYel0jTu9hiCk+pOoyyyfpbL/GF8UnrBia4h8KRO9haArL3krvsmJo74l6PcNOvFMXoMRI1pVWDCf1r6QYvIthx8/ryvChymWxkzTrundSEE9U6wyVq4Wh2lCeKI0dO4Z+/rXXgca2vIfhQ/YNPwV6+7o4TTuG1ngXw+JTm9u+0hGr5fVYn7p1/hsYarwY+jXtKHzA0+fe/TmGgziZEj9Yvtn0j0HMFcKKoQ1aZhibGfreYXNaqEX+9n6aJFVZ3sWwdLFBuumQIAWcCDLA9aZn6AXDkU6dldjFb2Fo47ioh7JcSX6emx/tEn8BYfh8KmMdw6dSVLfSZ7zN0vwYRdhBbWgbjuXKcGBW8vUQwq3jiTry3IYhweVju/ucyQ3av+uX38fj73kNQxsfaR2wl+TReo70SC9Ver9EtWLj5lSUCarHtWCAMXKj9O51d32O8kkfPPCHoNffDLOvUoOTFWvVQyeuhN7YvlD8kwThdTV3xuXMrCcvV0mW1Vc6PZA+k1eXUO+LE5DDqhrmEowdFmHVRkVZxtAVrP0Oii50zqbcWJIZIkhpMfyKuNHDidFOAj2Hnjz6rlOpIrUMUVQ3ALWhkzqTUhSexlRU6+tUaQToGXbi0zeEJwsMIxYJsV0ZsNw8oWvU6K94ertTnY1jYIgw5xge2ABXJQK9GFNBwo2S+ipsyBAJIf06zSsQ8PwuG23sezOGGX39R4s7qdjhwMuXe2K4vwnDAfuGJqb9NfAyjp+U1iJj6M7wwKKXUvNj7WLC6ffUuDdGmIBBtzsvZ5NEu4cMMERhNC/QcVocOAWRm3b16WWCwH1ge62XGyRIJv9jQzDiDJjUwO9Qr65nNYpFtP+Wj08k6aSFTVTs0P9BH89MWxbpJxtnpVtQYFgY0mU1PZ+vbwMuMfdu6D1Hoxeju1Nw5BkWNxDDe2+ozzaAJwE7g36I7eJOx5IbBDOswpNy+PPVzcg14MRwc94VsNov77f7ci81rKgJ0PogWcZnc4vXNuP0wj49Moz7kB+Ai/wQgkgahIchv8IlZGUz2QSR4Ti8Xr+3xFNAInRuMmAC3NOWU1neDnrclJCb8sRwlfXJA2rXW+vTB/JZFB2dmW7Gw/VU19pRiqQy1+eroMofTpngCWQLSSwy0Cx7bPwAWoPMdL05QgvO3MwozO+LodDw2M5/wTQK9VCln4cDI3jm1ElwGo1GGd8hv+xL7aP6uBt3R3RDzKyutbmH9GsKDbY6P0tg1WESzo/RyETdT6uGHLKAr+ZRTt1iF14csUQOPneGFdvCvEZ9qUXViDqHhaSmSVA7XgX4SNXwv4TUMrBoFyTDapOMHOGzRYiaEDMeoAdXwoQfezyFihoAxZ3F+2MmcM5W27EaX8gUkVWdQYPvyNfjhxn0OS2SThDD7cbv9M4onQ0W6jObTzC9MW9h+1RU81a2BMSFXkLu+bFkqZ25l3qwNmSyJEogufC0gcO04M5OdkFLkcYxO+NJEaFm9LupAFAg0ZOakflilnaWUp//btwVIU+HSatBXdpJSJ/ZtTPz3fVga0mWfiCf6E1I/ZGmv9uO5M9YCx+zLBvTPXVJjWZEzNywdcVCE5IeLYU5fh46sRj9A6oDbjbr/QpsMI4bujfYgt3c2nwgj4Bdx3fSS1rtJBekF+46yMO8+lO1vKkEsxRWjewblr08ttY6IFfoA0TTfBf/wVKvdPVADcJFWGu3dhyyFZsmWoMlxDnshExmfGzQkmbZ+sde2XxenByqLtU7emQQMC1LLNSaTFoVmLxxnk+xhfXM4SmxCemVqor7leA5V2GF0IWZBQfZTg7Digl7x1VDRtBF3RzlRkc1jLzI60JDQC9BfIgqcdHibGbitDDF9LSTyTCSahOUXEcM9yi03qfYp6Fib+KLdWCWuAPFXpOHOhB6yzY18qHZ+nI8yZTW4yVgk1lWIfY44nfagRG0MhIpYqEFhqDcH5aYL9mlEdUt3S1tRtJN3YQ/63GWFFltO8onUjOgsZl9lquCx0+4g4ENZLUXrQQm963EDSXo7CYg8yaimtCulQc0O5qCf207wE5QYo2GlL0TYuq6tOh1TNE72wmVcpoT6c+a8JtZZMU7wy3lzebWpBF9vkmtwYIZzKUGt729pUZRaXCY/jBlHNMGrVQP64oxtbtgcv9dta/zt6l9aFwLhzsbEPTHXP0Dw5IVl41Ohk2ZPQXqBBhWCsd5xypE0SQ8YE7SwJSNKtEJNhdtw8IHf6TN1qENWgw9apIAQ9K3GzhDQdyYxrAhsFkHrzKzYZ9DtiqxoDVc8djTbzCHy5g8RSg3mQ716Ne0IF9v8IGOVw0qmHIjr9+jQxABek68gBjccw/kCq55wrnRClolwUxSatG4k4ptSIQG6ZxyQtyIc+KAHfREG5J+YpqZ5NVtlwaVGG35L0RUF3ypkhpj1JHZ6gZh2GAcekTlZob7YLyazkxSQJClxctSoqYCOUQ2Z6xxqF/DzI/H9BlMQKPOB9/Myr2jVGN4jC+RzlnEcvPxo0VfJiOC85VVs/aPjit8MJrGxlupXvlxpriQn8O2DDZNU/Ql7IBoatNE1L1loQXoZGTr2lFTucQwHSq7TgyG3K28hQyIOR5zpEYyxy8zp5mVzc7OunCUqKRusEsX3tWJSh5RMsmHvaqRB7Cn2ES+33HdLKJTM0tPJHNEunmwDvK4Ip1n+Riie1xf3qM592ACo+tZk++Gc0eCWO652TaVQvxgLmh+P8VbUrWef+ADNxH1ucTZjNidIG7FGjeGN930ZF86MfmYvBaXLeazR2c9iX59xpD0Agd3Ip6wOxDEFJVDt5wRXOqy59Eyo7RIsVQkw7PbiUZxGYZsou1EELt3FGsyIBPF4QJ2Jmtd+cQ4OTmG8YF1cAc9xVb/nBcSmc0orl551JcumfFEdqD9tc0bNKAWJ8V1COhmr28QQ8zcO1+clXhgmXwXcUGDdBkka4wU8co58z1agvX4RnkyMQ3JwvEDXC+TutNOasTqgZl34MffIqgO8sMuddKEa9vlwIjNXhpGgYXUUmCDmLcuJYYwLDhzKEgi/BslNkgS3DsG+DcLsMW1deOATJrsAHO+SMh+lRj6xE5RTbSxclSpdIgFsmxC1pmaLpCWGHHVGovCX341NJRqLLE1c9VhryC9h4rfFGCdaflchFtevqR6BxP9H/s6htT1q7BpPRq+qXgOWthuBRil0mT2ZNSY7se3qpszqTj26p0NdAqt+G1w+l7tVt+ZYk15ADVjJRRRAJ+jnleiGhc+i/Be+KDzVQMAbE51hMRgoO5TMPG2Ch1BM832silDNgSLQalh6IMEdpnGQvVpD+yAD7Dx3GIqDVpmKW3xuuNcClBz+9s2wmFARbRFidFCpNNZy14/u9aDeXdJXAdhOJqVEJJiqU27spvnhS4z9JwRdIr3Qs9pAZJZjN1acv2VjRMbA0xr5AsIUYCj0/Ktbaq0uFbLwJ8rxSrsbtLGAxb0mxnLicyis5Oat91QgdnvcpXwcoVR7A61wgOV2UgwZFForvmWdvt+bNGoUux4xo85VPLtpE7i+BsU42YcVeiVxnwWAXKIpArcPqID+XehhDi4ZH5V2f6HEw5vM43YGIU57l0NUYj6WNfjYysQCJcfH/Bj9bh4eljI53lf+x7rrr435Z1Ra4Oa8PGcxt2MIcquaaZtpGao2AfiPLpmp+w62/8IP5hSHI4oIWncQMs/yXBQx7AT2OUfrkxpjEjCNEvpfhlDOylt6HQRltuWweYiXsjwIQGlkGC+/dTbH1LwG0M2jVp/KcOHIKvfLnRxNPDb4PNSlo3tbCNDP4zDeivaxLA4VVu1xdOob7LM+5jf/Ik9B7QMg5xm7GSKTNCODcMC4TS/Q4fd3XPt+VYl/A0ncbNn8kbrGYYn4Zyjm0Ls2TEsUbn/zMu0xYaeXMa6KSvegDqGyq1R9xJHB4aVEWBOizlcOX7jZ2fyNQzrdtsV84xbZ3j84j/4fO62kmFUu/eaaGS3yzAWlgE+LL2LWqgYhlo1xt3KMdzcF5P6MWNiGE4EK2htUJeWUDD0sNl/vqZ5euLc3bjjYIbVyN1vakhqGcobLl42LaUzywzRTpHnPq3FBG0RgOQNYsjmYetUJR3qGfZO0lloK0hNnFxHLshkpSAzpO31zUvOkGluthiCGPJm6D7teXwnUzL0klSxw8sSvmxz0J2AregBkxjSl8qGPJ3YMq8FYiidrdUd39LegdaGwDCKk8lINf+4nGg3b0CwK3klRYZ0kUglpmngMl2cxuNQsfvhA/Pd+XbaTI9Btby4OyTH6eS6HNccm7if1kVzWOOLL7TIEPSE2owLgSLdqQQx7AzNRwvqsRvWOCbdwPs5BIYgLuqmKoHwu6APg9Rho1EB51QcQepOYQYvPwSGRJrUW4+gk9UMizoauuwjDLirFOnC/JwSvCTnGYIbTeOR/+DeorRp/F5q3iKKYZcqApAYw7WnPxcGnRDTMzNUpNjRYpP/E6Vw0zAskWwWO+OW17v7RLObJGFov3eCBcMrfwv7eHJf3Su/Z1QJm5WJYYHwME1nSxXR9fmW9QPDtAgxxGcW9okD1juiUwvLPWEtGJ5xrQ1mqx1RitXoq/ou8UvEFgxJPUVeGBynlaBdT/rHIPSs2oUy9ASroNxZStx7N7dhSCxSEpdU2t9FUE9IYleqzssdQOU8t7CZAUsMJQH9w61qEmwsGBJdceJ/oeZYFTxEFMawGUO7jSE4hgOZzMMeUZhD9gwrc4YQmzNz9IpvSt/G0Fdo/qtqRWmQGBkS0/KImSBUtgKJys3+KMOZr7D6PDPDGP8hrhPC+hPXlf9RhsTVzqfvUocCaej87QyT4nTC3pxjeD8UJxZChI+ZITHmIa4FRT6s2CIgeU3/7QxL7RzxDKuiTqwZDqpWo5FnORCcyUGjwdsZlvMZ7zmGML+ntsae+xVfIxm//1obwqSajjmviIb64iI4yVgl7fxOhsHhgUQYh3Fx8WTPkEiRNf3Z76dCTgKRsPn7GWI0laXKSGYeoCXjf5WhMpIZgxhLIIz+FMOsoU3Toflm45pZG0zxwVHwFrtUsStaX95n62GOW8yemPfnS/oe/pW6E9/BMEJZxQQX1WZwNnOLAmCzqzaIoiEkVJ28h2EkLEh9FxayGAgxtJoBd5Bj90d0zcdL9LK3MnyUaopA7KsoQdd6lnP8AmzufMfxWiGLAULpZe9iaAdLhjicaZVXeR+HDeonuJDOq9zWG7J1OIZBglGJwZC7Fjsw7PBhZyLOilwXG4Z31eftGEpZcJsOzuAg5fLsGWpXRPhdih0Ywktv15kJ1x5mOFCsXxwUUa5LB4aafTkFd78DQ7s4T4ITYugrTrQ6dRRrJL6Vxifw1bHRZ9EZ7sDQ6jRlioOeodKmcWL4EC7yushZTgx2YeiJcZc6bBjDgaL1A8VhemeXXlqCX1vfZapYXxeGijXUevQ6SNJIjZijDZZpAWNnhgWB3iSdLUbZUD5IrQFDLp9Aj08fM+x4Uw5VYYI+utRPOg7awgFuDIuAh92HBW6llnfW+G7j0A6uDItHIiPIxIYwjG1PLvT6L2DouzO0B1kh/bHGXMOwH3mNEL6SYTur3E4HYNbiqU2na+F0diUCP3AbRnQIaCOZU4a8v5QVxJ01no0QKfGic8OaNaKo2BSLc854zTBsRlGRdGLevcKE75YPRUHQJ3/KSJUJKk8dzP3A9XUEW8Nx2Bybtx1q94tf/OIXv/hF+/gP9wB/iAATy2UAAAAASUVORK5CYII=;" vertex="1" parent="1">
          <mxGeometry x="795" y="117.5" width="65" height="65" as="geometry" />
        </mxCell>
        <mxCell id="yZUwgCXandGBFA6V9dU8-16" value="" style="shape=image;verticalLabelPosition=bottom;labelBackgroundColor=default;verticalAlign=top;aspect=fixed;imageAspect=0;image=https://cdn-icons-png.flaticon.com/512/1014/1014901.png;" vertex="1" parent="1">
          <mxGeometry x="704" y="120" width="62" height="62" as="geometry" />
        </mxCell>
        <mxCell id="yZUwgCXandGBFA6V9dU8-17" value="Image Resizing" style="text;strokeColor=none;align=center;fillColor=none;html=1;verticalAlign=middle;whiteSpace=wrap;rounded=0;" vertex="1" parent="1">
          <mxGeometry x="705" y="186" width="60" height="30" as="geometry" />
        </mxCell>
        <mxCell id="yZUwgCXandGBFA6V9dU8-18" value="Image Augmentation" style="text;strokeColor=none;align=center;fillColor=none;html=1;verticalAlign=middle;whiteSpace=wrap;rounded=0;" vertex="1" parent="1">
          <mxGeometry x="797.5" y="189.35" width="60" height="30" as="geometry" />
        </mxCell>
        <mxCell id="yZUwgCXandGBFA6V9dU8-19" value="Feature Extraction" style="text;strokeColor=none;align=center;fillColor=none;html=1;verticalAlign=middle;whiteSpace=wrap;rounded=0;" vertex="1" parent="1">
          <mxGeometry x="892" y="189.35" width="60" height="30" as="geometry" />
        </mxCell>
        <mxCell id="yZUwgCXandGBFA6V9dU8-21" value="Data Preprocessing" style="text;strokeColor=none;align=center;fillColor=none;html=1;verticalAlign=middle;whiteSpace=wrap;rounded=0;" vertex="1" parent="1">
          <mxGeometry x="730" y="230" width="120" height="30" as="geometry" />
        </mxCell>
        <mxCell id="yZUwgCXandGBFA6V9dU8-22" value="" style="shape=flexArrow;endArrow=classic;startArrow=classic;html=1;rounded=0;" edge="1" parent="1">
          <mxGeometry width="100" height="100" relative="1" as="geometry">
            <mxPoint x="500" y="290" as="sourcePoint" />
            <mxPoint x="570" y="240" as="targetPoint" />
          </mxGeometry>
        </mxCell>
        <mxCell id="yZUwgCXandGBFA6V9dU8-23" value="" style="shape=flexArrow;endArrow=classic;html=1;rounded=0;" edge="1" parent="1">
          <mxGeometry width="50" height="50" relative="1" as="geometry">
            <mxPoint x="513" y="359.5" as="sourcePoint" />
            <mxPoint x="587" y="360" as="targetPoint" />
            <Array as="points">
              <mxPoint x="533" y="359.5" />
            </Array>
          </mxGeometry>
        </mxCell>
        <mxCell id="yZUwgCXandGBFA6V9dU8-24" value="Data Split" style="rounded=1;whiteSpace=wrap;html=1;" vertex="1" parent="1">
          <mxGeometry x="600" y="330" width="120" height="60" as="geometry" />
        </mxCell>
        <mxCell id="yZUwgCXandGBFA6V9dU8-25" value="" style="shape=flexArrow;endArrow=classic;html=1;rounded=0;" edge="1" parent="1">
          <mxGeometry width="50" height="50" relative="1" as="geometry">
            <mxPoint x="727" y="359.5" as="sourcePoint" />
            <mxPoint x="777" y="360" as="targetPoint" />
            <Array as="points">
              <mxPoint x="747" y="359.5" />
            </Array>
          </mxGeometry>
        </mxCell>
        <mxCell id="yZUwgCXandGBFA6V9dU8-26" value="" style="rounded=1;whiteSpace=wrap;html=1;" vertex="1" parent="1">
          <mxGeometry x="789.5" y="302" width="265" height="120" as="geometry" />
        </mxCell>
      </root>
    </mxGraphModel>
  </diagram>
</mxfile>
